SplineFontDB: 3.0
FontName: Pomorsky
FullName: Pomorsky Unicode
FamilyName: Pomorsky
Weight: Medium
Copyright: Created by Nikita Simmons, 1999. Revised and re-encoded for Unicode, 2015.
Version: 001.000
ItalicAngle: 0
UnderlinePosition: -113
UnderlineWidth: 20
Ascent: 800
Descent: 200
sfntRevision: 0x00010000
LayerCount: 3
Layer: 0 0 "Back"  1
Layer: 1 0 "Fore"  0
Layer: 2 1 "TTFLayer"  0
XUID: [1021 275 2047955494 4269330]
UniqueID: 4247862
FSType: 0
OS2Version: 2
OS2_WeightWidthSlopeOnly: 0
OS2_UseTypoMetrics: 1
CreationTime: 1304750996
ModificationTime: 1438636538
PfmFamily: 17
TTFWeight: 500
TTFWidth: 5
LineGap: 35
VLineGap: 0
Panose: 4 0 6 6 6 0 0 2 0 4
OS2TypoAscent: 0
OS2TypoAOffset: 1
OS2TypoDescent: 0
OS2TypoDOffset: 1
OS2TypoLinegap: 35
OS2WinAscent: 0
OS2WinAOffset: 1
OS2WinDescent: 0
OS2WinDOffset: 1
HheadAscent: 0
HheadAOffset: 1
HheadDescent: 0
HheadDOffset: 1
OS2SubXSize: 700
OS2SubYSize: 650
OS2SubXOff: 0
OS2SubYOff: 140
OS2SupXSize: 700
OS2SupYSize: 650
OS2SupXOff: 0
OS2SupYOff: 477
OS2StrikeYSize: 50
OS2StrikeYPos: 250
OS2Vendor: 'pyrs'
OS2CodePages: 00000001.00000000
OS2UnicodeRanges: 00000001.00000000.00000000.00000000
Lookup: 4 0 0 "'ccmp' Canonical Compositions"  {"'ccmp' Canonical Compositions-1"  } ['ccmp' ('DFLT' <'dflt' > 'cyrl' <'dflt' > 'latn' <'dflt' > ) ]
Lookup: 4 0 0 "'ccmp' Precomposed Glyphs for Cyrillic"  {"'ccmp' Precomposed Glyphs for Cyrillic-1"  } ['ccmp' ('DFLT' <'dflt' > 'cyrl' <'dflt' > 'latn' <'dflt' > ) ]
Lookup: 1 0 0 "'ss01' Style Set Simple Forms"  {"'ss01' Style Set Simple Forms-1" ("simple" ) } ['ss01' ('DFLT' <'dflt' > 'cyrl' <'dflt' > 'latn' <'dflt' > ) ]
Lookup: 1 0 0 "'salt' Stylistic Alternatives for Cyrillic"  {"'salt' Stylistic Alternatives for Cyrillic-1" ("alt3" ) } ['salt' ('DFLT' <'dflt' > 'cyrl' <'dflt' > 'latn' <'dflt' > ) ]
Lookup: 260 0 0 "'mark' Diacritical Mark Positioning"  {"'mark' Diacritical Mark Positioning-1"  } ['mark' ('DFLT' <'dflt' > 'cyrl' <'dflt' > 'latn' <'dflt' > ) ]

StartChar: .notdef
Encoding: 1114112 -1 0
Width: 427
Flags: W
HStem: 0 19<29 398> 748 22<29 398>
VStem: 0 22<34 733> 405 22<34 733>
DStem2: 29 748 22 733 0.465951 -0.884811<10.0105 395.419 421.078 806.952> 22 34 29 19 0.465951 0.884811<0 385.408 411.068 796.942>
LayerCount: 3
Fore
SplineSet
0 770 m 1
 427 770 l 1
 427 0 l 1
 0 0 l 1
 0 770 l 1
29 748 m 1
 213 398 l 1
 398 748 l 1
 29 748 l 1
398 19 m 1
 213 369 l 1
 29 19 l 1
 398 19 l 1
221 383 m 1
 405 34 l 1
 405 733 l 1
 221 383 l 1
22 733 m 1
 22 34 l 1
 206 383 l 1
 22 733 l 1
EndSplineSet
Validated: 1
Layer: 2
SplineSet
0 770 m 1,0,-1
 427 770 l 1,1,-1
 427 0 l 1,2,-1
 0 0 l 1,3,-1
 0 770 l 1,0,-1
29 748 m 1,4,-1
 213 398 l 1,5,-1
 398 748 l 1,6,-1
 29 748 l 1,4,-1
398 19 m 1,7,-1
 213 369 l 1,8,-1
 29 19 l 1,9,-1
 398 19 l 1,7,-1
221 383 m 1,10,-1
 405 34 l 1,11,-1
 405 733 l 1,12,-1
 221 383 l 1,10,-1
22 733 m 1,13,-1
 22 34 l 1,14,-1
 206 383 l 1,15,-1
 22 733 l 1,13,-1
EndSplineSet
Colour: ff00
EndChar

StartChar: comma
Encoding: 44 44 1
Width: 250
Flags: W
HStem: 0 6<150 166.066 186 201> 72 13<123.737 167.238>
VStem: 175.5 26.5<13.8125 64.7808>
LayerCount: 3
Fore
SplineSet
49 4 m 1
 48 5 48 6 48 8 c 0
 48 27 98 85 159 85 c 0
 192 85 202 70 202 53 c 0
 202 31 186 6 186 6 c 1
 201 6 l 1
 201 0 l 1
 150 0 l 1
 150 6 l 1
 165 6 l 1
 165 6 176 27 176 45 c 0
 176 59 169 72 147 72 c 0
 100 72 49 4 49 4 c 1
EndSplineSet
Validated: 1
Layer: 2
SplineSet
161 85 m 0,0,1
 202 85 202 85 202 50 c 0,2,3
 202 38 202 38 196 26 c 2,4,-1
 186 6 l 1,5,-1
 201 6 l 1,6,-1
 201 0 l 1,7,-1
 150 0 l 1,8,-1
 150 6 l 1,9,-1
 165 6 l 1,10,11
 166 9 166 9 168 13.5 c 128,-1,12
 170 18 170 18 173 29 c 128,-1,13
 176 40 176 40 175.5 49 c 128,-1,14
 175 58 175 58 168 65 c 128,-1,15
 161 72 161 72 143.5 72 c 128,-1,16
 126 72 126 72 101.5 55 c 128,-1,17
 77 38 77 38 63 21 c 2,18,-1
 49 4 l 1,19,20
 47 6 47 6 47 11 c 128,-1,21
 47 16 47 16 58.5 32.5 c 128,-1,22
 70 49 70 49 99.5 67 c 128,-1,23
 129 85 129 85 161 85 c 0,0,1
EndSplineSet
Colour: ff00
EndChar

StartChar: hyphen
Encoding: 45 45 2
Width: 400
Flags: W
HStem: 224 16<68.3378 136.617> 230 46<314.027 353.875> 281 47<41.1406 80.8848> 316 16<258.365 326.051>
VStem: 22 19<262.031 285.812> 354 20<271.309 285>
LayerCount: 3
Fore
SplineSet
286 332 m 0x9c
 329 332 373 306 373 270 c 0
 373 245 357 230 340 230 c 0
 326 230 314 238 314 252 c 0
 314 270 326 277 333 277 c 0
 344 277 354 270 354 270 c 1
 354 271 354 273 354 274 c 0
 354 297 319 316 290 316 c 0x5c
 282 316 275 314 269 312 c 0
 208 289 171 224 109 224 c 0
 66 224 22 250 22 287 c 0
 22 312 38 327 55 327 c 0
 69 327 81 318 81 305 c 0
 81 286 69 279 61 279 c 0xac
 51 279 41 286 41 286 c 1
 41 285 41 283 41 282 c 0
 41 259 76 240 105 240 c 0
 113 240 120 242 126 244 c 0
 183 265 223 332 286 332 c 0x9c
EndSplineSet
Validated: 1
Layer: 2
SplineSet
22 280 m 0,0,1
 22 328 22 328 51.5 328 c 128,-1,2
 81 328 81 328 81 306.5 c 128,-1,3
 81 285 81 285 70 281 c 0,4,5
 59 276 59 276 50 281 c 2,6,-1
 41 286 l 1,7,-1
 41 281 l 1,8,9
 46 261 46 261 64 250 c 0,10,11
 82 240 82 240 99 240 c 128,-1,12
 116 240 116 240 132.5 246 c 128,-1,13
 149 252 149 252 180 278 c 0,14,15
 244 332 244 332 285 332 c 128,-1,16
 326 332 326 332 358 304 c 0,17,18
 374 290 374 290 374 277 c 0,19,20
 374 230 374 230 342 230 c 0,21,22
 314 230 314 230 314 253 c 0,23,24
 314 272 314 272 326 276 c 128,-1,25
 338 280 338 280 346 275 c 2,26,-1
 354 270 l 1,27,-1
 354 275 l 2,28,29
 354 275 354 275 351 285 c 128,-1,30
 348 295 348 295 330 306 c 0,31,32
 312 316 312 316 295.5 316 c 128,-1,33
 279 316 279 316 262.5 310 c 128,-1,34
 246 304 246 304 212 276 c 0,35,36
 148 224 148 224 107 224 c 128,-1,37
 66 224 66 224 36 252 c 0,38,39
 22 265 22 265 22 280 c 0,0,1
EndSplineSet
Colour: ff00
EndChar

StartChar: period
Encoding: 46 46 3
Width: 250
Flags: W
HStem: 0 85<93.3477 156.683>
VStem: 82 86<14.469 70.5615>
LayerCount: 3
Fore
SplineSet
82 42 m 0
 82 66 103 85 125 85 c 0
 149 85 168 64 168 42 c 0
 168 18 147 0 125 0 c 0
 101 0 82 20 82 42 c 0
EndSplineSet
Validated: 1
Layer: 2
SplineSet
82 39 m 128,-1,1
 82 57 82 57 93 71 c 128,-1,2
 104 85 104 85 131 85 c 0,3,4
 140 85 140 85 154 74 c 128,-1,5
 168 63 168 63 168 45 c 0,6,7
 168 29 168 29 157 14 c 0,8,9
 147 0 147 0 120 0 c 0,10,11
 112 0 112 0 97 10.5 c 128,-1,0
 82 21 82 21 82 39 c 128,-1,1
EndSplineSet
Colour: ff00
EndChar

StartChar: colon
Encoding: 58 58 4
Width: 250
Flags: W
HStem: 0 85<93.3477 156.652> 161 86<93.3477 156.652>
VStem: 82 86<13.923 70.5615 175.438 232.562>
LayerCount: 3
Fore
SplineSet
82 204 m 0
 82 228 103 247 125 247 c 0
 149 247 168 226 168 204 c 0
 168 180 147 161 125 161 c 0
 101 161 82 182 82 204 c 0
82 42 m 0
 82 66 103 85 125 85 c 0
 149 85 168 64 168 42 c 0
 168 18 147 -1 125 -1 c 0
 101 -1 82 20 82 42 c 0
EndSplineSet
Validated: 1
Layer: 2
SplineSet
82 201 m 128,-1,1
 82 219 82 219 93 233 c 128,-1,2
 104 247 104 247 131 247 c 0,3,4
 140 247 140 247 154 236 c 128,-1,5
 168 225 168 225 168 207 c 128,-1,6
 168 189 168 189 157 175 c 128,-1,7
 146 161 146 161 119 161 c 0,8,9
 110 161 110 161 96 172 c 128,-1,0
 82 183 82 183 82 201 c 128,-1,1
82 39 m 128,-1,11
 82 57 82 57 93 71 c 128,-1,12
 104 85 104 85 131 85 c 0,13,14
 140 85 140 85 154 74 c 128,-1,15
 168 63 168 63 168 45 c 128,-1,16
 168 27 168 27 157 13.5 c 128,-1,17
 146 0 146 0 119 0 c 0,18,19
 110 0 110 0 96 10.5 c 128,-1,10
 82 21 82 21 82 39 c 128,-1,11
EndSplineSet
Colour: ff00
EndChar

StartChar: semicolon
Encoding: 59 59 5
Width: 250
Flags: W
HStem: 0 6<150 166.066 186 201> 72 13<123.737 167.238> 161 86<103.348 166.652>
VStem: 92 86<175.438 232.562> 175.5 26.5<13.8125 64.7808>
LayerCount: 3
Fore
SplineSet
49 4 m 1xe8
 48 5 48 6 48 8 c 0
 48 27 98 85 159 85 c 0
 192 85 202 70 202 53 c 0
 202 31 186 6 186 6 c 1
 201 6 l 1
 201 0 l 1
 150 0 l 1
 150 6 l 1
 165 6 l 1
 165 6 176 27 176 45 c 0
 176 59 169 72 147 72 c 0
 100 72 49 4 49 4 c 1xe8
136 247 m 0
 159 247 178 225 178 204 c 0
 178 180 157 161 135 161 c 0
 111 161 92 182 92 204 c 0xf0
 92 228 114 247 136 247 c 0
EndSplineSet
Validated: 1
Layer: 2
SplineSet
161 85 m 0,0,1
 202 85 202 85 202 50 c 0,2,3
 202 38 202 38 196 26 c 2,4,-1
 186 6 l 1,5,-1
 201 6 l 1,6,-1
 201 0 l 1,7,-1
 150 0 l 1,8,-1
 150 6 l 1,9,-1
 165 6 l 1,10,11
 166 9 166 9 168 13.5 c 128,-1,12
 170 18 170 18 173 29 c 128,-1,13
 176 40 176 40 175.5 49 c 128,-1,14
 175 58 175 58 168 65 c 128,-1,15
 161 72 161 72 143.5 72 c 128,-1,16
 126 72 126 72 101.5 55 c 128,-1,17
 77 38 77 38 63 21 c 2,18,-1
 49 4 l 1,19,20
 47 6 47 6 47 11 c 128,-1,21
 47 16 47 16 58.5 32.5 c 128,-1,22
 70 49 70 49 99.5 67 c 128,-1,23
 129 85 129 85 161 85 c 0,0,1
92 201 m 128,-1,25
 92 219 92 219 103 233 c 128,-1,26
 114 247 114 247 141 247 c 0,27,28
 150 247 150 247 164 236 c 128,-1,29
 178 225 178 225 178 207 c 128,-1,30
 178 189 178 189 167 175 c 128,-1,31
 156 161 156 161 129 161 c 0,32,33
 120 161 120 161 106 172 c 128,-1,24
 92 183 92 183 92 201 c 128,-1,25
EndSplineSet
Colour: ff00
EndChar

StartChar: question
Encoding: 63 63 6
Width: 250
Flags: W
HStem: 0 85<93.3477 156.652> 162 21<104.266 131.512> 528 20<116.206 142.987>
VStem: 63 19<215.406 287.161> 70 54<483.65 527.75> 82 86<13.923 70.5615> 123 56<183.281 217.688> 165 19<420.61 497.82>
LayerCount: 3
Fore
SplineSet
115 548 m 0xe9
 155 548 184 501 184 454 c 0xe9
 184 384 109 340 86 276 c 0
 84 270 83 262 83 255 c 0
 83 222 103 183 128 183 c 0
 130 183 131 183 132 183 c 1
 132 183 124 194 124 205 c 0
 124 214 132 227 153 227 c 0
 169 227 178 213 178 199 c 0
 178 180 160 163 132 163 c 0
 93 163 63 210 63 257 c 0xf2
 63 325 135 366 162 435 c 0
 164 441 165 449 165 456 c 0
 165 489 145 528 120 528 c 0
 118 528 117 528 116 528 c 1
 116 528 124 517 124 505 c 0
 124 496 116 484 96 484 c 0
 80 484 71 497 71 512 c 0
 71 531 88 548 115 548 c 0xe9
168 42 m 0xe4
 168 18 147 0 125 0 c 0
 101 0 82 20 82 42 c 0
 82 66 103 85 125 85 c 0
 149 85 168 64 168 42 c 0xe4
EndSplineSet
Validated: 1
Layer: 2
SplineSet
116 528 m 1,0,1
 124 520 124 520 124 510 c 0,2,3
 124 501 124 501 120 492 c 128,-1,4
 116 483 116 483 97 483 c 0,5,6
 81 483 81 483 72 505 c 0,7,8
 70 511 70 511 70 515 c 0,9,10
 72 533 72 533 86 540 c 0,11,12
 101 548 101 548 119 548 c 0,13,14
 136 548 136 548 155 529 c 0,15,16
 184 500 184 500 184 446 c 0,17,18
 184 409 184 409 133 348 c 128,-1,19
 82 287 82 287 82 255 c 0,20,21
 82 235 82 235 94 209 c 128,-1,22
 106 183 106 183 127 183 c 0,23,24
 129 183 129 183 132 183 c 1,25,26
 123 192 123 192 123 200 c 128,-1,27
 123 208 123 208 128 218 c 128,-1,28
 133 228 133 228 152 228 c 0,29,30
 153 229 153 229 154 229 c 0,31,32
 163 224 163 224 178 206 c 1,33,34
 179 201 179 201 179 196 c 0,35,36
 179 180 179 180 163 171 c 0,37,38
 145 161 145 161 129 162 c 0,39,40
 109 163 109 163 92 181 c 0,41,42
 62 212 62 212 63 255 c 0,43,44
 64 300 64 300 96 338 c 0,45,46
 148 399 148 399 160 430 c 0,47,48
 165 443 165 443 165 460 c 128,-1,49
 165 477 165 477 156 497 c 0,50,51
 141 531 141 531 121 528 c 0,52,53
 118 528 118 528 116 528 c 1,0,1
168 45 m 128,-1,55
 168 27 168 27 157 13.5 c 128,-1,56
 146 0 146 0 119 0 c 0,57,58
 110 0 110 0 96 10.5 c 128,-1,59
 82 21 82 21 82 39 c 128,-1,60
 82 57 82 57 93 71 c 128,-1,61
 104 85 104 85 131 85 c 0,62,63
 140 85 140 85 154 74 c 128,-1,54
 168 63 168 63 168 45 c 128,-1,55
EndSplineSet
Colour: ff00
EndChar

StartChar: uni0470
Encoding: 1136 1136 9
Width: 580
Flags: W
HStem: -192 13<143.031 194.387> -152.5 45.5<131.529 168.81> 0 12<100 126 202 238 255 319 343 378> 425 3<464.124 467.841> 461 49<521.25 556.626> 538 12<0 26 102 128 480.62 540.365> 599 45.5<354.19 391.471> 671 11<327.809 377.906>
VStem: 117 52<-152.241 -107.609> 238 64<109.511 406.722> 238 35<-77.1016 -57.4355 -56.5342 -40.3203 332.937 502.562> 238 17<-135.735 -71.375 -43.418 0 12 93 502 588.344> 354 52<599.594 644.337> 558 12<502 522.344>
DStem2: 102 538 26 538 0.186769 -0.982404<0 521.227> 319 12 343 12 0.161364 0.986895<3.87274 24.0947 383.659 480.233>
AnchorPoint: "Yerok" 512.5 584.6 basechar 0
AnchorPoint: "Diacritic" 266 698 basechar 0
LayerCount: 3
Fore
SplineSet
225 -58 m 0xff34
 225 -49 230 -42 238 -39 c 1
 238 0 l 1
 100 0 l 1
 100 12 l 1
 126 12 l 1
 26 538 l 1
 0 538 l 1
 0 550 l 1
 128 550 l 1
 128 538 l 1
 102 538 l 1
 202 12 l 1
 238 12 l 1
 238 545 l 2
 238 645 309 676 338 681 c 0
 343 682 349 682 354 682 c 0
 384 682 406 665 406 637 c 0
 406 612 392 599 378 599 c 0
 365 599 353 608 353 621 c 0
 353 640 366 646 375 646 c 0
 384 646 392 642 392 642 c 1
 392 665 366 671 353 671 c 0
 350 671 348 671 347 671 c 0
 294 662 255 628 255 502 c 1xff34
 256 502 258 523 273 536 c 0
 283 545 300 552 311 552 c 0
 314 552 316 551 318 550 c 0
 318 549 273 533 273 475 c 0xff50
 273 427 302 290 302 192 c 0xff90
 302 174 301 158 299 143 c 0
 292 97 268 93 259 93 c 2
 255 93 l 1
 255 12 l 1
 319 12 l 1
 388 434 l 2
 404 532 481 550 510 550 c 0
 546 550 570 532 570 504 c 0
 570 499 569 493 567 487 c 0
 561 469 550 462 540 462 c 0
 526 462 514 473 514 485 c 0xff38
 514 502 528 510 536 510 c 0
 547 510 557 502 557 502 c 1
 557 504 557 506 557 507 c 0
 557 530 527 539 518 539 c 0
 464 539 397 500 397 388 c 1
 398 388 404 409 421 419 c 0
 431 425 445 428 455 428 c 0
 459 428 468 427 468 425 c 0
 468 424 429 421 412 366 c 0
 407 351 407 323 407 289 c 0
 407 281 407 273 407 265 c 0
 407 204 406 131 387 76 c 0
 373 37 358 31 350 31 c 0
 348 31 346 32 346 32 c 1
 343 12 l 1
 378 12 l 1
 378 0 l 1
 255 0 l 1
 255 -40 l 1
 261 -43 266 -52 266 -59 c 0
 266 -68 261 -75 254 -78 c 1
 254 -161 228 -176 185 -189 c 0
 178 -191 172 -192 165 -192 c 0
 137 -192 117 -172 117 -145 c 0
 117 -120 131 -107 145 -107 c 0
 158 -107 170 -116 170 -129 c 0
 170 -148 157 -154 148 -154 c 0
 139 -154 131 -150 131 -150 c 1
 131 -173 157 -179 170 -179 c 0
 173 -179 175 -179 176 -179 c 0
 217 -169 237 -150 237 -77 c 1
 230 -74 225 -67 225 -58 c 0xff34
EndSplineSet
Validated: 1
Layer: 2
SplineSet
117 -146 m 0,0,1
 117 -107 117 -107 145 -107 c 0,2,3
 163 -107 163 -107 169 -123 c 0,4,5
 171 -128 171 -128 169 -138 c 128,-1,6
 167 -148 167 -148 157.5 -152.5 c 128,-1,7
 148 -157 148 -157 131 -150 c 1,8,9
 130 -168 130 -168 147 -174.5 c 128,-1,10
 164 -181 164 -181 176 -179 c 0,11,12
 209 -171 209 -171 223 -150 c 128,-1,13
 237 -129 237 -129 237 -77 c 1,14,15
 225 -71 225 -71 225 -57 c 0,16,17
 225 -42 225 -42 238 -39 c 1,18,-1
 238 0 l 1,19,-1
 100 0 l 1,20,-1
 100 12 l 1,21,-1
 126 12 l 1,22,-1
 26 538 l 1,23,-1
 0 538 l 1,24,-1
 0 550 l 1,25,-1
 128 550 l 1,26,-1
 128 538 l 1,27,-1
 102 538 l 1,28,-1
 202 12 l 1,29,-1
 238 12 l 1,30,-1
 238 545 l 2,31,32
 238 609 238 609 275 646 c 0,33,34
 311 682 311 682 354 682 c 0,35,36
 375 682 375 682 390 671 c 0,37,38
 406.056 659.667 406.056 659.667 406.056 639.414 c 0,39,40
 406.056 638.222 406.056 638.222 406 637 c 0,41,42
 405 599 405 599 378 599 c 0,43,44
 360 599 360 599 354 615 c 0,45,46
 352 620 352 620 354 630 c 128,-1,47
 356 640 356 640 365.5 644.5 c 128,-1,48
 375 649 375 649 392 642 c 1,49,50
 393 660 393 660 376 666.5 c 128,-1,51
 359 673 359 673 347 671 c 0,52,53
 302 663 302 663 278.5 626.5 c 128,-1,54
 255 590 255 590 255 502 c 1,55,56
 262 526 262 526 272.5 535.5 c 128,-1,57
 283 545 283 545 297.5 549.5 c 128,-1,58
 312 554 312 554 318 550 c 1,59,60
 273 527 273 527 273 481 c 0,61,62
 273 457 273 457 287 356 c 0,63,64
 302 248 302 248 302 187 c 0,65,66
 302 125 302 125 287.5 109 c 128,-1,67
 273 93 273 93 264 93 c 2,68,-1
 255 93 l 1,69,-1
 255 12 l 1,70,-1
 319 12 l 1,71,-1
 388 434 l 2,72,73
 395 479 395 479 420 507 c 0,74,75
 460 550 460 550 510 550 c 0,76,77
 544 550 544 550 557 535 c 128,-1,78
 570 520 570 520 570 508 c 0,79,80
 570 494 570 494 567 485 c 0,81,82
 559 461 559 461 542 461 c 0,83,84
 539 461 539 461 536 462 c 0,85,86
 515 469 515 469 514 484 c 0,87,88
 513 497 513 497 521 503.5 c 128,-1,89
 529 510 529 510 537 510 c 128,-1,90
 545 510 545 510 557 502 c 1,91,92
 558 506 558 506 558 508 c 0,93,94
 555 523 555 523 544 530 c 0,95,96
 530 539 530 539 518 539 c 0,97,98
 472 539 472 539 438 502.5 c 128,-1,99
 404 466 404 466 397 388 c 1,100,101
 408 413 408 413 421 419 c 1,102,103
 432 426 432 426 447.5 428 c 128,-1,104
 463 430 463 430 468 425 c 1,105,106
 426 413 426 413 412 366 c 0,107,108
 408 352 408 352 407 242 c 0,109,110
 406 80 406 80 368 41 c 0,111,112
 358 30 358 30 352 31 c 2,113,-1
 346 32 l 1,114,-1
 343 12 l 1,115,-1
 378 12 l 1,116,-1
 378 0 l 1,117,-1
 255 0 l 1,118,-1
 255 -40 l 1,119,120
 266 -45 266 -45 267 -58 c 0,121,122
 267 -71 267 -71 254 -78 c 1,123,124
 254 -135 254 -135 238 -156.5 c 0,125,126
 223 -176 223 -176 188 -188 c 0,127,128
 176 -192 176 -192 162 -192 c 0,129,130
 147 -192 147 -192 132 -180.5 c 128,-1,131
 117 -169 117 -169 117 -146 c 0,0,1
EndSplineSet
Substitution2: "'ss01' Style Set Simple Forms-1" uni0470.simple
Colour: ff00
EndChar

StartChar: uni0405.simple
Encoding: 62725 62725 10
Width: 480
GlyphClass: 2
Flags: W
HStem: -91 19<17.7197 38> -7 12<264.46 318.683> 57 27<98.9702 149.461> 427 12<342 368 444 470> 529 21<207.139 316.825>
VStem: -6 14<-59.0471 -11.8639> 36 42.5<-71.7806 -42.041> 74.9828 63.0172<326.911 477.482> 368 76<439 499.893> 396 69<60.728 207.902>
DStem2: 36 -3 40 -21 0.20601 0.97855<-16.5703 19.1503> 276 277.5 250 256 0.990342 -0.138648<-92.722 85.8082>
AnchorPoint: "Yerok" 415 572 basechar 0
AnchorPoint: "Diacritic" 259 575 basechar 0
LayerCount: 3
Fore
SplineSet
288 6 m 0xfe40
 359 6 394 70 394 131 c 0xfe40
 394 188 365 244 308 252 c 0
 244 261 233 250 164 277 c 0
 111 298 75 327 75 402 c 0
 75 409 75 419 76 427 c 0
 84 519 177 550 257 550 c 0
 423 550 444 481 444 439 c 1
 470 439 l 1
 470 427 l 1
 342 427 l 1
 342 439 l 1
 368 439 l 1
 368 499 329 529 257 529 c 0
 177 529 138 465 138 402 c 0xfd80
 138 373 146 343 163 322 c 0
 207 266 268 287 340 270 c 0
 403 255 465 218 465 141 c 0
 465 24 365 -8 288 -8 c 0
 245 -8 208 1 194 9 c 0
 153 32 147 57 124 57 c 0
 113 57 99 52 76 39 c 0
 50 25 40 -21 40 -21 c 1
 40 -21 36 -13 36 -3 c 0
 36 4 40 16 40 16 c 1
 40 16 23 2 14 -14 c 0
 10 -20 8 -28 8 -36 c 0
 8 -54 18 -72 38 -72 c 1
 38 -72 36 -67 36 -61 c 0
 36 -52 40 -42 58 -42 c 0
 71 -42 79 -48 79 -61 c 0
 79 -74 66 -90 43 -90 c 0
 17 -90 -6 -69 -6 -40 c 0
 -6 9 38 40 70 57 c 0
 100 73 128 84 155 84 c 0
 188 84 220 67 256 19 c 0
 264 9 275 6 288 6 c 0xfe40
EndSplineSet
Validated: 1
Layer: 2
SplineSet
40 16 m 1,0,1
 8 -10 8 -10 8 -33 c 0,2,3
 8 -41 8 -41 11 -50 c 0,4,5
 18 -72 18 -72 38 -72 c 1,6,-1
 36 -60 l 1,7,8
 36 -42 36 -42 55 -42 c 0,9,10
 75 -42 75 -42 78.5 -52.5 c 0,11,12
 82 -64 82 -64 74 -77 c 0,13,14
 65 -91 65 -91 46 -91 c 0,15,16
 26 -91 26 -91 10 -77.5 c 128,-1,17
 -6 -64 -6 -64 -6 -40 c 0,18,19
 -6 18 -6 18 70 57 c 0,20,21
 123 84 123 84 147 84 c 0,22,23
 170 84 170 84 197.5 72 c 0,24,25
 227 59 227 59 256 19 c 0,26,27
 266 5 266 5 285 5 c 0,28,29
 302 5 302 5 325 13 c 0,30,31
 372 30 372 30 389 86 c 0,32,33
 396 109 396 109 396 136 c 0,34,35
 396 164 396 164 382 194 c 0,36,37
 358 245 358 245 308 252 c 0,38,39
 286 255 286 255 250 256 c 0,40,41
 214 258 214 258 165 277 c 0,42,43
 115 297 115 297 95 326 c 0,44,45
 76 355 76 355 75 402 c 0,46,47
 74.9828 403.448 74.9828 403.448 74.9828 404.881 c 0,48,49
 74.9828 486.552 74.9828 486.552 131 518 c 0,50,51
 189 550 189 550 257 550 c 0,52,53
 444 550 444 550 444 439 c 1,54,-1
 470 439 l 1,55,-1
 470 427 l 1,56,-1
 342 427 l 1,57,-1
 342 439 l 1,58,-1
 368 439 l 1,59,60
 368 529 368 529 257 529 c 0,61,62
 216 529 216 529 186 506 c 0,63,64
 138 469 138 469 138 402 c 0,65,66
 138 353 138 353 160.5 325 c 128,-1,67
 183 297 183 297 209 288.5 c 128,-1,68
 235 280 235 280 276 277.5 c 0,69,70
 320 275 320 275 340 270 c 0,71,72
 398 256 398 256 432 223 c 0,73,74
 465 191 465 191 465 145 c 0,75,76
 465 74 465 74 424 38 c 0,77,78
 382 1 382 1 336 -4 c 0,79,80
 310 -7 310 -7 289 -7 c 128,-1,81
 268 -7 268 -7 239.5 -4 c 128,-1,82
 211 -1 211 -1 194 9 c 128,-1,83
 177 19 177 19 161.5 33 c 128,-1,84
 146 47 146 47 140 52 c 128,-1,85
 134 57 134 57 121 57 c 0,86,87
 107 57 107 57 86 45 c 0,88,89
 52 26 52 26 43 -9 c 2,90,-1
 40 -21 l 1,91,92
 36 -13 36 -13 36 -3 c 1,93,-1
 40 16 l 1,0,1
EndSplineSet
Colour: ff00
EndChar

StartChar: uni047E
Encoding: 1150 1150 11
Width: 900
Flags: W
HStem: -129 52<415 467> -46 12<307.668 350.005 532.896 577.174> 0 14<213.512 275.24 608.221 673.478> 190 54.5<370.251 406.842 469.068 513.78> 207 6<216.643 228.49 654.354 666.891> 321 13<289.014 301.985 580.015 592.986> 335 13<305.014 317.985 564.015 576.986> 346 10<275.637 292.832> 355 13<305.014 317.985 564.015 576.986> 380 87<246.846 281.41 600.485 638.492> 380 21<278.226 309.411> 535.013 14.9875<223.35 297.812 584.156 659.965> 578 109<404 481> 675 12<321.536 404 481 554.464>
VStem: 4 88<156.552 392.908> 210 17<377.312 411.885> 238 65<404.312 465.721> 241 17<280.35 308.781> 262 13<243.965 308.859> 272 22<602.173 654.335> 289 13<321.002 333.987> 305 13<335.002 347.987 355.002 367.987> 329.015 45.9853<426.377 521.249> 404 77<578 675> 435 13<-128.995 -75.844> 441 4<308.5 403> 509 45<414.166 517.682> 564 13<335.015 347.998 355.015 367.998> 580 13<321.015 333.998> 581 65<402.033 464.031> 582 23<604.356 654.289> 609 11<249.047 304.489> 627 17<280.878 310.75> 647 26<369.168 391> 792 88<156.308 393.146>
DStem2: 361 31 351 25 0.749838 -0.661622<0 41.8145> 415 100 409 88 0.523392 -0.852092<7.08475 45.9877> 488 3 498 -5 0.759257 0.650791<2.38624 45.4469>
AnchorPoint: "Yerok" 826.5 574.4 basechar 0
AnchorPoint: "Diacritic" 445 716 basechar 0
LayerCount: 3
Fore
SplineSet
299 595 m 0xff70e60c
 288 595 271 614 271 633 c 0
 271 645 277 652 277 652 c 1
 226 687 l 1
 650 687 l 1
 599 652 l 1
 599 652 604 645 604 633 c 0
 604 628 603 622 600 615 c 0
 594 601 583 595 577 595 c 0
 563 595 582 601 582 621 c 0
 582 653 567 675 521 675 c 2
 481 675 l 1xff71769c
 481 575 l 1
 404 575 l 1xffb1769c
 404 675 l 1
 355 675 l 2
 309 675 294 653 294 621 c 0xff71769c
 294 600 309 600 302 596 c 0
 301 596 300 595 299 595 c 0xff70e60c
591 346 m 0
 588 346 586 347 586 348 c 0
 586 356 628 362 647 391 c 0
 651 398 657 419 657 419 c 1
 657 419 674 411 674 393 c 0
 674 369 644 342 644 301 c 0xff30664c
 644 283 650 272 650 272 c 1
 650 272 637 275 632 284 c 0
 624 297 628 311 628 311 c 1
 628 311 621 295 621 274 c 0
 621 263 623 250 630 238 c 0
 642 216 669 213 669 208 c 0
 669 207 668 207 666 207 c 0
 656 207 624 216 615 243 c 0
 611 256 609 267 609 278 c 0xff30663c
 609 320 635 350 649 371 c 1
 657 380 658 387 658 387 c 1
 658 387 649 371 635 361 c 1
 616 350 598 346 591 346 c 0
298 348 m 0xff34660c
 298 347 296 346 293 346 c 0
 286 346 268 350 249 361 c 1
 235 371 226 387 226 387 c 1
 226 387 227 380 235 371 c 1
 249 350 275 320 275 278 c 0
 275 267 273 256 269 243 c 0
 260 216 228 207 218 207 c 0
 216 207 215 207 215 208 c 0
 215 213 242 216 254 238 c 0
 261 250 263 263 263 274 c 0
 263 295 256 311 256 311 c 1
 256 311 260 297 252 284 c 0
 247 275 234 272 234 272 c 1xff3a660c
 234 272 240 283 240 301 c 0
 240 342 210 369 210 393 c 0
 210 411 227 419 227 419 c 1
 227 419 233 398 237 391 c 0
 256 362 298 356 298 348 c 0xff34660c
351 25 m 1
 334 15 313 4 288 0 c 1
 295 -12 302 -34 322 -34 c 0
 345 -34 366 -22 385 -5 c 1
 351 25 l 1
646 426 m 0
 646 395 618 380 587 380 c 0
 546 380 509 408 509 448 c 0
 509 538 560 550 630 550 c 0
 782 550 880 426 880 274 c 0
 880 122 782 0 630 0 c 0
 622 0 615 -1 608 0 c 1
 608 -16 590 -46 564 -46 c 0
 537 -46 512 -33 489 -14 c 1
 468 -37 448 -67 448 -109 c 0
 448 -114 447 -129 442 -129 c 0
 437 -129 435 -115 435 -109 c 0
 435 -67 415 -36 394 -14 c 1
 372 -33 346 -46 319 -46 c 0
 293 -46 275 -15 275 0 c 1xff3aee9c
 268 0 261 0 254 0 c 0
 102 0 4 122 4 274 c 0
 4 426 102 550 254 550 c 0
 324 550 375 538 375 448 c 0
 375 408 338 380 297 380 c 0
 266 380 238 395 238 426 c 0
 238 449 254 466 271 466 c 0xff31660c
 289 466 303 456 303 438 c 0
 303 436 303 433 302 430 c 0
 297 402 278 402 278 402 c 1
 282 402 327 403 329 451 c 0
 329 453 329 456 329 458 c 0
 329 503 312 535 262 535 c 0
 173 535 92 420 92 274 c 0
 92 131 154 14 252 14 c 0
 401 14 415 143 431 191 c 1
 428 193 425 195 422 198 c 0
 418 202 417 206 415 210 c 1
 412 200 401 190 389 190 c 0
 374 190 362 203 362 218 c 0
 362 233 374 245 389 245 c 0
 404 245 411 235 416 224 c 1
 417 231 422 238 429 241 c 1
 441 402 l 1
 445 402 l 1
 458 240 l 1
 464 237 467 231 468 224 c 1
 470 235 483 244 495 244 c 0
 510 244 522 232 522 217 c 0
 522 202 510 190 495 190 c 0
 482 190 471 198 469 210 c 1
 468 203 461 195 453 192 c 1
 469 143 483 14 632 14 c 0
 730 14 792 131 792 274 c 0
 792 420 710 535 622 535 c 0
 572 535 555 503 555 458 c 0
 555 456 555 453 555 451 c 0
 557 403 602 402 606 402 c 1
 606 402 587 402 582 430 c 0xff38ee9c
 581 433 581 436 581 438 c 0
 581 456 595 466 613 466 c 0
 630 466 646 449 646 426 c 0
595 0 m 1
 571 5 550 15 533 25 c 1
 498 -5 l 1
 517 -22 539 -34 561 -34 c 0
 581 -34 588 -12 595 0 c 1
523 32 m 1
 500 50 487 68 474 91 c 1
 449 50 l 1
 460 34 473 18 488 3 c 1
 523 32 l 1
468 101 m 1
 453 133 446 167 442 188 c 1
 438 167 432 133 415 100 c 1
 441 62 l 1
 468 101 l 1
409 88 m 1
 397 65 385 48 361 31 c 1
 394 3 l 1
 409 18 423 35 433 50 c 1
 409 88 l 1
479 -6 m 1
 465 8 452 24 441 39 c 1
 431 23 418 7 403 -6 c 1
 419 -23 434 -47 441 -77 c 1
 448 -47 463 -23 479 -6 c 1
289 328 m 0
 289 331 292 334 296 334 c 0
 299 334 302 331 302 328 c 0
 302 324 299 321 296 321 c 0
 292 321 289 324 289 328 c 0
305 342 m 0
 305 345 308 348 312 348 c 0
 315 348 318 345 318 342 c 0
 318 338 315 335 312 335 c 0
 308 335 305 338 305 342 c 0
305 362 m 0
 305 365 308 368 312 368 c 0
 315 368 318 365 318 362 c 0
 318 358 315 355 312 355 c 0
 308 355 305 358 305 362 c 0
593 328 m 0xff30670c
 593 324 590 321 587 321 c 0
 583 321 580 324 580 328 c 0
 580 331 583 334 587 334 c 0
 590 334 593 331 593 328 c 0xff30670c
577 342 m 0
 577 338 574 335 571 335 c 0
 567 335 564 338 564 342 c 0
 564 345 567 348 571 348 c 0
 574 348 577 345 577 342 c 0
577 362 m 0
 577 358 574 355 571 355 c 0
 567 355 564 358 564 362 c 0
 564 365 567 368 571 368 c 0
 574 368 577 365 577 362 c 0
EndSplineSet
Validated: 1
Layer: 2
SplineSet
577 362 m 0,0,1
 577 355 577 355 571 355 c 0,2,3
 564 355 564 355 564 361 c 0,4,5
 564 368 564 368 570.5 368 c 128,-1,6
 577 368 577 368 577 362 c 0,0,1
577 342 m 0,7,8
 577 335 577 335 571 335 c 0,9,10
 564 335 564 335 564 341 c 0,11,12
 564 348 564 348 570.5 348 c 128,-1,13
 577 348 577 348 577 342 c 0,7,8
593 328 m 0,14,15
 593 321 593 321 587 321 c 0,16,17
 580 321 580 321 580 327 c 0,18,19
 580 334 580 334 586.5 334 c 128,-1,20
 593 334 593 334 593 328 c 0,14,15
305 362 m 0,21,22
 305 368 305 368 311 368 c 0,23,24
 318 368 318 368 318 362 c 0,25,26
 318 355 318 355 311.5 355 c 128,-1,27
 305 355 305 355 305 362 c 0,21,22
305 342 m 0,28,29
 305 348 305 348 311 348 c 0,30,31
 318 348 318 348 318 342 c 0,32,33
 318 335 318 335 311.5 335 c 128,-1,34
 305 335 305 335 305 342 c 0,28,29
289 328 m 0,35,36
 289 334 289 334 295 334 c 0,37,38
 302 334 302 334 302 328 c 0,39,40
 302 321 302 321 295.5 321 c 128,-1,41
 289 321 289 321 289 328 c 0,35,36
479 -6 m 1,42,43
 460 13 460 13 441 39 c 1,44,45
 425 13 425 13 403 -6 c 1,46,47
 431 -36 431 -36 441 -77 c 1,48,49
 451 -36 451 -36 479 -6 c 1,42,43
409 88 m 1,50,51
 390 52 390 52 361 31 c 1,52,-1
 394 3 l 1,53,54
 417 26 417 26 433 50 c 1,55,-1
 409 88 l 1,50,51
468 101 m 1,56,57
 452 135 452 135 442 188 c 1,58,59
 431 132 431 132 415 100 c 1,60,-1
 441 62 l 1,61,-1
 468 101 l 1,56,57
523 32 m 1,62,63
 495 54 495 54 474 91 c 1,64,-1
 449 50 l 1,65,66
 467 24 467 24 488 3 c 1,67,-1
 523 32 l 1,62,63
595 2 m 1,68,69
 560 9 560 9 533 25 c 1,70,-1
 498 -5 l 1,71,72
 530 -34 530 -34 561 -34 c 0,73,74
 574 -34 574 -34 581 -23.5 c 128,-1,75
 588 -13 588 -13 595 2 c 1,68,69
269 467 m 0,76,77
 303 467 303 467 303 436 c 0,78,79
 303 435 303 435 303 434 c 0,80,81
 303 406 303 406 278 401 c 1,82,83
 307 401 307 401 322 426 c 0,84,85
 329 438 329 438 329 459 c 0,86,87
 329 461 329 461 329 461 c 0,88,89
 329.015 462.088 329.015 462.088 329.015 463.16 c 0,90,91
 329.015 535 329.015 535 263 535 c 0,92,93
 262 535 262 535 261 535 c 128,-1,94
 260.175 535.013 260.175 535.013 259.352 535.013 c 0,95,96
 194.35 535.013 194.35 535.013 143 457 c 0,97,98
 92 380 92 380 92 271 c 0,99,100
 92 164 92 164 137 88 c 0,101,102
 181 14 181 14 252 14 c 0,103,104
 253 14 253 14 254 14 c 0,105,106
 289 14 289 14 317.5 25 c 128,-1,107
 346 36 346 36 362 50 c 0,108,109
 379 64 379 64 396 92 c 0,110,111
 414 121 414 121 431 191 c 1,112,113
 421 198 421 198 415 210 c 1,114,115
 413 203 413 203 406.5 196.5 c 128,-1,116
 400 190 400 190 388.5 190.5 c 128,-1,117
 377 191 377 191 369 199 c 128,-1,118
 361 207 361 207 361.5 219 c 128,-1,119
 362 231 362 231 370 238.5 c 128,-1,120
 378 246 378 246 390 245.5 c 128,-1,121
 402 245 402 245 407 239.5 c 128,-1,122
 412 234 412 234 416 224 c 1,123,124
 419 236 419 236 429 241 c 1,125,-1
 441 403 l 1,126,-1
 445 403 l 1,127,-1
 457 240 l 1,128,129
 465 236 465 236 468 224 c 1,130,131
 469 230 469 230 476.5 237.5 c 128,-1,132
 484 245 484 245 496 244.5 c 128,-1,133
 508 244 508 244 515.5 236 c 128,-1,134
 523 228 523 228 522.5 216 c 128,-1,135
 522 204 522 204 514 196 c 0,136,137
 507 190 507 190 494 190 c 0,138,139
 471 190 471 190 469 210 c 1,140,141
 467 198 467 198 453 192 c 1,142,143
 480 85 480 85 522 50 c 0,144,145
 538 36 538 36 566.5 25 c 128,-1,146
 595 14 595 14 630 14 c 2,147,-1
 632 14 l 2,148,149
 633 14 633 14 634 14 c 128,-1,150
 634.895 13.9868 634.895 13.9868 635.785 13.9868 c 0,151,152
 702.592 13.9868 702.592 13.9868 747 88 c 0,153,154
 792 163 792 163 792 271 c 0,155,156
 792 381 792 381 741 457 c 0,157,158
 689 535 689 535 621 535 c 0,159,160
 619 535 619 535 618 535 c 0,161,162
 616.545 535.045 616.545 535.045 615.124 535.045 c 0,163,164
 585.273 535.045 585.273 535.045 570 515 c 0,165,166
 554 494 554 494 554 462 c 0,167,168
 554 431 554 431 568 417 c 128,-1,169
 582 403 582 403 600 402 c 1,170,171
 597 403 597 403 589 412 c 0,172,173
 580 422 580 422 581 438 c 0,174,175
 582 459 582 459 608 466 c 0,176,177
 613 467 613 467 615 467 c 0,178,179
 638 463 638 463 645 436 c 0,180,181
 646 432 646 432 646 422 c 128,-1,182
 646 412 646 412 638 401 c 0,183,184
 623 380 623 380 593 380 c 0,185,186
 564 380 564 380 542 392 c 1,187,188
 509 412 509 412 509 448 c 0,189,190
 509 510 509 510 539 530 c 128,-1,191
 569 550 569 550 630 550 c 0,192,193
 742 550 742 550 811 470.5 c 128,-1,194
 880 391 880 391 880 274.5 c 128,-1,195
 880 158 880 158 811 79.5 c 128,-1,196
 742 1 742 1 630 0 c 0,197,198
 615 0 615 0 608 1 c 1,199,200
 607 -14 607 -14 594.5 -30 c 128,-1,201
 582 -46 582 -46 564 -46 c 0,202,203
 528 -46 528 -46 489 -14 c 1,204,205
 448 -59 448 -59 448 -109 c 0,206,207
 448 -129 448 -129 441.5 -129 c 128,-1,208
 435 -129 435 -129 435 -109 c 0,209,210
 435 -57 435 -57 394 -14 c 1,211,212
 357 -46 357 -46 319 -46 c 0,213,214
 301 -46 301 -46 288.5 -30 c 128,-1,215
 276 -14 276 -14 275 0 c 1,216,-1
 254 0 l 1,217,218
 142 1 142 1 73 79.5 c 128,-1,219
 4 158 4 158 4 274.5 c 128,-1,220
 4 391 4 391 73 470.5 c 128,-1,221
 142 550 142 550 254 550 c 0,222,223
 315 550 315 550 345 530 c 128,-1,224
 375 510 375 510 375 448 c 0,225,226
 375 410 375 410 342 392 c 0,227,228
 320 380 320 380 302 380 c 0,229,230
 262 380 262 380 245 404 c 0,231,232
 238 414 238 414 238 422 c 0,233,234
 238 431 238 431 239 436 c 0,235,236
 245 467 245 467 269 467 c 0,76,77
351 25 m 1,237,238
 321 7 321 7 288 2 c 1,239,240
 301 -23 301 -23 308 -28.5 c 128,-1,241
 315 -34 315 -34 322 -34 c 0,242,243
 353 -34 353 -34 385 -5 c 1,244,-1
 351 25 l 1,237,238
286 346 m 0,245,246
 277 346 277 346 249 361 c 1,247,248
 235 370 235 370 226 387 c 1,249,250
 227 380 227 380 231.5 375 c 128,-1,251
 236 370 236 370 245 356 c 2,252,-1
 257 338 l 2,253,254
 271 318 271 318 273 304 c 0,255,256
 275 288 275 288 275 275 c 0,257,258
 273 218 273 218 224 208 c 0,259,260
 219 207 219 207 217 207 c 128,-1,261
 215 207 215 207 215 208 c 0,262,263
 215 210 215 210 223 213 c 0,264,265
 260 228 260 228 262 272 c 0,266,267
 263 290 263 290 260 300 c 2,268,-1
 257 309 l 2,269,270
 259 302 259 302 258 295 c 0,271,272
 256 279 256 279 234 272 c 1,273,274
 241 286 241 286 241 306 c 0,275,276
 241 324 241 324 225 354 c 0,277,278
 210 382 210 382 210 396 c 128,-1,279
 210 410 210 410 227 419 c 1,280,281
 236 388 236 388 248 378 c 0,282,283
 261 367 261 367 286 356 c 0,284,285
 310 346 310 346 286 346 c 0,245,246
657 419 m 1,286,287
 673 413 673 413 673 397 c 0,288,289
 673 379 673 379 659 354 c 0,290,291
 644 327 644 327 644 306 c 0,292,293
 644 286 644 286 650 272 c 1,294,295
 630 277 630 277 627 296 c 0,296,297
 626 303 626 303 628 311 c 1,298,299
 620 293 620 293 620 274 c 0,300,301
 620 258 620 258 630 239 c 0,302,303
 639 222 639 222 654 216 c 128,-1,304
 669 210 669 210 669 208 c 128,-1,305
 669 206 669 206 665 206 c 0,306,307
 662 206 662 206 646 212 c 0,308,309
 609 226 609 226 609 278 c 0,310,311
 609 311 609 311 621 330 c 2,312,-1
 639 356 l 2,313,314
 648 370 648 370 649 371 c 2,315,-1
 658 387 l 2,316,317
 649 371 649 371 635 361 c 1,318,319
 607 346 607 346 598 346 c 0,320,321
 574 346 574 346 600 357 c 0,322,323
 606 360 606 360 621 367 c 0,324,325
 635 373 635 373 647 391 c 1,326,-1
 657 419 l 1,286,287
650 687 m 1,327,-1
 599 652 l 1,328,329
 605 640 605 640 605 631 c 128,-1,330
 605 622 605 622 600 615 c 1,331,332
 590 595 590 595 579 595 c 0,333,334
 576 595 576 595 574 596 c 0,335,336
 571 599 571 599 573 599.5 c 128,-1,337
 575 600 575 600 578.5 606 c 128,-1,338
 582 612 582 612 582 621 c 0,339,340
 582 675 582 675 521 675 c 2,341,-1
 481 675 l 1,342,-1
 481 578 l 1,343,-1
 404 578 l 1,344,-1
 404 675 l 1,345,-1
 355 675 l 2,346,347
 294 675 294 675 294 621 c 0,348,349
 294 609 294 609 299 604 c 128,-1,350
 304 599 304 599 304 598.5 c 128,-1,351
 304 598 304 598 302 596 c 0,352,353
 301 595 301 595 295 596 c 0,354,355
 272 602 272 602 272 633 c 0,356,357
 272 643 272 643 277 652 c 1,358,-1
 226 687 l 1,359,-1
 650 687 l 1,327,-1
EndSplineSet
Substitution2: "'ss01' Style Set Simple Forms-1" uni047E.simple
Colour: ff00
EndChar

StartChar: uni0472
Encoding: 1138 1138 12
Width: 525
Flags: W
HStem: -105 5<348 350.037> 0 12<110.849 176.051 317 328.582> 47 1<138.938 139> 72 56<77.437 125.172> 132 13<125.014 137.985> 152 13<125.014 137.985> 166 13<109.014 121.985> 269 14<38 78.5889 443.07 486> 372 11<404.64 414.974> 385 11<386.018 395.937> 405 11<386.018 395.937> 424 54<398.828 446.563> 502 1<385 385.062> 539 12.2002<349.347 409.891>
VStem: 0.972973 11.027<214.577 251.112> 46 23<-88.3708 -23.2815> 55 21.5<35.1885 79.8398> 96 14<197.299 250.073> 109 13<166.002 178.987> 123 76<268.569 472.071> 125 13<132.002 144.987 152.002 164.987> 177 30<86.229 135.291> 215 35<55.5093 135.44> 274 35<414.47 495.344> 317 30<414.838 463.771> 325 76<75.0967 280.31> 357 23<-86.1807 -23.1897> 386 13<385.094 395.906 405.094 415.906> 404 11<372.61 384.089> 414 14<299.927 352.701> 447.5 21.5<470.16 514.922> 512 11.027<298.888 335.423>
AnchorPoint: "Yerok" 381 575.2 basechar 0
AnchorPoint: "Diacritic" 287 575 basechar 0
LayerCount: 3
Fore
SplineSet
125 139 m 0x3ff8160f
 125 142 128 145 132 145 c 0
 135 145 138 142 138 139 c 0
 138 135 135 132 132 132 c 0
 128 132 125 135 125 139 c 0x3ff8160f
125 159 m 0
 125 162 128 165 132 165 c 0
 135 165 138 162 138 159 c 0
 138 155 135 152 132 152 c 0
 128 152 125 155 125 159 c 0
109 173 m 0x3ff8460f
 109 176 112 179 116 179 c 0
 119 179 122 176 122 173 c 0
 122 169 119 166 116 166 c 0
 112 166 109 169 109 173 c 0x3ff8460f
325 158 m 0xbff8268f
 325 263 274 317 274 425 c 0
 274 486 299 515 327 538 c 1
 325 538 323 538 321 538 c 0
 301 538 270 534 270 534 c 1
 209 519 199 433 199 384 c 0
 199 285 250 230 250 125 c 0
 250 64 225 35 197 12 c 1
 199 12 201 12 203 12 c 0
 223 12 254 16 254 16 c 0
 313 30 325 97 325 158 c 0xbff8268f
350 -104 m 0
 349 -104 347 -103 347 -102 c 0x7ff8064f
 347 -99 357 -93 357 -58 c 0
 357 -23 344 0 296 0 c 2
 256 0 l 1x7ff8062f
 256 -79 l 1
 179 -79 l 1xbff8062f
 179 0 l 1
 130 0 l 2
 82 0 69 -23 69 -58 c 0x7ffa062f
 69 -93 79 -99 79 -102 c 0x7ffc060f
 79 -103 77 -104 76 -104 c 0x7ff9060f
 70 -104 54 -92 49 -69 c 0
 47 -59 46 -51 46 -45 c 0x7ffa060f
 46 -28 52 -23 52 -23 c 2
 1 12 l 1
 87 12 l 1
 66 23 55 44 55 79 c 0
 55 109 76 128 99 128 c 0
 119 128 133 114 133 98 c 0
 133 82 117 72 103 72 c 0
 89 72 77 80 77 80 c 1
 77 80 76 76 76 71 c 0
 76 57 80 31 106 20 c 0
 118 15 130 12 143 12 c 0
 162 12 182 19 198 35 c 0
 211 48 215 67 215 86 c 0
 215 112 207 136 207 136 c 1
 207 136 206 108 188 80 c 0
 177 62 154 47 139 47 c 0
 138 47 l 0
 138 49 176 58 176 115 c 0x7ff91e0f
 176 134 172 158 160 189 c 0
 125 282 123 300 123 382 c 0
 123 467 173 538 256 550 c 0
 279 553 303 554 326 554 c 0
 371 554 408 550 408 550 c 1
 448 544 469 519 469 471 c 0
 469 441 448 422 425 422 c 0
 405 422 391 436 391 452 c 0
 391 468 407 478 421 478 c 0
 435 478 447 470 447 470 c 1
 447 470 448 474 448 479 c 0
 448 493 444 519 418 530 c 0
 406 535 394 538 381 538 c 0
 362 538 342 531 326 515 c 0
 313 502 309 483 309 464 c 0
 309 438 317 414 317 414 c 2
 317 414 318 442 336 470 c 0
 347 488 370 503 385 503 c 0
 386 503 l 0
 386 501 348 492 348 435 c 0x7ff8271f
 348 416 352 392 364 361 c 0
 399 268 401 239 401 168 c 0x7ff8068f
 401 101 370 36 317 12 c 1
 425 12 l 1
 374 -23 l 1
 374 -23 380 -28 380 -45 c 0x7ff8072f
 380 -51 379 -59 377 -69 c 0
 372 -92 356 -104 350 -104 c 0
56 282 m 0
 87 282 110 258 110 231 c 0
 110 204 102 189 87 169 c 0
 80 160 68 151 61 145 c 0
 53 137 50 129 50 129 c 1
 50 129 61 143 78 150 c 0
 91 155 99 157 105 157 c 0
 111 157 115 155 115 151 c 0
 115 143 84 147 59 123 c 0
 53 117 47 99 47 99 c 1
 46 100 27 109 27 129 c 0
 27 160 50 175 50 200 c 0
 50 212 44 219 44 219 c 1
 44 219 44 219 45 219 c 0
 49 219 62 218 71 196 c 0
 76 183 74 173 74 173 c 1
 74 173 96 196 96 224 c 0x3ff8860f
 96 251 77 269 54 269 c 0
 30 269 13 253 13 231 c 0
 13 213 23 207 23 205 c 0
 23 205 22 205 21 205 c 0
 7 205 1 221 1 236 c 0
 1 266 27 282 56 282 c 0
397 407 m 1x3ff8061f
 394 403 386 405 386 411 c 0
 386 412 387 414 388 416 c 1
 391 417 395 417 397 416 c 0
 400 413 400 408 397 407 c 1x3ff8061f
413 374 m 1
 409 368 399 375 404 383 c 1
 407 384 411 384 413 383 c 0
 416 380 416 375 413 374 c 1
397 387 m 1
 394 383 386 385 386 391 c 0
 386 392 387 394 388 396 c 1
 391 397 395 397 397 396 c 0
 400 393 400 388 397 387 c 1
468 268 m 0
 437 268 414 292 414 319 c 0
 414 346 422 361 437 381 c 0
 444 390 456 399 463 405 c 0
 471 413 474 421 474 421 c 1
 474 421 463 407 446 400 c 0
 433 395 425 393 419 393 c 0
 413 393 409 395 409 399 c 0
 409 407 440 403 465 427 c 0
 471 433 477 451 477 451 c 1
 478 450 497 441 497 421 c 0
 497 390 474 375 474 350 c 0
 474 338 480 331 480 331 c 1
 480 331 480 331 479 331 c 0
 475 331 462 332 453 354 c 0
 448 367 450 377 450 377 c 1
 450 377 428 354 428 326 c 0
 428 299 447 281 470 281 c 0
 494 281 511 297 511 319 c 0
 511 337 501 343 501 345 c 0
 501 345 502 345 503 345 c 0
 517 345 523 329 523 314 c 0
 523 284 497 268 468 268 c 0
EndSplineSet
Validated: 1
Layer: 2
SplineSet
125 139 m 0,0,1
 125 145 125 145 131 145 c 0,2,3
 138 145 138 145 138 139 c 0,4,5
 138 132 138 132 131.5 132 c 128,-1,6
 125 132 125 132 125 139 c 0,0,1
125 159 m 0,7,8
 125 165 125 165 131 165 c 0,9,10
 138 165 138 165 138 159 c 0,11,12
 138 152 138 152 131.5 152 c 128,-1,13
 125 152 125 152 125 159 c 0,7,8
109 173 m 0,14,15
 109 179 109 179 115 179 c 0,16,17
 122 179 122 179 122 173 c 0,18,19
 122 166 122 166 115.5 166 c 128,-1,20
 109 166 109 166 109 173 c 0,14,15
274 425 m 0,21,22
 274 494 274 494 327 538 c 1,23,-1
 270 535 l 1,24,25
 230 525 230 525 214.5 480 c 128,-1,26
 199 435 199 435 199 385 c 128,-1,27
 199 335 199 335 224.5 256.5 c 128,-1,28
 250 178 250 178 250 125 c 0,29,30
 250 57 250 57 197 13 c 1,31,-1
 254 16 l 1,32,33
 325 34 325 34 325 159 c 0,34,35
 325 162 325 162 325 166 c 0,36,37
 325 214 325 214 299.5 292.5 c 128,-1,38
 274 371 274 371 274 425 c 0,21,22
374 -23 m 1,39,40
 380 -29 380 -29 380 -44 c 0,41,42
 381 -77 381 -77 356 -102 c 0,43,44
 353 -105 353 -105 351 -105 c 0,45,46
 350 -105 350 -105 348 -102.5 c 128,-1,47
 346 -100 346 -100 348 -100 c 128,-1,48
 350 -100 350 -100 353.5 -87 c 128,-1,49
 357 -74 357 -74 357 -54 c 0,50,51
 355 0 355 0 296 0 c 2,52,-1
 256 0 l 1,53,-1
 256 -79 l 1,54,-1
 179 -79 l 1,55,-1
 179 0 l 1,56,-1
 130 0 l 2,57,58
 69 0 69 0 69 -54 c 0,59,60
 69 -72 l 0,61,62
 69 -85 69 -85 75 -95 c 128,-1,63
 81 -105 81 -105 77 -105 c 0,64,65
 74 -105 74 -105 70 -102 c 0,66,67
 56 -92 56 -92 51 -73 c 0,68,69
 46 -52 46 -52 46 -42 c 0,70,71
 45 -32 45 -32 52 -23 c 1,72,-1
 1 12 l 1,73,-1
 87 12 l 1,74,75
 55 29 55 29 55 79 c 0,76,77
 55 106 55 106 71 117 c 128,-1,78
 87 128 87 128 96 128 c 128,-1,79
 105 128 105 128 111 126 c 0,80,81
 127.61 120.463 127.61 120.463 132 104 c 0,82,83
 136 89 136 89 125.5 80.5 c 128,-1,84
 115 72 115 72 103 72 c 128,-1,85
 91 72 91 72 77 80 c 1,86,87
 78 78 78 78 76.5 68 c 128,-1,88
 75 58 75 58 82.5 42.5 c 128,-1,89
 90 27 90 27 108 19 c 128,-1,90
 126 11 126 11 150 11 c 128,-1,91
 174 11 174 11 195 32 c 0,92,93
 215 52 215 52 215 91 c 0,94,95
 215 107.2 215 107.2 212 118 c 2,96,-1
 207 136 l 1,97,98
 206 108 206 108 193 87.5 c 128,-1,99
 180 67 180 67 165 57 c 128,-1,100
 150 47 150 47 139 47 c 0,101,102
 137 47 137 47 139 48 c 0,103,104
 177 67 177 67 177 105 c 0,105,106
 177 144 177 144 155.5 200.5 c 128,-1,107
 134 257 134 257 128.5 288 c 128,-1,108
 123 319 123 319 123 383 c 128,-1,109
 123 447 123 447 159 494 c 128,-1,110
 195 541 195 541 256 550 c 0,111,112
 280 553.2 280 553.2 309.12 553.2 c 0,113,114
 316.4 553.2 316.4 553.2 324 553 c 0,115,116
 353.5 552.1 353.5 552.1 383 551.2 c 2,117,-1
 408 550 l 1,118,119
 469 541 469 541 469 471 c 0,120,121
 469 444 469 444 453 433 c 128,-1,122
 437 422 437 422 428 422 c 128,-1,123
 419 422 419 422 413 424 c 0,124,125
 396.39 429.537 396.39 429.537 392 446 c 0,126,127
 388 461 388 461 398.5 469.5 c 128,-1,128
 409 478 409 478 421 478 c 128,-1,129
 433 478 433 478 447 470 c 1,130,131
 446 472 446 472 447.5 482 c 128,-1,132
 449 492 449 492 441.5 507.5 c 128,-1,133
 434 523 434 523 416 531 c 128,-1,134
 398 539 398 539 374 539 c 128,-1,135
 350 539 350 539 329 518 c 0,136,137
 309 498 309 498 309 459 c 0,138,139
 309 442.8 309 442.8 312 432 c 2,140,-1
 317 414 l 1,141,142
 318 442 318 442 331 462.5 c 128,-1,143
 344 483 344 483 359 493 c 128,-1,144
 374 503 374 503 385 503 c 0,145,146
 387 503 387 503 385 502 c 0,147,148
 347 483 347 483 347 445 c 0,149,150
 347 406 347 406 368 350.5 c 128,-1,151
 389 295 389 295 395 260.5 c 128,-1,152
 401 226 401 226 401 171 c 128,-1,153
 401 116 401 116 378.5 73 c 128,-1,154
 356 30 356 30 317 12 c 1,155,-1
 425 12 l 1,156,-1
 374 -23 l 1,39,40
38 266 m 1,157,158
 12 254 12 254 12 237 c 128,-1,159
 12 220 12 220 23 206 c 1,160,-1
 21 205 l 1,161,162
 7 205 7 205 3 222 c 0,163,164
 1 229 1 229 1 237 c 0,165,166
 0.972973 237.757 0.972973 237.757 0.972973 238.503 c 0,167,168
 0.972973 265.378 0.972973 265.378 36 279 c 0,169,170
 46 283 46 283 58 283 c 0,171,172
 70 282 70 282 80 277 c 0,173,174
 110 262 110 262 110 232 c 0,175,176
 110 200 110 200 87 169 c 0,177,178
 84 165 84 165 61 145 c 1,179,-1
 50 129 l 1,180,181
 60 142 60 142 79 150 c 128,-1,182
 98 158 98 158 105 158 c 128,-1,183
 112 158 112 158 114 154 c 128,-1,184
 116 150 116 150 113 148.5 c 128,-1,185
 110 147 110 147 92 142.5 c 128,-1,186
 74 138 74 138 59 123 c 1,187,-1
 47 99 l 1,188,189
 26 108 26 108 26 126 c 128,-1,190
 26 144 26 144 38 166.5 c 128,-1,191
 50 189 50 189 50 200 c 128,-1,192
 50 211 50 211 44 219 c 1,193,194
 45 219 45 219 46 219 c 128,-1,195
 47.1111 219.148 47.1111 219.148 48.1948 219.148 c 0,196,197
 61.7407 219.148 61.7407 219.148 71 196 c 1,198,-1
 74 173 l 1,199,200
 88 187 88 187 91 199 c 128,-1,201
 94 211 94 211 96 222.5 c 128,-1,202
 98 234 98 234 92 244 c 1,203,204
 83 269 83 269 54 269 c 1,205,-1
 38 266 l 1,157,158
399 411 m 0,206,207
 399 408 399 408 396 405 c 0,208,209
 394 403 394 403 390 405 c 128,-1,210
 386 407 386 407 386 410 c 128,-1,211
 386 413 386 413 388 416 c 1,212,213
 399 420 399 420 399 411 c 0,206,207
415 378 m 0,214,215
 415 375 415 375 412 372 c 128,-1,216
 409 369 409 369 404.5 372.5 c 128,-1,217
 400 376 400 376 404 383 c 1,218,219
 415 387 415 387 415 378 c 0,214,215
399 391 m 0,220,221
 399 388 399 388 396 385 c 0,222,223
 394 383 394 383 390 385 c 128,-1,224
 386 387 386 387 386 390 c 128,-1,225
 386 393 386 393 388 396 c 1,226,227
 399 400 399 400 399 391 c 0,220,221
486 284 m 1,228,229
 512 296 512 296 512 313 c 128,-1,230
 512 330 512 330 501 344 c 1,231,-1
 503 345 l 1,232,233
 517 345 517 345 521 328 c 0,234,235
 523 321 523 321 523 313 c 0,236,237
 523.027 312.243 523.027 312.243 523.027 311.497 c 0,238,239
 523.027 284.622 523.027 284.622 488 271 c 0,240,241
 478 267 478 267 466 267 c 0,242,243
 454 268 454 268 444 273 c 0,244,245
 414 288 414 288 414 318 c 0,246,247
 414 350 414 350 437 381 c 0,248,249
 440 385 440 385 463 405 c 1,250,-1
 474 421 l 1,251,252
 464 408 464 408 445 400 c 128,-1,253
 426 392 426 392 417 392 c 0,254,255
 409 392 409 392 409 398 c 0,256,257
 409 402 409 402 429.5 407 c 128,-1,258
 450 412 450 412 465 427 c 1,259,-1
 477 451 l 1,260,261
 498 442 498 442 498 424 c 128,-1,262
 498 406 498 406 486 383.5 c 128,-1,263
 474 361 474 361 474 350 c 128,-1,264
 474 339 474 339 480 331 c 1,265,266
 479 331 479 331 478 331 c 128,-1,267
 476.889 330.852 476.889 330.852 475.805 330.852 c 0,268,269
 462.259 330.852 462.259 330.852 453 354 c 1,270,-1
 450 377 l 1,271,272
 436 363 436 363 433 351 c 128,-1,273
 430 339 430 339 428 327.5 c 128,-1,274
 426 316 426 316 432 306 c 1,275,276
 441 281 441 281 470 281 c 1,277,-1
 486 284 l 1,228,229
EndSplineSet
Substitution2: "'ss01' Style Set Simple Forms-1" uni0472.simple
Colour: ff00
EndChar

StartChar: uni0405
Encoding: 1029 1029 13
Width: 480
Flags: W
HStem: -91 19<17.7197 38> -7 12<264.46 318.683> 48.5 8.5<279.585 309.18> 57 27<98.9702 149.461> 121 10<250.001 260.999> 133 11<243.012 253.987 264.155 284.031> 146 11<248.013 258.988> 162 12<238.722 291.773> 191 26<231.218 252.978> 256 21.5<206.737 330.368> 322 26<269.022 290.782> 365 12<230.227 283.278> 382 11<263.012 273.987> 396 10<241.188 256.68 268.053 278.952> 408 10<261.001 271.999> 427 12<342 368 444 470> 482 8.5<212.78 242.672> 529 21<207.684 316.825>
VStem: -6 14<-59.0471 -11.8639> 36 42.5<-71.7806 -42.041> 75 63<326.395 478.406> 193 12<339.326 379.269> 198.5 6.5<451.095 472.481> 219 12<181.125 194> 227 8<420.998 445.902> 243 11<133.011 143.999 148.583 154.034> 250 11<121.011 130.999 432.509 476.226> 261 11<62.9336 106.696 408.001 417.989> 263 11<382.001 392.989 398.966 403.934> 287 8<93.0977 118.737> 291 12<345 357.875> 317 12<159.516 199.675> 317 6.5<66.5186 87.9047> 368 76<439 499.893> 396 69<60.728 204.744>
DStem2: 36 -3 40 -21 0.20601 0.97855<-16.5703 19.1503>
AnchorPoint: "Yerok" 405 565 basechar 0
AnchorPoint: "Diacritic" 259 575 basechar 0
LayerCount: 3
Fore
SplineSet
261 413 m 0xc8f1f211
 261 416 263 418 266 418 c 0
 269 418 272 416 272 413 c 0
 272 410 269 408 266 408 c 0
 263 408 261 410 261 413 c 0xc8f1f211
268 402 m 0xc8f3f209
 268 405 271 406 274 406 c 0xc8f3f209
 277 406 279 404 279 401 c 0xc8f5f209
 279 398 277 395 274 395 c 0
 271 395 268 399 268 402 c 0xc8f3f209
263 388 m 0
 263 391 265 393 268 393 c 0
 271 393 274 391 274 388 c 0
 274 385 271 382 268 382 c 0xc8f9f209
 265 382 263 385 263 388 c 0
200 324 m 1
 198 327 192 347 192 356 c 0
 192 363 194 369 196 377 c 0
 203 402 226 411 227 434 c 1
 227 446 l 1
 227 446 234 446 235 430 c 0
 236 420 233 415 233 415 c 1
 233 415 253 433 253 456 c 0
 253 471 242 482 227 482 c 0
 218 482 211 479 207 470 c 0
 200 456 210 450 205 451 c 0
 200 452 198 457 198 462 c 0
 198 478 209 491 226 491 c 0
 247 491 261 476 261 455 c 0
 261 419 218 396 217 395 c 2xc8f3f2a3
 217 395 238 401 251 401 c 0
 256 401 260 400 260 397 c 0
 260 390 241 399 221 386 c 0
 209 379 205 370 205 360 c 0
 205 357 206 355 206 352 c 1
 217 367 237 377 256 377 c 0
 279 376 303 366 303 342 c 0
 303 329 293 322 281 322 c 0
 275 322 269 325 269 333 c 0
 269 345 274 348 280 348 c 0
 286 348 291 345 291 345 c 1xc8f5f2a3
 291 359 274 365 257 365 c 0
 223 365 202 338 200 324 c 1
261 126 m 0
 261 123 259 121 256 121 c 0
 253 121 250 123 250 126 c 0
 250 129 253 131 256 131 c 0
 259 131 261 129 261 126 c 0
254 138 m 0xcaf1f241
 254 135 251 133 248 133 c 0xccf1f241
 245 133 243 135 243 138 c 0xcaf1f241
 243 141 245 144 248 144 c 0xccf1f241
 251 144 254 141 254 138 c 0xcaf1f241
259 151 m 0
 259 148 257 146 254 146 c 0
 251 146 248 148 248 151 c 0
 248 154 251 157 254 157 c 0xc9f1f241
 257 157 259 154 259 151 c 0
322 215 m 1
 324 212 330 192 330 183 c 0
 330 176 328 170 326 162 c 0
 319 137 296 128 295 105 c 1
 295 93 l 1
 295 93 288 93 287 109 c 0
 286 119 289 124 289 124 c 1
 289 124 269 106 269 83 c 0
 269 68 280 57 295 57 c 0
 304 57 311 60 315 69 c 0
 322 83 312 89 317 88 c 0
 322 87 324 82 324 77 c 0
 324 61 313 48 296 48 c 0xeaf1f315
 275 48 261 63 261 84 c 0
 261 120 304 143 305 144 c 2xdcf1f315
 305 144 284 138 271 138 c 0
 266 138 262 139 262 142 c 0
 262 149 281 140 301 153 c 0
 313 160 317 169 317 179 c 0
 317 182 316 184 316 187 c 1
 305 172 285 162 266 162 c 0
 243 163 219 173 219 197 c 0
 219 210 229 217 241 217 c 0
 247 217 253 214 253 206 c 0
 253 194 248 191 242 191 c 0
 236 191 231 194 231 194 c 1xcaf1f315
 231 180 248 174 265 174 c 0
 299 174 320 201 322 215 c 1
288 6 m 0
 359 6 394 70 394 131 c 0xd8f5fa0140
 394 188 365 244 308 252 c 0
 244 261 233 250 164 277 c 0
 111 298 75 329 75 404 c 0
 75 411 75 419 76 427 c 0
 84 519 177 550 257 550 c 0
 423 550 444 481 444 439 c 1
 470 439 l 1
 470 427 l 1
 342 427 l 1
 342 439 l 1
 368 439 l 1
 368 499 329 529 257 529 c 0
 177 529 138 464 138 401 c 0xd8f5f60180
 138 372 146 343 163 322 c 0
 207 266 268 287 340 270 c 0
 403 255 465 218 465 141 c 0
 465 24 365 -8 288 -8 c 0
 245 -8 208 1 194 9 c 0
 153 32 147 57 124 57 c 0
 113 57 99 52 76 39 c 0
 50 25 40 -21 40 -21 c 1
 40 -21 36 -13 36 -3 c 0
 36 4 40 16 40 16 c 1
 40 16 23 2 14 -14 c 0
 10 -20 8 -28 8 -36 c 0
 8 -54 18 -72 38 -72 c 1
 38 -72 36 -67 36 -61 c 0
 36 -52 40 -42 58 -42 c 0
 71 -42 79 -48 79 -61 c 0
 79 -74 66 -90 43 -90 c 0
 17 -90 -6 -69 -6 -40 c 0
 -6 9 38 40 70 57 c 0
 100 73 128 84 155 84 c 0xd8f5fa0140
 188 84 220 67 256 19 c 0
 264 9 275 6 288 6 c 0
EndSplineSet
Validated: 1
Layer: 2
SplineSet
261 413 m 128,-1,1
 261 418 261 418 266 418 c 0,2,3
 272 418 272 418 272 413 c 128,-1,4
 272 408 272 408 266.5 408 c 128,-1,0
 261 408 261 408 261 413 c 128,-1,1
268 402 m 0,5,6
 268 406 268 406 274 406 c 0,7,8
 279 406 279 406 279 402 c 0,9,10
 279 396 279 396 273.5 396 c 128,-1,11
 268 396 268 396 268 402 c 0,5,6
263 388 m 0,12,13
 263 393 263 393 268 393 c 0,14,15
 274 393 274 393 274 388 c 0,16,17
 274 382 274 382 268.5 382 c 128,-1,18
 263 382 263 382 263 388 c 0,12,13
291 345 m 1,19,20
 291 365 291 365 255 365 c 0,21,22
 245 365 245 365 237 362 c 0,23,24
 204 349 204 349 200 324 c 1,25,26
 193 340 193 340 193 360.5 c 128,-1,27
 193 381 193 381 210 402 c 128,-1,28
 227 423 227 423 227 434 c 1,29,-1
 227 446 l 1,30,31
 235 446 235 446 235 430 c 1,32,-1
 233 415 l 1,33,34
 253 435 253 435 253 452 c 0,35,36
 253 482 253 482 227 482 c 0,37,38
 212 482 212 482 207 470 c 1,39,40
 202 462 202 462 205 451 c 1,41,42
 198.5 454 198.5 454 198.5 463.5 c 0,43,44
 198 474 198 474 205 482 c 0,45,46
 212 490.5 212 490.5 228 490.5 c 128,-1,47
 244 490.5 244 490.5 254 479.75 c 128,-1,48
 264 469 264 469 261.5 451.5 c 128,-1,49
 259 434 259 434 248 421 c 128,-1,50
 237 408 237 408 227 402 c 2,51,-1
 217 395 l 1,52,53
 240 402 240 402 249 402 c 0,54,55
 259 402 259 402 260 398 c 128,-1,56
 261 394 261 394 254 394 c 0,57,58
 205 394 205 394 205 360 c 0,59,60
 205 356 205 356 206 352 c 1,61,62
 225 377 225 377 249 377 c 0,63,64
 303 377 303 377 303 343 c 0,65,66
 303 325 303 325 286 322 c 128,-1,67
 269 319 269 319 269 334 c 0,68,69
 269 348 269 348 279 348 c 0,70,71
 284 348 284 348 291 345 c 1,19,20
261 126 m 128,-1,73
 261 121 261 121 256 121 c 0,74,75
 250 121 250 121 250 126 c 128,-1,76
 250 131 250 131 255.5 131 c 128,-1,72
 261 131 261 131 261 126 c 128,-1,73
254 138 m 0,77,78
 254 133 254 133 248 133 c 0,79,80
 243 133 243 133 243 138 c 0,81,82
 243 144 243 144 248.5 144 c 128,-1,83
 254 144 254 144 254 138 c 0,77,78
259 151 m 0,84,85
 259 146 259 146 254 146 c 0,86,87
 248 146 248 146 248 151 c 0,88,89
 248 157 248 157 253.5 157 c 128,-1,90
 259 157 259 157 259 151 c 0,84,85
231 194 m 1,91,92
 231 174 231 174 267 174 c 0,93,94
 277 174 277 174 285 177 c 0,95,96
 318 190 318 190 322 215 c 1,97,98
 329 199 329 199 329 179 c 128,-1,99
 329 159 329 159 312 138 c 128,-1,100
 295 117 295 117 295 105 c 1,101,-1
 295 93 l 1,102,103
 287 93 287 93 287 109 c 1,104,-1
 289 124 l 1,105,106
 269 104 269 104 269 88 c 0,107,108
 269 57 269 57 295 57 c 0,109,110
 310 57 310 57 315 69 c 1,111,112
 320 77 320 77 317 88 c 1,113,114
 323.5 85 323.5 85 323.5 75.5 c 128,-1,115
 323.5 66 323.5 66 316.75 57.25 c 128,-1,116
 310 48.5 310 48.5 294 48.5 c 128,-1,117
 278 48.5 278 48.5 268 59.25 c 128,-1,118
 258 70 258 70 260.5 87.5 c 128,-1,119
 263 105 263 105 274 118.5 c 128,-1,120
 285 132 285 132 295 138 c 2,121,-1
 305 144 l 1,122,123
 282 137 282 137 273 137 c 0,124,125
 263 137 263 137 262 141 c 128,-1,126
 261 145 261 145 268 145 c 0,127,128
 317 145 317 145 317 179 c 0,129,130
 317 183 317 183 316 187 c 1,131,132
 297 162 297 162 273 162 c 0,133,134
 219 162 219 162 219 196 c 0,135,136
 219 214 219 214 236 217 c 128,-1,137
 253 220 253 220 253 205 c 0,138,139
 253 191 253 191 243 191 c 0,140,141
 238 191 238 191 231 194 c 1,91,92
40 16 m 1,142,143
 8 -10 8 -10 8 -33 c 0,144,145
 8 -41 8 -41 11 -50 c 0,146,147
 18 -72 18 -72 38 -72 c 1,148,-1
 36 -60 l 1,149,150
 36 -42 36 -42 55 -42 c 0,151,152
 75 -42 75 -42 78.5 -52.5 c 0,153,154
 82 -64 82 -64 74 -77 c 0,155,156
 65 -91 65 -91 46 -91 c 0,157,158
 26 -91 26 -91 10 -77.5 c 128,-1,159
 -6 -64 -6 -64 -6 -40 c 0,160,161
 -6 18 -6 18 70 57 c 0,162,163
 123 84 123 84 147 84 c 0,164,165
 170 84 170 84 197.5 72 c 0,166,167
 227 59 227 59 256 19 c 0,168,169
 266 5 266 5 285 5 c 0,170,171
 302 5 302 5 325 13 c 0,172,173
 372 30 372 30 389 86 c 0,174,175
 396 109 396 109 396 136 c 0,176,177
 396 164 396 164 382 194 c 0,178,179
 359 243 359 243 308 252 c 0,180,181
 286 256 286 256 250 256 c 128,-1,182
 214 256 214 256 165 277 c 0,183,184
 113 299 113 299 95 326 c 0,185,186
 75 355 75 355 75 402 c 0,187,188
 75 486 75 486 131 518 c 128,-1,189
 187 550 187 550 257 550 c 0,190,191
 444 550 444 550 444 439 c 1,192,-1
 470 439 l 1,193,-1
 470 427 l 1,194,-1
 342 427 l 1,195,-1
 342 439 l 1,196,-1
 368 439 l 1,197,198
 368 529 368 529 257 529 c 0,199,200
 216 529 216 529 186 506 c 0,201,202
 138 469 138 469 138 402 c 0,203,204
 138 353 138 353 160.5 325 c 128,-1,205
 183 297 183 297 209 287.25 c 128,-1,206
 235 277.5 235 277.5 276 277.5 c 0,207,208
 305.781 277.5 305.781 277.5 340 270 c 0,209,210
 413 254 413 254 432 223 c 0,211,212
 465 173.734 465 173.734 465 145 c 0,213,214
 465 74 465 74 424 38 c 0,215,216
 382 1 382 1 336 -4 c 0,217,218
 310 -7 310 -7 289 -7 c 128,-1,219
 268 -7 268 -7 239.5 -4 c 128,-1,220
 211 -1 211 -1 194 9 c 128,-1,221
 177 19 177 19 161.5 33 c 128,-1,222
 146 47 146 47 140 52 c 128,-1,223
 134 57 134 57 121 57 c 0,224,225
 107 57 107 57 86 45 c 0,226,227
 52 26 52 26 43 -9 c 2,228,-1
 40 -21 l 1,229,230
 36 -13 36 -13 36 -3 c 1,231,-1
 40 16 l 1,142,143
EndSplineSet
Substitution2: "'ss01' Style Set Simple Forms-1" uni0405.simple
Colour: ff00
EndChar

StartChar: uni0410
Encoding: 1040 1040 14
Width: 430
Flags: W
HStem: -128 10<34.1125 81.793> -91 35<23 42.8506> 0 12<283 309 385 411> 407 32<174.188 201.996> 422 7<238.148 266.281> 443 11<240.057 286.609> 470 12<200.987 279.032> 488 10<213.001 223.999> 503 10<204.001 214.999> 517 10<212.001 222.999> 538 12<283 309 385 411> 644 10<200.86 235.277>
VStem: 0 23<-112.832 -91> 121 24<-76.6914 2.9834 18 49.5381> 160 14<436 452.375> 177 9<594.75 628.733> 204 11<503.001 512.999> 213 11<488.001 497.999 517.06 526.94> 226 11<557.909 584.344> 247 7<609.265 627.901> 309 76<12 143 154.258 418 437 462.029 465 490.887 495 538>
DStem2: 234 512 233 503 0.982872 -0.184289<-9.48036 32.277>
AnchorPoint: "Yerok" 351 585.8 basechar 0
AnchorPoint: "Diacritic" 347 585 basechar 0
LayerCount: 3
Fore
SplineSet
223 522 m 0xe63f38
 223 519 221 517 218 517 c 0
 215 517 212 519 212 522 c 0
 212 525 215 527 218 527 c 0
 221 527 223 525 223 522 c 0xe63f38
215 508 m 0xe67fb8
 215 505 213 503 210 503 c 0
 207 503 204 505 204 508 c 0
 204 511 207 513 210 513 c 0
 213 513 215 511 215 508 c 0xe67fb8
224 493 m 0xe6bf78
 224 490 221 488 218 488 c 0xe73f78
 215 488 213 490 213 493 c 0xe6bf78
 213 496 215 498 218 498 c 0xe73f78
 221 498 224 496 224 493 c 0xe6bf78
309 162 m 1
 309 418 l 1
 288 390 232 349 195 281 c 0
 151 199 146 60 146 18 c 1
 154 22 172 26 181 31 c 0
 201 43 214 70 219 83 c 0
 234 120 267 150 309 162 c 1
220 654 m 0
 241 654 254 640 254 620 c 0
 254 613 252 608 246 605 c 0
 240 603 252 611 243 629 c 0
 238 639 230 644 218 644 c 0
 201 644 186 631 186 612 c 0
 186 582 230 548 230 548 c 2
 230 548 226 554 226 566 c 0
 226 585 238 587 238 587 c 1
 238 587 237 581 238 572 c 0
 242 543 284 503 309 495 c 1
 309 538 l 1
 283 538 l 1
 283 550 l 1
 411 550 l 1
 411 538 l 1
 385 538 l 1
 385 12 l 1
 411 12 l 1
 411 0 l 1
 283 0 l 1
 283 12 l 1
 309 12 l 1
 309 143 l 1
 300 140 292 136 283 131 c 0
 263 119 246 93 237 72 c 0
 219 31 197 12 145 0 c 1
 145 -102 99 -128 69 -128 c 0
 26 -128 0 -115 0 -85 c 0
 0 -67 10 -56 23 -56 c 0
 33 -56 43 -63 43 -70 c 0
 43 -89 30 -91 26 -91 c 0
 23 -91 l 1
 23 -116 43 -118 55 -118 c 0
 56 -118 58 -118 59 -118 c 0
 133 -118 118 4 123 51 c 1
 123 51 118 34 96 17 c 0
 79 4 65 0 65 0 c 1
 65 0 82 8 87 38 c 0
 91 64 96 174 126 242 c 0
 169 338 233 363 283 409 c 1
 282 411 268 418 267 418 c 0
 261 421 255 422 251 422 c 0
 246 422 243 420 240 420 c 0
 239 420 238 421 238 424 c 0
 238 427 244 429 252 429 c 0xeebf38
 257 429 263 428 269 427 c 0
 278 425 292 417 292 417 c 1
 298 423 300 424 304 428 c 1
 299 432 290 438 278 441 c 0
 262 446 240 442 240 448 c 0
 240 451 249 454 261 454 c 0
 279 454 302 444 309 437 c 1
 309 453 l 1
 295 463 252 470 236 470 c 0
 210 470 174 460 174 436 c 1
 174 436 180 439 187 439 c 0
 194 439 202 436 202 421 c 0
 202 411 195 407 187 407 c 0
 172 407 160 416 160 432 c 0
 160 465 197 482 232 482 c 0
 257 482 293 476 309 465 c 1
 309 479 l 1
 298 485 287 491 284 493 c 0
 261 505 223 500 223 507 c 0
 223 510 229 512 234 512 c 0xf6bf38
 247 512 266 506 266 506 c 1
 266 506 177 560 177 600 c 0
 177 604 176 608 176 611 c 0
 176 622 179 633 186 641 c 0
 195 650 208 654 220 654 c 0
EndSplineSet
Validated: 1
Layer: 2
SplineSet
223 522 m 128,-1,1
 223 517 223 517 217.5 517 c 128,-1,2
 212 517 212 517 212 522 c 128,-1,3
 212 527 212 527 217.5 527 c 128,-1,0
 223 527 223 527 223 522 c 128,-1,1
215 508 m 128,-1,5
 215 503 215 503 209.5 503 c 128,-1,6
 204 503 204 503 204 508 c 128,-1,7
 204 513 204 513 209.5 513 c 128,-1,4
 215 513 215 513 215 508 c 128,-1,5
224 493 m 128,-1,9
 224 488 224 488 218.5 488 c 128,-1,10
 213 488 213 488 213 493 c 128,-1,11
 213 498 213 498 218.5 498 c 128,-1,8
 224 498 224 498 224 493 c 128,-1,9
309 162 m 1,12,-1
 309 418 l 1,13,-1
 263 370 l 2,14,15
 217 322 217 322 195 281 c 0,16,17
 146 190 146 190 146 18 c 1,18,19
 150 20 150 20 163 24 c 128,-1,20
 176 28 176 28 181 31 c 0,21,22
 204 45 204 45 219 83 c 0,23,24
 243 143 243 143 309 162 c 1,12,-1
177 600 m 1,25,-1
 176 611 l 1,26,27
 176 630 176 630 187.5 642 c 128,-1,28
 199 654 199 654 217.5 654 c 128,-1,29
 236 654 236 654 245 644.5 c 128,-1,30
 254 635 254 635 254 622 c 0,31,32
 254 610 254 610 246 605 c 0,33,34
 243 603 243 603 245 608 c 0,35,36
 248 613 248 613 247 616 c 128,-1,37
 246 619 246 619 245.5 622.5 c 128,-1,38
 245 626 245 626 243 629 c 0,39,40
 236 644 236 644 220.5 644 c 128,-1,41
 205 644 205 644 195.5 635 c 128,-1,42
 186 626 186 626 186 612.5 c 128,-1,43
 186 599 186 599 197 583 c 128,-1,44
 208 567 208 567 219 558 c 2,45,-1
 230 548 l 1,46,47
 226 554 226 554 226 568.5 c 128,-1,48
 226 583 226 583 238 587 c 1,49,50
 237 582 237 582 237 579 c 0,51,52
 239 553 239 553 263 528 c 0,53,54
 289 501 289 501 309 495 c 1,55,-1
 309 538 l 1,56,-1
 283 538 l 1,57,-1
 283 550 l 1,58,-1
 411 550 l 1,59,-1
 411 538 l 1,60,-1
 385 538 l 1,61,-1
 385 12 l 1,62,-1
 411 12 l 1,63,-1
 411 0 l 1,64,-1
 283 0 l 1,65,-1
 283 12 l 1,66,-1
 309 12 l 1,67,-1
 309 143 l 1,68,69
 298 139 298 139 276.5 126.5 c 128,-1,70
 255 114 255 114 239 77.5 c 128,-1,71
 223 41 223 41 203 25 c 128,-1,72
 183 9 183 9 145 0 c 1,73,74
 145 -68 145 -68 121.5 -98 c 128,-1,75
 98 -128 98 -128 69 -128 c 0,76,77
 0 -128 0 -128 0 -85 c 0,78,79
 0 -56 0 -56 23 -56 c 0,80,81
 31 -56 31 -56 37 -60.5 c 128,-1,82
 43 -65 43 -65 43 -70 c 0,83,84
 43 -91 43 -91 26 -91 c 2,85,-1
 23 -91 l 1,86,87
 23 -118 23 -118 55 -118 c 2,88,-1
 59 -118 l 2,89,90
 100 -118 100 -118 112 -71 c 0,91,92
 119 -43 119 -43 121 1 c 0,93,94
 123 47 123 47 123 51 c 1,95,96
 113 18 113 18 65 0 c 1,97,98
 82 8 82 8 87 38 c 0,99,100
 88 42 88 42 90.5 70.5 c 0,101,102
 94 110 94 110 96 125 c 0,103,104
 113 253 113 253 170 314 c 0,105,106
 197 343 197 343 234 370 c 0,107,108
 270 398 270 398 283 409 c 1,109,110
 282 410 282 410 271.5 416 c 128,-1,111
 261 422 261 422 251 422 c 1,112,-1
 240 420 l 2,113,114
 238 420 238 420 238 424.5 c 128,-1,115
 238 429 238 429 247.5 429 c 128,-1,116
 257 429 257 429 269 427 c 1,117,-1
 292 417 l 1,118,119
 295 420 295 420 298.5 423 c 128,-1,120
 302 426 302 426 304 428 c 1,121,122
 285 442 285 442 262 443 c 0,123,124
 240 445 240 445 240 448 c 0,125,126
 240 454 240 454 266 454 c 128,-1,127
 292 454 292 454 309 437 c 1,128,-1
 309 453 l 1,129,130
 299 460 299 460 274.5 465 c 128,-1,131
 250 470 250 470 231.5 470 c 128,-1,132
 213 470 213 470 193.5 461 c 128,-1,133
 174 452 174 452 174 436 c 1,134,135
 180 439 180 439 187 439 c 0,136,137
 202 439 202 439 202 423 c 128,-1,138
 202 407 202 407 187 407 c 0,139,140
 160 407 160 407 160 431 c 128,-1,141
 160 455 160 455 181.5 468.5 c 128,-1,142
 203 482 203 482 243.5 482 c 128,-1,143
 284 482 284 482 309 465 c 1,144,-1
 309 479 l 1,145,146
 287 491 287 491 280.5 494.5 c 128,-1,147
 274 498 274 498 258.5 500 c 128,-1,148
 243 502 243 502 233 503 c 128,-1,149
 223 504 223 504 223 507 c 0,150,151
 223 512 223 512 234 512 c 1,152,-1
 266 506 l 1,153,154
 231 527 231 527 204 554.5 c 128,-1,155
 177 582 177 582 177 600 c 1,25,-1
EndSplineSet
Substitution2: "'salt' Stylistic Alternatives for Cyrillic-1" uni0410.alt
Substitution2: "'ss01' Style Set Simple Forms-1" uni0410.simple
Colour: ff00
EndChar

StartChar: uni0411
Encoding: 1041 1041 15
Width: 525
Flags: W
HStem: -9 9<201.465 281.188> 72 56<77.437 125.172> 132 13<125.014 137.985> 152 13<125.014 137.985> 166 13<109.014 121.985> 269 14<38 78.5889> 282 14<319.411 360> 411 13<276.015 288.986> 418 9.5<300.064 320.245> 431 13<276.015 288.986> 455 11<291.545 335.435> 533 17<270 344.124 370 404.35>
VStem: 0 12<216.223 251.643> 55 21.5<35.0781 79.8398> 96 14<197.299 250.073> 109 13<166.002 178.987> 125 13<132.002 144.987 152.002 164.987> 131 80<318.1 530.246> 168 39<80.1484 135.885> 215 36<46.9857 135.832> 276 13<411.015 423.998 431.015 443.998> 288 13<317.972 363.936 398.381 407.746> 356 36<436.866 472> 397 81<51.0643 210.191> 422 25<445.527 514.532>
AnchorPoint: "Yerok" 445.5 575 basechar 0
AnchorPoint: "Diacritic" 304 575 basechar 0
LayerCount: 3
Fore
SplineSet
289 438 m 0xfffc18
 289 434 286 431 283 431 c 0
 279 431 276 434 276 438 c 0
 276 441 279 444 283 444 c 0
 286 444 289 441 289 438 c 0xfffc18
289 418 m 0
 289 414 286 411 283 411 c 0
 279 411 276 414 276 418 c 0
 276 421 279 424 283 424 c 0
 286 424 289 421 289 418 c 0
305 404 m 0
 305 400 302 397 299 397 c 0
 295 397 292 400 292 404 c 0
 292 407 295 410 299 410 c 0xfffc12
 302 410 305 407 305 404 c 0
125 139 m 0xfffc90
 125 142 128 145 132 145 c 0
 135 145 138 142 138 139 c 0
 138 135 135 132 132 132 c 0
 128 132 125 135 125 139 c 0xfffc90
125 159 m 0
 125 162 128 165 132 165 c 0
 135 165 138 162 138 159 c 0
 138 155 135 152 132 152 c 0
 128 152 125 155 125 159 c 0
109 173 m 0xfffd10
 109 176 112 179 116 179 c 0
 119 179 122 176 122 173 c 0
 122 169 119 166 116 166 c 0
 112 166 109 169 109 173 c 0xfffd10
56 282 m 0
 87 282 110 258 110 231 c 0
 110 204 102 189 87 169 c 0
 80 160 68 151 61 145 c 0
 53 137 50 129 50 129 c 1
 50 129 61 143 78 150 c 0
 91 155 99 157 105 157 c 0
 111 157 115 155 115 151 c 0
 115 143 84 147 59 123 c 0
 53 117 47 99 47 99 c 1
 46 100 27 109 27 129 c 0
 27 160 50 175 50 200 c 0
 50 212 44 219 44 219 c 1
 44 219 44 219 45 219 c 0
 49 219 62 218 71 196 c 0
 76 183 74 173 74 173 c 1
 74 173 96 196 96 224 c 0xfffe10
 96 251 77 269 54 269 c 0
 30 269 13 253 13 231 c 0
 13 213 23 207 23 205 c 0
 23 205 22 205 21 205 c 0
 7 205 1 221 1 236 c 0
 1 266 27 282 56 282 c 0
315 467 m 0
 333 467 352 479 352 501 c 0
 352 515 345 527 333 533 c 1
 333 533 290 533 270 533 c 1
 270 533 290 526 302 513 c 0
 315 499 315 489 305 489 c 0
 299 489 296 499 277 515 c 0
 268 523 250 529 231 533 c 1
 224 501 211 431 211 382 c 0xfffc55
 211 369 211 357 212 345 c 1
 229 319 275 259 347 253 c 0
 426 246 478 227 478 118 c 0
 478 21 404 9 360 1 c 1
 321 -7 282 -10 246 -10 c 0
 191 -10 144 -4 116 0 c 0
 76 6 55 31 55 79 c 0
 55 109 76 128 99 128 c 0
 119 128 133 114 133 98 c 0
 133 82 117 72 103 72 c 0
 89 72 77 80 77 80 c 1
 77 80 76 76 76 71 c 0
 76 57 80 31 106 20 c 0
 118 15 130 12 143 12 c 0
 162 12 182 19 198 35 c 0
 211 48 215 67 215 86 c 0
 215 112 207 136 207 136 c 1
 207 136 206 108 188 80 c 0
 177 62 154 47 139 47 c 0
 137 47 l 0
 137 48 167 57 167 124 c 0xfffc3240
 167 141 165 163 160 189 c 0
 143 274 131 300 131 382 c 0
 131 431 141 501 147 533 c 1
 130 550 l 1
 512 550 l 1
 442 515 l 1
 442 515 446 502 446 486 c 0
 446 458 425 423 411 423 c 0
 408 423 406 425 406 427 c 0
 406 433 422 445 422 471 c 0
 422 496 412 533 384 533 c 2
 370 533 l 1
 384 524 392 503 392 481 c 0
 392 433 347 392 347 356 c 0
 347 344 353 337 353 337 c 1
 353 337 353 337 352 337 c 0xfffc5320
 348 337 335 338 326 360 c 0
 321 373 323 383 323 383 c 1
 323 383 302 367 302 341 c 0
 302 314 321 296 344 296 c 0
 368 296 385 312 385 334 c 0
 385 352 375 358 375 360 c 0
 375 360 376 360 377 360 c 0
 391 360 397 344 397 329 c 0
 397 299 371 283 342 283 c 0
 311 283 288 307 288 334 c 0xfffc1480
 288 361 298 374 310 387 c 0
 318 395 313 396 344 419 c 0
 364 434 364 447 364 447 c 1
 364 447 353 433 336 426 c 0
 323 421 315 419 309 419 c 0
 303 419 299 421 299 424 c 0xfffc12
 299 433 351 428 356 464 c 0
 356 467 357 469 357 472 c 1
 354 466 331 455 310 455 c 0
 291 455 264 470 264 479 c 0
 264 482 266 484 269 484 c 0
 276 484 289 467 315 467 c 0
216 307 m 1
 225 241 244 192 250 125 c 0
 250 119 251 114 251 108 c 0
 251 60 230 39 205 18 c 0
 199 13 193 9 187 6 c 1
 205 5 222 1 242 1 c 0
 270 1 305 8 360 38 c 0
 385 51 396 89 396 128 c 0xfffc1040
 396 179 377 231 343 233 c 0
 282 238 239 278 216 307 c 1
EndSplineSet
Validated: 1
Layer: 2
SplineSet
289 438 m 0,0,1
 289 431 289 431 283 431 c 0,2,3
 276 431 276 431 276 437 c 0,4,5
 276 444 276 444 282.5 444 c 128,-1,6
 289 444 289 444 289 438 c 0,0,1
289 418 m 0,7,8
 289 411 289 411 283 411 c 0,9,10
 276 411 276 411 276 417 c 0,11,12
 276 424 276 424 282.5 424 c 128,-1,13
 289 424 289 424 289 418 c 0,7,8
305 402 m 128,-1,15
 305 396 305 396 299 397 c 0,16,17
 292 398 292 398 292 402 c 0,18,19
 292 409 292 409 298.5 408.5 c 128,-1,14
 305 408 305 408 305 402 c 128,-1,15
125 139 m 0,20,21
 125 145 125 145 131 145 c 0,22,23
 138 145 138 145 138 139 c 0,24,25
 138 132 138 132 131.5 132 c 128,-1,26
 125 132 125 132 125 139 c 0,20,21
125 159 m 0,27,28
 125 165 125 165 131 165 c 0,29,30
 138 165 138 165 138 159 c 0,31,32
 138 152 138 152 131.5 152 c 128,-1,33
 125 152 125 152 125 159 c 0,27,28
109 173 m 0,34,35
 109 179 109 179 115 179 c 0,36,37
 122 179 122 179 122 173 c 0,38,39
 122 166 122 166 115.5 166 c 128,-1,40
 109 166 109 166 109 173 c 0,34,35
38 266 m 1,41,42
 12 254 12 254 12 237 c 128,-1,43
 12 220 12 220 23 206 c 1,44,-1
 21 205 l 1,45,46
 10 205 10 205 3 222 c 0,47,48
 0 229 0 229 0 237 c 0,49,50
 -1 265 -1 265 36 279 c 0,51,52
 47 283 47 283 58 283 c 0,53,54
 70 282 70 282 80 277 c 0,55,56
 110 262 110 262 110 232 c 0,57,58
 110 200 110 200 87 169 c 0,59,60
 84 165 84 165 61 145 c 1,61,-1
 50 129 l 1,62,63
 60 142 60 142 79 150 c 128,-1,64
 98 158 98 158 105 158 c 128,-1,65
 112 158 112 158 114 154 c 128,-1,66
 116 150 116 150 113 148.5 c 128,-1,67
 110 147 110 147 92 142.5 c 128,-1,68
 74 138 74 138 59 123 c 1,69,-1
 47 99 l 1,70,71
 26 108 26 108 26 126 c 128,-1,72
 26 144 26 144 38 166.5 c 128,-1,73
 50 189 50 189 50 200 c 128,-1,74
 50 211 50 211 44 219 c 1,75,76
 45 219 45 219 46 219 c 0,77,78
 61 221 61 221 71 196 c 1,79,-1
 74 173 l 1,80,81
 88 187 88 187 91 199 c 128,-1,82
 94 211 94 211 96 222.5 c 128,-1,83
 98 234 98 234 92 244 c 1,84,85
 83 269 83 269 54 269 c 1,86,-1
 38 266 l 1,41,42
370 533 m 1,87,88
 392 518 392 518 392 477 c 0,89,90
 392 466 392 466 387.5 454.5 c 0,91,92
 380 436 380 436 365 407 c 0,93,94
 346 371 346 371 346 358 c 0,95,96
 346 346 346 346 353 337 c 1,97,98
 352 337 352 337 351 337 c 0,99,100
 336 335 336 335 326 360 c 1,101,-1
 323 383 l 1,102,103
 301 361 301 361 301 346 c 128,-1,104
 301 331 301 331 306 321 c 1,105,106
 315 296 315 296 344 296 c 1,107,-1
 360 299 l 1,108,109
 386 311 386 311 386 328 c 128,-1,110
 386 345 386 345 375 359 c 1,111,-1
 377 360 l 1,112,113
 390 360 390 360 395 343 c 128,-1,114
 400 326 400 326 394 313 c 1,115,116
 388 296 388 296 362 286 c 0,117,118
 352 282 352 282 341 282 c 0,119,120
 329 282 329 282 318 288 c 0,121,122
 288 304 288 304 288 332 c 0,123,124
 288 365 288 365 310 387 c 0,125,126
 313 390 313 390 318 397 c 128,-1,127
 323 404 323 404 343 418 c 0,128,129
 362 433 362 433 364 447 c 1,130,131
 354 434 354 434 335 426 c 128,-1,132
 316 418 316 418 309 418 c 128,-1,133
 302 418 302 418 300 422 c 128,-1,134
 298 426 298 426 303 427.5 c 128,-1,135
 308 429 308 429 316 431 c 128,-1,136
 324 433 324 433 332 436 c 0,137,138
 356 445 356 445 356 464 c 0,139,140
 356 467 356 467 356 468 c 0,141,142
 357 470 357 470 357 472 c 1,143,144
 353 465 353 465 337 460 c 128,-1,145
 321 455 321 455 312 455 c 0,146,147
 275 456 275 456 265 477 c 0,148,149
 263 481 263 481 266 483 c 0,150,151
 270 486 270 486 284 476 c 128,-1,152
 298 466 298 466 314 466 c 0,153,154
 343 467 343 467 351 491 c 0,155,156
 355 504 355 504 349.5 516 c 128,-1,157
 344 528 344 528 333 533 c 1,158,-1
 270 533 l 1,159,160
 290 526 290 526 304.5 510 c 128,-1,161
 319 494 319 494 309 490 c 1,162,163
 307 490 307 490 304 489 c 128,-1,164
 301 488 301 488 294 498 c 0,165,166
 287 507 287 507 276 516.5 c 128,-1,167
 265 526 265 526 231 533 c 1,168,169
 211 444.5 211 444.5 211 402 c 128,-1,170
 211 359.5 211 359.5 212 345 c 1,171,172
 268 260 268 260 341.5 253.5 c 128,-1,173
 415 247 415 247 447 220 c 0,174,175
 478 194 478 194 478 131 c 128,-1,176
 478 68 478 68 449 36 c 0,177,178
 439 25 439 25 419 17 c 0,179,180
 353 -9 353 -9 271 -9 c 0,181,182
 190 -9 190 -9 116 0 c 1,183,184
 55 9 55 9 55 79 c 0,185,186
 55 106 55 106 71 117 c 128,-1,187
 87 128 87 128 96 128 c 128,-1,188
 105 128 105 128 111 126 c 0,189,190
 129 120 129 120 132 104 c 0,191,192
 136 89 136 89 125.5 80.5 c 128,-1,193
 115 72 115 72 103 72 c 128,-1,194
 91 72 91 72 77 80 c 1,195,196
 78 78 78 78 76.5 68 c 128,-1,197
 75 58 75 58 82.5 42.5 c 128,-1,198
 90 27 90 27 108 19 c 128,-1,199
 126 11 126 11 150 11 c 128,-1,200
 174 11 174 11 195 32 c 0,201,202
 215 52 215 52 215 91 c 0,203,204
 215 106 215 106 212 118 c 2,205,-1
 207 136 l 1,206,207
 206 108 206 108 193 87.5 c 128,-1,208
 180 67 180 67 165 57 c 128,-1,209
 150 47 150 47 139 47 c 0,210,211
 137 47 137 47 140 49 c 0,212,213
 168 66 168 66 168 121 c 0,214,215
 168 155 168 155 155 215 c 0,216,217
 145 261 145 261 136 301 c 0,218,219
 131 326 131 326 131 388 c 0,220,221
 131 448 131 448 147 533 c 1,222,-1
 130 550 l 1,223,-1
 512 550 l 1,224,-1
 442 515 l 1,225,226
 447 500 447 500 447 487 c 0,227,228
 447 475 447 475 441 459 c 128,-1,229
 435 443 435 443 425 432 c 128,-1,230
 415 421 415 421 408 424 c 1,231,232
 404 429 404 429 407.5 432 c 0,233,234
 413 436 413 436 417 447 c 0,235,236
 422 459 422 459 422 468 c 0,237,238
 422 476 422 476 421.5 486.5 c 128,-1,239
 421 497 421 497 411.5 515 c 128,-1,240
 402 533 402 533 384 533 c 2,241,-1
 370 533 l 1,87,88
187 6 m 1,242,-1
 237 0 l 1,243,244
 277 0 277 0 305 12 c 0,245,246
 342 28 342 28 360 38 c 0,247,248
 397 59 397 59 397 131 c 0,249,250
 397 161 397 161 387 189 c 0,251,252
 372 231 372 231 343 233 c 0,253,254
 270 239 270 239 216 307 c 1,255,256
 221 270 221 270 235 212 c 0,257,258
 251 145 251 145 251 112 c 0,259,260
 251 78 251 78 240.5 58.5 c 128,-1,261
 230 39 230 39 213 24.5 c 128,-1,262
 196 10 196 10 187 6 c 1,242,-1
EndSplineSet
Substitution2: "'ss01' Style Set Simple Forms-1" uni0411.simple
Colour: ff00
EndChar

StartChar: uni0412
Encoding: 1042 1042 16
Width: 455
Flags: W
HStem: -10 15<133.262 267.834> 47 1<138.938 139> 72 56<77.437 125.172> 132 13<125.014 137.985> 152 13<125.014 137.985> 166 13<109.014 121.985> 269 14<38 78.5889> 311 12<361.745 399.714> 318 10<330.001 340.999> 334 10<328.001 338.999> 340 10<313.001 323.999> 375.5 10.5<236.75 273.245> 389 15<297.904 324.271> 435 36<214.944 263.5> 535 16<246.624 309.706>
VStem: 1 11<214.577 250.887> 55 21.5<35.0781 79.8398> 96 14<197.299 250.073> 109 13<166.002 178.987> 123 68<337.231 426.518 428 473.18> 125 13<132.002 144.987 152.002 164.987> 177 30<86.229 135.291> 214.5 9.5<332.075 363.423> 215 35<46.9276 135.502> 289 10<325.386 359.351> 313 11<340.001 349.989> 330 11<318.001 327.989 334.206 343.688> 337 56<410.013 519.417> 377 76<60.2716 182.113> 385 34.5<273.249 300.001>
AnchorPoint: "Yerok" 363 575.9 basechar 0
AnchorPoint: "Diacritic" 275 575 basechar 0
LayerCount: 3
Fore
SplineSet
330 323 m 0xf89f80e0
 330 326 332 328 335 328 c 0
 338 328 341 326 341 323 c 0
 341 320 338 318 335 318 c 0
 332 318 330 320 330 323 c 0xf89f80e0
328 339 m 0
 328 342 330 344 333 344 c 0
 336 344 339 342 339 339 c 0
 339 336 336 334 333 334 c 0xf85f80c0
 330 334 328 336 328 339 c 0
313 345 m 0
 313 348 316 350 319 350 c 0
 322 350 324 348 324 345 c 0
 324 342 322 340 319 340 c 0xf83f80c0
 316 340 313 342 313 345 c 0
125 139 m 0xf81f88c0
 125 142 128 145 132 145 c 0
 135 145 138 142 138 139 c 0
 138 135 135 132 132 132 c 0
 128 132 125 135 125 139 c 0xf81f88c0
125 159 m 0
 125 162 128 165 132 165 c 0
 135 165 138 162 138 159 c 0
 138 155 135 152 132 152 c 0
 128 152 125 155 125 159 c 0
109 173 m 0xf81fa0c0
 109 176 112 179 116 179 c 0
 119 179 122 176 122 173 c 0
 122 169 119 166 116 166 c 0
 112 166 109 169 109 173 c 0xf81fa0c0
192 428 m 1
 203 446 235 471 256 471 c 0
 265 471 272 467 275 455 c 0
 282 426 299 404 313 404 c 0
 326 404 337 421 337 462 c 0xf81f80d0
 337 490 329 535 280 535 c 0
 223 535 195 482 192 428 c 1
236 436 m 0
 218 436 200 416 191 401 c 1
 192 379 195 358 200 337 c 1
 210 323 224 300 254 277 c 1
 258 282 272 299 272 314 c 0
 272 324 260 340 259 341 c 1
 259 341 261 342 263 342 c 0
 269 342 278 339 285 325 c 1
 285 325 288 332 288 342 c 0
 288 361 274 376 254 376 c 0
 236 376 225 361 225 346 c 0
 225 345 225 345 225 344 c 0
 228 324 239 326 236 323 c 0
 235 323 233 322 232 322 c 0
 222 322 214 333 214 349 c 0
 214 351 214 352 214 354 c 0
 217 373 236 386 257 386 c 0
 280 386 299 367 299 343 c 0
 299 324 288 306 288 306 c 1
 288 306 309 332 320 332 c 0
 321 332 324 331 324 330 c 0
 324 324 301 310 284 293 c 0
 275 284 263 268 263 268 c 1
 267 264 272 261 272 261 c 1
 287 277 326 302 341 310 c 0
 354 316 370 322 385 322 c 0
 399 322 423 314 423 294 c 0
 423 281 411 266 400 266 c 0
 393 266 385 277 385 284 c 0
 385 297 404 301 404 301 c 0xfd5f92e4
 398 308 391 311 382 311 c 0
 367 311 349 303 335 295 c 0
 327 290 294 268 282 253 c 1
 296 245 l 1
 299 248 304 253 312 261 c 0
 324 273 343 282 349 282 c 0
 351 282 351 281 351 280 c 0
 350 272 333 268 318 254 c 0
 318 254 313 249 305 240 c 1
 320 234 l 1
 321 235 328 243 329 243 c 0
 337 252 345 256 350 256 c 0
 352 256 354 256 355 254 c 0
 358 247 343 248 335 238 c 1
 332 231 l 1
 332 231 453 225 453 114 c 0
 453 18 388 9 345 0 c 0
 309 -7 272 -10 238 -10 c 0
 170 -10 116 0 116 0 c 1
 76 6 55 31 55 79 c 0
 55 109 76 128 99 128 c 0
 119 128 133 114 133 98 c 0
 133 82 117 72 103 72 c 0
 89 72 77 80 77 80 c 1
 77 80 76 76 76 71 c 0
 76 57 80 31 106 20 c 0
 118 15 130 12 143 12 c 0
 162 12 182 19 198 35 c 0
 211 48 215 67 215 86 c 0
 215 112 207 136 207 136 c 1
 207 136 206 108 188 80 c 0
 177 62 154 47 139 47 c 0
 138 47 l 0
 138 49 176 58 176 115 c 0xfb1f8dc8
 176 134 172 158 160 189 c 0
 125 282 123 300 123 382 c 0xfb1f90c0
 123 467 173 545 256 550 c 0
 263 550 270 551 276 551 c 0
 359 551 393 516 393 463 c 0
 393 411 351 388 313 388 c 0
 296 388 280 393 268 401 c 0
 249 414 250 436 236 436 c 0
250 125 m 0xf81f81c8
 250 52 228 22 179 6 c 1
 188 5 199 5 210 5 c 0
 254 5 311 13 355 60 c 0
 369 75 377 102 377 129 c 0
 377 165 362 203 328 211 c 0
 281 222 240 261 213 292 c 1
 230 239 250 186 250 125 c 0xf81f81c8
56 282 m 0xfa1fc0c0
 87 282 110 258 110 231 c 0
 110 204 102 189 87 169 c 0
 80 160 68 151 61 145 c 0
 53 137 50 129 50 129 c 1
 50 129 61 143 78 150 c 0
 91 155 99 157 105 157 c 0
 111 157 115 155 115 151 c 0
 115 143 84 147 59 123 c 0
 53 117 47 99 47 99 c 1
 46 100 27 109 27 129 c 0
 27 160 50 175 50 200 c 0
 50 212 44 219 44 219 c 1
 44 219 44 219 45 219 c 0
 49 219 62 218 71 196 c 0
 76 183 74 173 74 173 c 1
 74 173 96 196 96 224 c 0
 96 251 77 269 54 269 c 0
 30 269 13 253 13 231 c 0
 13 213 23 207 23 205 c 0
 23 205 22 205 21 205 c 0
 7 205 1 221 1 236 c 0
 1 266 27 282 56 282 c 0xfa1fc0c0
EndSplineSet
Validated: 1
Layer: 2
SplineSet
330 323 m 128,-1,1
 330 328 330 328 335 328 c 0,2,3
 341 328 341 328 341 323 c 128,-1,4
 341 318 341 318 335.5 318 c 128,-1,0
 330 318 330 318 330 323 c 128,-1,1
328 339 m 128,-1,6
 328 344 328 344 333 344 c 0,7,8
 339 344 339 344 339 339 c 128,-1,9
 339 334 339 334 333.5 334 c 128,-1,5
 328 334 328 334 328 339 c 128,-1,6
313 345 m 128,-1,11
 313 350 313 350 319 350 c 0,12,13
 324 350 324 350 324 345 c 128,-1,14
 324 340 324 340 318.5 340 c 128,-1,10
 313 340 313 340 313 345 c 128,-1,11
125 139 m 0,15,16
 125 145 125 145 131 145 c 0,17,18
 138 145 138 145 138 139 c 0,19,20
 138 132 138 132 131.5 132 c 128,-1,21
 125 132 125 132 125 139 c 0,15,16
125 159 m 0,22,23
 125 165 125 165 131 165 c 0,24,25
 138 165 138 165 138 159 c 0,26,27
 138 152 138 152 131.5 152 c 128,-1,28
 125 152 125 152 125 159 c 0,22,23
109 173 m 0,29,30
 109 179 109 179 115 179 c 0,31,32
 122 179 122 179 122 173 c 0,33,34
 122 166 122 166 115.5 166 c 128,-1,35
 109 166 109 166 109 173 c 0,29,30
337 458 m 0,36,37
 337 536 337 536 282 535 c 0,38,39
 238 534 238 534 216 502 c 128,-1,40
 194 470 194 470 192 428 c 1,41,42
 209 454 209 454 236 466 c 0,43,44
 247 471 247 471 258 471 c 128,-1,45
 269 471 269 471 275 455 c 1,46,47
 282 427 282 427 294 415 c 0,48,49
 305 404 305 404 312 404 c 128,-1,50
 319 404 319 404 324 410 c 0,51,52
 337 422 337 422 337 458 c 0,36,37
320 234 m 1,53,-1
 329 243 l 2,54,55
 337 252 337 252 345 255 c 0,56,57
 354 258 354 258 355 255 c 0,58,59
 356 250 356 250 353 249 c 0,60,61
 348 247 348 247 344 245 c 0,62,63
 337 241 337 241 332 231 c 1,64,65
 347 231 347 231 371 222.5 c 128,-1,66
 395 214 395 214 411 203 c 128,-1,67
 427 192 427 192 440 168 c 128,-1,68
 453 144 453 144 453 115 c 128,-1,69
 453 86 453 86 444.5 65.5 c 128,-1,70
 436 45 436 45 428 35 c 128,-1,71
 420 25 420 25 400.5 16.5 c 128,-1,72
 381 8 381 8 374 6 c 2,73,-1
 332 -2 l 2,74,75
 297 -10 297 -10 240 -10 c 128,-1,76
 183 -10 183 -10 150 -5 c 2,77,-1
 116 0 l 2,78,79
 55 9 55 9 55 79 c 0,80,81
 55 106 55 106 71 117 c 128,-1,82
 87 128 87 128 96 128 c 128,-1,83
 105 128 105 128 111 126 c 0,84,85
 129 120 129 120 132 104 c 0,86,87
 136 89 136 89 125.5 80.5 c 128,-1,88
 115 72 115 72 103 72 c 128,-1,89
 91 72 91 72 77 80 c 1,90,91
 78 78 78 78 76.5 68 c 128,-1,92
 75 58 75 58 82.5 42.5 c 128,-1,93
 90 27 90 27 108 19 c 128,-1,94
 126 11 126 11 150 11 c 128,-1,95
 174 11 174 11 195 32 c 0,96,97
 215 52 215 52 215 91 c 0,98,99
 215 106 215 106 212 118 c 2,100,-1
 207 136 l 1,101,102
 206 108 206 108 193 87.5 c 128,-1,103
 180 67 180 67 165 57 c 128,-1,104
 150 47 150 47 139 47 c 0,105,106
 137 47 137 47 139 48 c 0,107,108
 177 67 177 67 177 105 c 0,109,110
 177 144 177 144 155.5 200.5 c 128,-1,111
 134 257 134 257 128.5 288 c 128,-1,112
 123 319 123 319 123 383.5 c 128,-1,113
 123 448 123 448 159.5 497 c 0,114,115
 195 544 195 544 256 550 c 0,116,117
 267 551 267 551 276 551 c 0,118,119
 393 546 393 546 393 463 c 0,120,121
 393 436 393 436 379 418 c 0,122,123
 356 389 356 389 313 389 c 128,-1,124
 270 389 270 389 254 416 c 0,125,126
 247 429 247 429 246 430 c 0,127,128
 241 435 241 435 235 435 c 0,129,130
 227 435 227 435 214.5 427.5 c 128,-1,131
 202 420 202 420 191 401 c 1,132,133
 193 344 193 344 200 337 c 0,134,135
 202 335 202 335 205 330 c 0,136,137
 213 316 213 316 219 309 c 0,138,139
 230 296 230 296 254 277 c 1,140,141
 264 288 264 288 270 302 c 0,142,143
 275 317 275 317 270 324 c 2,144,-1
 259 341 l 1,145,146
 262 342 262 342 265 342 c 0,147,148
 277 342 277 342 285 325 c 1,149,150
 289 334 289 334 289 344 c 0,151,152
 289 353 289 353 281 364 c 1,153,154
 273 373 273 373 260 375.5 c 0,155,156
 248 378 248 378 236 370 c 128,-1,157
 224 362 224 362 224 352 c 0,158,159
 224 345 224 345 227 336 c 0,160,161
 229 330 229 330 233 327 c 128,-1,162
 237 324 237 324 236 323 c 0,163,164
 229 316 229 316 220 330 c 0,165,166
 213 339 213 339 214.5 354.5 c 0,167,168
 216 369 216 369 230 378 c 0,169,170
 243 386 243 386 252 386 c 0,171,172
 262 386 262 386 267 385 c 0,173,174
 288 381 288 381 296 358 c 0,175,176
 299 349 299 349 299 338 c 128,-1,177
 299 327 299 327 288 306 c 1,178,-1
 307 326 l 1,179,180
 319 335 319 335 322 332 c 128,-1,181
 325 329 325 329 320 324 c 128,-1,182
 315 319 315 319 297 305 c 0,183,184
 279 290 279 290 263 268 c 1,185,-1
 272 261 l 1,186,187
 295 285 295 285 332 304 c 128,-1,188
 369 323 369 323 389 323 c 128,-1,189
 409 323 409 323 421 302 c 1,190,191
 425 293 425 293 419.5 281.5 c 128,-1,192
 414 270 414 270 405.5 267 c 128,-1,193
 397 264 397 264 389 273 c 1,194,195
 385 281 385 281 385 285 c 0,196,197
 386 294 386 294 397 298 c 2,198,-1
 404 301 l 1,199,200
 396 311 396 311 380 311 c 128,-1,201
 364 311 364 311 335 295 c 1,202,203
 296 271 296 271 282 253 c 1,204,205
 296 245 296 245 296 245 c 0,206,207
 296 277 296 277 340 281 c 0,208,209
 352 282 352 282 351 279 c 0,210,211
 350 275 350 275 336 267 c 0,212,213
 322 258 322 258 305 240 c 1,214,-1
 320 234 l 1,53,-1
179 6 m 1,215,216
 194 5 194 5 205 5 c 0,217,218
 303 6 303 6 355 60 c 1,219,220
 377 81 377 81 377 124 c 0,221,222
 377 199 377 199 328 211 c 0,223,224
 271 225 271 225 213 292 c 1,225,226
 220 276 220 276 225 257.5 c 0,227,228
 227 251 227 251 240 206 c 0,229,230
 250 172 250 172 250 117 c 0,231,232
 250 30 250 30 179 6 c 1,215,216
38 266 m 1,233,234
 12 254 12 254 12 237 c 128,-1,235
 12 220 12 220 23 206 c 1,236,-1
 21 205 l 1,237,238
 7 205 7 205 3 222 c 0,239,240
 1 229 1 229 1 237 c 0,241,242
 0 265 0 265 36 279 c 0,243,244
 46 283 46 283 58 283 c 0,245,246
 70 282 70 282 80 277 c 0,247,248
 110 262 110 262 110 232 c 0,249,250
 110 200 110 200 87 169 c 0,251,252
 84 165 84 165 61 145 c 1,253,-1
 50 129 l 1,254,255
 60 142 60 142 79 150 c 128,-1,256
 98 158 98 158 107 158 c 0,257,258
 115 158 115 158 115 152 c 0,259,260
 115 148 115 148 94.5 143 c 128,-1,261
 74 138 74 138 59 123 c 1,262,-1
 47 99 l 1,263,264
 26 108 26 108 26 126 c 128,-1,265
 26 144 26 144 38 166.5 c 128,-1,266
 50 189 50 189 50 200 c 128,-1,267
 50 211 50 211 44 219 c 1,268,269
 45 219 45 219 46 219 c 0,270,271
 61 221 61 221 71 196 c 1,272,-1
 74 173 l 1,273,274
 88 187 88 187 91 199 c 128,-1,275
 94 211 94 211 96 222.5 c 128,-1,276
 98 234 98 234 92 244 c 1,277,278
 83 269 83 269 54 269 c 1,279,-1
 38 266 l 1,233,234
EndSplineSet
Substitution2: "'ss01' Style Set Simple Forms-1" uni0412.simple
Colour: ff00
EndChar

StartChar: uni0410.simple
Encoding: 62736 62736 17
Width: 430
GlyphClass: 2
Flags: W
HStem: 0 12<33.6423 71.1716 283 309 385 411> 42 32.5<21.0215 40.7839> 147 19<156 309> 538 12<283 309 385 411>
VStem: -1 22<20.8906 42> 11 30<42.9001 74.358> 90.5 63.5<35.7078 62 84.1366 147 166 233.819> 309 76<12 147 166 418 437 538>
AnchorPoint: "Yerok" 348.5 581 basechar 0
AnchorPoint: "Diacritic" 348 579 basechar 0
LayerCount: 3
Fore
SplineSet
309 166 m 1
 309 418 l 1
 288 390 232 349 195 281 c 0
 167 230 159 195 156 166 c 1
 309 166 l 1
-0 51 m 0
 -0 68 8 77 20 77 c 0
 31 77 41 70 41 63 c 0
 41 44 28 42 24 42 c 0
 21 42 l 1
 21 23 36 14 52 14 c 0
 60 14 68 16 75 20 c 0
 91 29 92 62 92 62 c 1
 92 62 85 55 78 50 c 0
 69 44 59 46 59 46 c 1
 59 46 79 58 88 84 c 0
 90 90 91 98 91 108 c 0
 91 115 91 123 91 132 c 0
 91 158 93 193 112 236 c 0
 144 308 309 437 309 437 c 1
 309 538 l 1
 283 538 l 1
 283 550 l 1
 411 550 l 1
 411 538 l 1
 385 538 l 1
 385 12 l 1
 411 12 l 1
 411 0 l 1
 283 0 l 1
 283 12 l 1
 309 12 l 1
 309 147 l 1
 309 147 156 147 155 147 c 1
 155 135 156 124 156 113 c 0
 156 104 155 95 154 86 c 0
 148 31 98 0 49 0 c 0
 20 0 -0 24 -0 51 c 0
EndSplineSet
Validated: 1
Layer: 2
SplineSet
309 166 m 1,0,-1
 309 418 l 1,1,2
 263 370 l 2,3,4
 168 270 168 270 156 166 c 1,5,-1
 309 166 l 1,0,-1
21 42 m 1,6,7
 21 13 21 13 57 13 c 0,8,9
 65 13 65 13 71 17 c 0,10,11
 90 30 90 30 92 54 c 2,12,-1
 92 62 l 1,13,14
 76 46 76 46 63 46 c 0,15,16
 61 46 61 46 59 46 c 1,17,18
 79 58 79 58 88 84 c 0,19,20
 89 88 89 88 90.5 139.5 c 128,-1,21
 92 191 92 191 109 229.5 c 128,-1,22
 126 268 126 268 175.5 318 c 128,-1,23
 225 368 225 368 267 402 c 2,24,-1
 309 437 l 1,25,-1
 309 538 l 1,26,-1
 283 538 l 1,27,-1
 283 550 l 1,28,-1
 411 550 l 1,29,-1
 411 538 l 1,30,-1
 385 538 l 1,31,-1
 385 12 l 1,32,-1
 411 12 l 1,33,-1
 411 0 l 1,34,-1
 283 0 l 1,35,-1
 283 12 l 1,36,-1
 309 12 l 1,37,-1
 309 147 l 1,38,-1
 155 147 l 1,39,40
 155 93 155 93 154 86 c 0,41,42
 150 47 150 47 119 23.5 c 128,-1,43
 88 0 88 0 57 0 c 0,44,45
 28 0 28 0 13 17 c 0,46,47
 -1 33 -1 33 -1 42 c 0,48,49
 -0 71 -0 71 11 75 c 0,50,51
 23 79 23 79 32.5 74.5 c 128,-1,52
 42 70 42 70 41 60 c 0,53,54
 39 39 39 39 24 42 c 0,55,56
 23 42 23 42 21 42 c 1,6,7
EndSplineSet
Colour: ff00
EndChar

StartChar: uni0411.simple
Encoding: 62737 62737 18
Width: 470
GlyphClass: 2
Flags: W
HStem: -9 10<134.33 228.715> 72 56<22.437 70.1715> 282 14<264.411 305> 397 13<237.015 249.986> 411 13<221.015 233.986> 418 9.5<244.548 265.579> 431 13<221.015 233.986> 455 11<236.545 280.435> 533 17<215 289.124 315 349.35>
VStem: 0 21.5<35.0781 79.8398> 76 80<318.1 530.168> 113 39<80.1484 135.885> 160 36<46.9857 135.832> 221 13<411.015 423.998 431.015 443.998> 233 13<317.972 363.936 397.99 408.932> 302 35<436.866 472> 342 81<51.0643 210.191> 367 25<445.527 514.532>
DStem2: 161 307 82 301 0.184107 -0.982906<0 165.755>
AnchorPoint: "Yerok" 391.5 575 basechar 0
AnchorPoint: "Diacritic" 257 575 basechar 0
LayerCount: 3
Fore
SplineSet
234 438 m 0xff98
 234 434 231 431 228 431 c 0
 224 431 221 434 221 438 c 0
 221 441 224 444 228 444 c 0
 231 444 234 441 234 438 c 0xff98
234 418 m 0
 234 414 231 411 228 411 c 0
 224 411 221 414 221 418 c 0
 221 421 224 424 228 424 c 0
 231 424 234 421 234 418 c 0
250 404 m 0
 250 400 247 397 244 397 c 0
 240 397 237 400 237 404 c 0
 237 407 240 410 244 410 c 0xff92
 247 410 250 407 250 404 c 0
260 467 m 0
 278 467 297 479 297 501 c 0
 297 515 290 527 278 533 c 1
 278 533 235 533 215 533 c 1
 215 533 235 526 247 513 c 0
 260 499 260 489 250 489 c 0
 244 489 241 499 222 515 c 0
 213 523 195 529 176 533 c 1
 169 501 156 431 156 382 c 0xffd5
 156 369 156 357 157 345 c 1
 174 319 220 259 292 253 c 0
 371 246 423 227 423 118 c 0
 423 21 349 9 305 1 c 1
 266 -7 227 -10 191 -10 c 0
 136 -10 89 -4 61 0 c 0
 21 6 0 31 0 79 c 0
 0 109 21 128 44 128 c 0
 64 128 78 114 78 98 c 0
 78 82 62 72 48 72 c 0
 34 72 22 80 22 80 c 1
 22 80 21 76 21 71 c 0
 21 57 25 31 51 20 c 0
 63 15 75 12 88 12 c 0
 107 12 127 19 143 35 c 0
 156 48 160 67 160 86 c 0
 160 112 152 136 152 136 c 1
 152 136 151 108 133 80 c 0
 122 62 99 47 84 47 c 0
 82 47 l 0
 82 48 112 57 112 124 c 0xffb240
 112 141 110 163 105 189 c 0
 88 274 76 300 76 382 c 0
 76 431 86 501 92 533 c 1
 75 550 l 1
 457 550 l 1
 387 515 l 1
 387 515 391 502 391 486 c 0
 391 458 370 423 356 423 c 0
 353 423 351 425 351 427 c 0
 351 433 367 445 367 471 c 0
 367 496 357 533 329 533 c 2
 315 533 l 1
 329 524 337 503 337 481 c 0
 337 433 292 392 292 356 c 0
 292 344 298 337 298 337 c 1
 298 337 298 337 297 337 c 0xffd320
 293 337 280 338 271 360 c 0
 266 373 268 383 268 383 c 1
 268 383 247 367 247 341 c 0
 247 314 266 296 289 296 c 0
 313 296 330 312 330 334 c 0
 330 352 320 358 320 360 c 0
 320 360 321 360 322 360 c 0
 336 360 342 344 342 329 c 0
 342 299 316 283 287 283 c 0
 256 283 233 307 233 334 c 0xff9480
 233 361 243 374 255 387 c 0
 263 395 258 396 289 419 c 0
 309 434 309 447 309 447 c 1
 309 447 298 433 281 426 c 0
 268 421 260 419 254 419 c 0
 248 419 244 421 244 424 c 0
 244 433 296 428 301 464 c 0
 301 467 302 469 302 472 c 1
 299 466 276 455 255 455 c 0
 236 455 209 470 209 479 c 0
 209 482 211 484 214 484 c 0
 221 484 234 467 260 467 c 0
161 307 m 1
 170 241 189 192 195 125 c 0
 195 119 196 114 196 108 c 0
 196 60 175 39 150 18 c 0
 144 13 138 9 132 6 c 1
 150 5 167 1 187 1 c 0
 215 1 250 8 305 38 c 0
 330 51 341 89 341 128 c 0xff9040
 341 179 322 231 288 233 c 0
 227 238 184 278 161 307 c 1
EndSplineSet
Validated: 1
Layer: 2
SplineSet
234 438 m 0,0,1
 234 431 234 431 228 431 c 0,2,3
 221 431 221 431 221 437 c 0,4,5
 221 444 221 444 227.5 444 c 128,-1,6
 234 444 234 444 234 438 c 0,0,1
234 418 m 0,7,8
 234 411 234 411 228 411 c 0,9,10
 221 411 221 411 221 417 c 0,11,12
 221 424 221 424 227.5 424 c 128,-1,13
 234 424 234 424 234 418 c 0,7,8
250 404 m 0,14,15
 250 397 250 397 244 397 c 0,16,17
 237 397 237 397 237 403 c 0,18,19
 237 410 237 410 243.5 410 c 128,-1,20
 250 410 250 410 250 404 c 0,14,15
315 533 m 1,21,22
 337 518 337 518 337 477 c 0,23,24
 337 466 337 466 332.5 454.5 c 0,25,26
 325 436 325 436 310 407 c 0,27,28
 291 371 291 371 291 358 c 0,29,30
 291 346 291 346 298 337 c 1,31,32
 297 337 297 337 296 337 c 128,-1,33
 294.889 336.852 294.889 336.852 293.805 336.852 c 0,34,35
 280.259 336.852 280.259 336.852 271 360 c 1,36,-1
 268 383 l 1,37,38
 246 361 246 361 246 346 c 128,-1,39
 246 331 246 331 251 321 c 1,40,41
 260 296 260 296 289 296 c 1,42,-1
 305 299 l 1,43,44
 331 311 331 311 331 328 c 128,-1,45
 331 345 331 345 320 359 c 1,46,-1
 322 360 l 1,47,48
 335 360 335 360 340 343 c 128,-1,49
 345 326 345 326 339 313 c 1,50,51
 332 295 332 295 308 286 c 0,52,53
 297 282 297 282 286 282 c 0,54,55
 274 282 274 282 263 288 c 0,56,57
 233 304 233 304 233 332 c 0,58,59
 233 365 233 365 255 387 c 0,60,61
 258 390 258 390 263 397 c 128,-1,62
 268 404 268 404 288 418 c 0,63,64
 307 433 307 433 309 447 c 1,65,66
 299 434 299 434 280 426 c 128,-1,67
 261 418 261 418 254 418 c 0,68,69
 246 418 246 418 244.5 422 c 128,-1,70
 243 426 243 426 248 427.5 c 128,-1,71
 253 429 253 429 261 431 c 128,-1,72
 269 433 269 433 278 436 c 0,73,74
 301 445 301 445 301 464 c 0,75,76
 301 467 301 467 302 468 c 0,77,78
 302 470 302 470 302 472 c 1,79,80
 298 465 298 465 282 460 c 128,-1,81
 266 455 266 455 257 455 c 0,82,83
 220 456 220 456 210 477 c 0,84,85
 208 481 208 481 211 483 c 0,86,87
 215 486 215 486 229 476 c 128,-1,88
 243 466 243 466 259 466 c 0,89,90
 288 467 288 467 296 491 c 0,91,92
 300 504 300 504 294.5 516 c 128,-1,93
 289 528 289 528 278 533 c 1,94,-1
 215 533 l 1,95,96
 235 526 235 526 249.5 510 c 128,-1,97
 264 494 264 494 254 490 c 1,98,99
 252 490 252 490 249 489 c 128,-1,100
 246 488 246 488 239 498 c 0,101,102
 232 507 232 507 221 516.5 c 128,-1,103
 210 526 210 526 176 533 c 1,104,105
 156 442 156 442 156 399.5 c 128,-1,106
 156 357 156 357 157 345 c 1,107,108
 213 260 213 260 286.5 253.5 c 128,-1,109
 360 247 360 247 392 220 c 0,110,111
 423 194 423 194 423 131 c 128,-1,112
 423 68 423 68 394 36 c 0,113,114
 384 25 384 25 364 17 c 0,115,116
 298 -9 298 -9 216 -9 c 0,117,118
 135 -9 135 -9 61 0 c 1,119,120
 0 9 0 9 0 79 c 0,121,122
 0 106 0 106 16 117 c 128,-1,123
 32 128 32 128 41 128 c 128,-1,124
 50 128 50 128 56 126 c 0,125,126
 74 120 74 120 78 104 c 0,127,128
 81 89 81 89 70.5 80.5 c 128,-1,129
 60 72 60 72 48 72 c 128,-1,130
 36 72 36 72 22 80 c 1,131,132
 23 78 23 78 21.5 68 c 128,-1,133
 20 58 20 58 27.5 42.5 c 128,-1,134
 35 27 35 27 53 19 c 128,-1,135
 71 11 71 11 95 11 c 128,-1,136
 119 11 119 11 140 32 c 0,137,138
 160 52 160 52 160 91 c 0,139,140
 160 106 160 106 157 118 c 2,141,-1
 152 136 l 1,142,143
 151 108 151 108 138 87.5 c 128,-1,144
 125 67 125 67 110 57 c 128,-1,145
 95 47 95 47 84 47 c 0,146,147
 82 47 82 47 85 49 c 0,148,149
 113 66 113 66 113 121 c 0,150,151
 113 155 113 155 100 215 c 0,152,153
 90 261 90 261 82 301 c 0,154,155
 76 326 76 326 76 388 c 0,156,157
 76 448 76 448 92 533 c 1,158,-1
 75 550 l 1,159,-1
 457 550 l 1,160,-1
 387 515 l 1,161,162
 392 500 392 500 392 487 c 0,163,164
 392 475 392 475 386 459 c 128,-1,165
 380 443 380 443 370 432 c 128,-1,166
 360 421 360 421 353 424 c 1,167,168
 349 429 349 429 352.5 432 c 0,169,170
 358 436 358 436 362 447 c 0,171,172
 367 459 367 459 367 468 c 0,173,174
 367 476 367 476 366.5 486.5 c 128,-1,175
 366 497 366 497 356.5 515 c 128,-1,176
 347 533 347 533 329 533 c 2,177,-1
 315 533 l 1,21,22
132 6 m 1,178,-1
 182 1 l 1,179,180
 222 1 222 1 250 12 c 0,181,182
 280 24 280 24 305 38 c 0,183,184
 342 59 342 59 342 131 c 0,185,186
 342 161 342 161 332 189 c 0,187,188
 317 231 317 231 288 233 c 0,189,190
 215 239 215 239 161 307 c 1,191,192
 166 270 166 270 180 212 c 0,193,194
 196 145 196 145 196 112 c 0,195,196
 196 78 196 78 185.5 58.5 c 128,-1,197
 175 39 175 39 158 24.5 c 128,-1,198
 141 10 141 10 132 6 c 1,178,-1
EndSplineSet
Colour: ff00
EndChar

StartChar: uni0412.simple
Encoding: 62738 62738 19
Width: 405
GlyphClass: 2
Flags: W
HStem: -10 13<124.072 228.634> 47 1<83.9385 84> 72 56<22.437 70.1715> 389 15<242.922 270.381> 435 36<159.875 208.5> 535.013 15.9874<191.624 254.706>
VStem: 0 21.5<35.0781 79.8398> 68 68<362.532 425.902 428 473.18> 122 30<86.229 135.291> 160 35<44.8707 162.359> 282 56<410.013 519.71> 320 78<57.2058 214.413>
AnchorPoint: "Yerok" 318 575.9 basechar 0
AnchorPoint: "Diacritic" 210 575 basechar 0
LayerCount: 3
Fore
SplineSet
137 428 m 1xfcc0
 148 446 180 471 201 471 c 0
 210 471 217 467 220 455 c 0
 227 426 244 404 258 404 c 0
 271 404 282 421 282 462 c 0
 282 490 274 535 225 535 c 0
 168 535 140 482 137 428 c 1xfcc0
78 98 m 0
 78 82 62 72 48 72 c 0
 34 72 22 80 22 80 c 1
 22 80 21 76 21 71 c 0
 21 57 25 31 51 20 c 0
 63 15 75 12 88 12 c 0
 107 12 127 19 143 35 c 0
 156 48 160 67 160 86 c 0
 160 112 152 136 152 136 c 1
 152 136 151 108 133 80 c 0
 122 62 99 47 84 47 c 0
 83 47 l 0
 83 49 121 58 121 115 c 0xfda0
 121 134 117 158 105 189 c 0
 70 282 68 300 68 382 c 0
 68 467 118 545 201 550 c 0
 208 550 215 551 221 551 c 0
 304 551 338 516 338 463 c 0xfec0
 338 411 296 388 258 388 c 0
 241 388 225 393 213 401 c 0
 194 414 195 436 181 436 c 0
 175 436 168 433 157 426 c 0
 149 421 145 413 136 401 c 1
 137 379 136 383 141 362 c 1
 141 362 194 275 263 262 c 0
 338 248 398 248 398 131 c 0xfea0
 398 38 333 9 290 0 c 0
 254 -7 217 -10 183 -10 c 0
 115 -10 61 0 61 0 c 0
 21 6 0 31 0 79 c 0
 0 109 21 128 44 128 c 0
 64 128 78 114 78 98 c 0
195 125 m 0
 195 52 173 22 124 6 c 1
 138 5 156 3 175 3 c 0
 219 3 270 12 300 60 c 0
 313 80 320 109 320 137 c 0
 320 184 300 231 259 242 c 0
 210 255 181 286 154 317 c 1
 171 264 195 186 195 125 c 0
EndSplineSet
Validated: 1
Layer: 2
SplineSet
282 458 m 0,0,1
 282 535.013 282 535.013 228.384 535.013 c 0,2,3
 227.696 535.013 227.696 535.013 227 535 c 0,4,5
 183 534 183 534 161 502 c 128,-1,6
 139 470 139 470 137 428 c 1,7,8
 154 454 154 454 181 466 c 0,9,10
 192 471 192 471 203 471 c 128,-1,11
 214 471 214 471 220 455 c 1,12,13
 227 427 227 427 239 415 c 0,14,15
 250 404 250 404 257 404 c 128,-1,16
 264 404 264 404 270 410 c 0,17,18
 282 422 282 422 282 458 c 0,0,1
141 362 m 1,19,20
 147 352 147 352 157.5 337.5 c 128,-1,21
 168 323 168 323 200 295.5 c 128,-1,22
 232 268 232 268 263 262 c 2,23,-1
 287 258 l 2,24,25
 337 250 337 250 346 243.5 c 128,-1,26
 355 237 355 237 365.5 230 c 128,-1,27
 376 223 376 223 379.5 214.5 c 128,-1,28
 383 206 383 206 391 190 c 0,29,30
 398 175 398 175 398 131 c 0,31,32
 398 23 398 23 290 0 c 0,33,34
 243 -10 243 -10 185 -10 c 0,35,36
 128 -10 128 -10 94 -5 c 2,37,-1
 61 0 l 2,38,39
 0 9 0 9 0 79 c 0,40,41
 0 106 0 106 16 117 c 128,-1,42
 32 128 32 128 41 128 c 128,-1,43
 50 128 50 128 56 126 c 0,44,45
 74 120 74 120 78 104 c 0,46,47
 81 89 81 89 70.5 80.5 c 128,-1,48
 60 72 60 72 48 72 c 128,-1,49
 36 72 36 72 22 80 c 1,50,51
 23 78 23 78 21.5 68 c 128,-1,52
 20 58 20 58 27.5 42.5 c 128,-1,53
 35 27 35 27 53 19 c 128,-1,54
 71 11 71 11 95 11 c 128,-1,55
 119 11 119 11 140 32 c 0,56,57
 160 52 160 52 160 91 c 0,58,59
 160 106 160 106 157 118 c 2,60,-1
 152 136 l 1,61,62
 151 108 151 108 138 87.5 c 128,-1,63
 125 67 125 67 110 57 c 128,-1,64
 95 47 95 47 84 47 c 0,65,66
 82 47 82 47 84 48 c 0,67,68
 122 67 122 67 122 105 c 0,69,70
 122 144 122 144 100.5 200.5 c 128,-1,71
 79 257 79 257 73.5 288 c 128,-1,72
 68 319 68 319 68 383.5 c 128,-1,73
 68 448 68 448 104.5 497 c 0,74,75
 140 544 140 544 201 550 c 0,76,77
 212 551 212 551 221 551 c 0,78,79
 338 546 338 546 338 463 c 0,80,81
 338 436 338 436 324 418 c 0,82,83
 301 389 301 389 258 389 c 128,-1,84
 215 389 215 389 200 416 c 0,85,86
 192 429 192 429 191 430 c 0,87,88
 186 435 186 435 180 435 c 0,89,90
 172 435 172 435 157 426 c 0,91,92
 153 423 153 423 136 401 c 1,93,94
 137 379 137 379 141 362 c 1,19,20
124 3 m 1,95,-1
 189 3 l 1,96,97
 215 3 215 3 247.5 16 c 128,-1,98
 280 29 280 29 300 60 c 128,-1,99
 320 91 320 91 320 131 c 128,-1,100
 320 171 320 171 305 202.5 c 128,-1,101
 290 234 290 234 259 242 c 0,102,103
 207 256 207 256 154 317 c 1,104,105
 195 189 195 189 195 135 c 0,106,107
 195 86 195 86 184 58 c 0,108,109
 168 18 168 18 124 3 c 1,95,-1
EndSplineSet
Colour: ff00
EndChar

StartChar: uni0413
Encoding: 1043 1043 20
Width: 525
Flags: W
HStem: -2 13<112.09 175.451> 72 56<77.437 125.172> 132 13<125.014 137.985> 152 13<125.014 137.985> 166 13<109.014 121.985> 256 14<300.411 341> 269 14<38 78.5889> 397 13<292.015 304.986> 411 13<276.015 288.986> 418 9.5<300.064 320.245> 431 13<276.015 288.986> 455 11<291.545 335.435> 533 17<270 344.124 370 404.35>
VStem: 0.972973 11.027<214.577 251.112> 55 21.5<35.5469 79.8398> 96 14<197.299 250.073> 109 13<166.002 178.987> 125 13<132.002 144.987 152.002 164.987> 131 80<225.742 530.257> 168 39<80.1484 135.885> 215 36<47.8706 135.371> 269 14<289.029 341.162> 276 13<411.015 423.998 431.015 443.998> 292 13<397.015 409.998> 356 36<436.866 472> 422 25<445.527 514.532>
AnchorPoint: "Yerok" 421.5 575.8 basechar 0
AnchorPoint: "Diacritic" 314 575 basechar 0
LayerCount: 3
Fore
SplineSet
289 438 m 0xf9fc1420
 289 434 286 431 283 431 c 0xf9fc1820
 279 431 276 434 276 438 c 0xf9fc1420
 276 441 279 444 283 444 c 0xf9fc1820
 286 444 289 441 289 438 c 0xf9fc1420
289 418 m 0xf9fc1420
 289 414 286 411 283 411 c 0xf9fc1820
 279 411 276 414 276 418 c 0xf9fc1420
 276 421 279 424 283 424 c 0xf9fc1820
 286 424 289 421 289 418 c 0xf9fc1420
305 404 m 0xf9fc1220
 305 400 302 397 299 397 c 0xf9fc1120
 295 397 292 400 292 404 c 0xf9fc1220
 292 407 295 410 299 410 c 0xf9fc1120
 302 410 305 407 305 404 c 0xf9fc1220
125 139 m 0xf9fc9020
 125 142 128 145 132 145 c 0
 135 145 138 142 138 139 c 0
 138 135 135 132 132 132 c 0
 128 132 125 135 125 139 c 0xf9fc9020
125 159 m 0
 125 162 128 165 132 165 c 0
 135 165 138 162 138 159 c 0
 138 155 135 152 132 152 c 0
 128 152 125 155 125 159 c 0
109 173 m 0xf9fd1020
 109 176 112 179 116 179 c 0
 119 179 122 176 122 173 c 0
 122 169 119 166 116 166 c 0
 112 166 109 169 109 173 c 0xf9fd1020
56 282 m 0xfbfe1020
 87 282 110 258 110 231 c 0
 110 204 102 189 87 169 c 0
 80 160 68 151 61 145 c 0
 53 137 50 129 50 129 c 1
 50 129 61 143 78 150 c 0
 91 155 99 157 105 157 c 0
 111 157 115 155 115 151 c 0
 115 143 84 147 59 123 c 0
 53 117 47 99 47 99 c 1
 46 100 27 109 27 129 c 0
 27 160 50 175 50 200 c 0
 50 212 44 219 44 219 c 1
 44 219 44 219 45 219 c 0
 49 219 62 218 71 196 c 0
 76 183 74 173 74 173 c 1
 74 173 96 196 96 224 c 0
 96 251 77 269 54 269 c 0
 30 269 13 253 13 231 c 0
 13 213 23 207 23 205 c 0
 23 205 22 205 21 205 c 0
 7 205 1 221 1 236 c 0
 1 266 27 282 56 282 c 0xfbfe1020
315 467 m 0
 333 467 352 479 352 501 c 0
 352 515 345 527 333 533 c 1
 333 533 290 533 270 533 c 1
 270 533 290 526 302 513 c 0
 315 499 315 489 305 489 c 0
 299 489 296 499 277 515 c 0
 268 523 250 529 231 533 c 1
 224 501 211 431 211 382 c 0xfdfc5aa0
 211 273 242 216 250 125 c 0
 250 119 251 114 251 108 c 0
 251 60 230 39 205 18 c 0
 186 2 165 -2 144 -2 c 0
 87 -2 55 20 55 79 c 0
 55 109 76 128 99 128 c 0
 119 128 133 114 133 98 c 0
 133 82 117 72 103 72 c 0
 89 72 77 80 77 80 c 1
 77 80 76 76 76 71 c 0
 76 57 80 31 106 20 c 0
 118 15 130 12 143 12 c 0
 162 12 182 19 198 35 c 0
 211 48 215 67 215 86 c 0
 215 112 207 136 207 136 c 1
 207 136 206 108 188 80 c 0
 177 62 154 47 139 47 c 0
 137 47 l 0
 137 48 167 57 167 124 c 0xfdfc3020
 167 141 165 163 160 189 c 0
 143 274 131 300 131 382 c 0
 131 431 141 501 147 533 c 1
 130 550 l 1
 512 550 l 1
 442 515 l 1
 442 515 446 502 446 486 c 0
 446 458 425 423 411 423 c 0
 408 423 406 425 406 427 c 0
 406 433 422 445 422 471 c 0
 422 496 412 533 384 533 c 2
 370 533 l 1
 384 524 392 503 392 481 c 0
 392 429 329 377 329 339 c 0xfdfc51a0
 329 327 335 320 335 320 c 1
 335 320 335 320 334 320 c 0
 330 320 317 321 308 343 c 0
 303 356 305 366 305 366 c 1
 305 366 283 343 283 315 c 0
 283 288 302 270 325 270 c 0
 349 270 366 286 366 308 c 0
 366 326 356 332 356 334 c 0
 356 334 357 334 358 334 c 0
 372 334 378 318 378 303 c 0
 378 273 352 257 323 257 c 0
 292 257 269 281 269 308 c 0
 269 335 277 350 292 370 c 0xfdfc1a60
 299 379 313 396 344 419 c 0
 364 434 364 447 364 447 c 1
 364 447 353 433 336 426 c 0
 323 421 315 419 309 419 c 0
 303 419 299 421 299 424 c 0
 299 433 351 428 356 464 c 0
 356 467 357 469 357 472 c 1
 354 466 331 455 310 455 c 0
 291 455 264 470 264 479 c 0
 264 482 266 484 269 484 c 0xfdfc1920
 276 484 289 467 315 467 c 0
EndSplineSet
Validated: 1
Layer: 2
SplineSet
289 438 m 0,0,1
 289 431 289 431 283 431 c 0,2,3
 276 431 276 431 276 437 c 0,4,5
 276 444 276 444 282.5 444 c 128,-1,6
 289 444 289 444 289 438 c 0,0,1
289 418 m 0,7,8
 289 411 289 411 283 411 c 0,9,10
 276 411 276 411 276 417 c 0,11,12
 276 424 276 424 282.5 424 c 128,-1,13
 289 424 289 424 289 418 c 0,7,8
305 404 m 0,14,15
 305 397 305 397 299 397 c 0,16,17
 292 397 292 397 292 403 c 0,18,19
 292 410 292 410 298.5 410 c 128,-1,20
 305 410 305 410 305 404 c 0,14,15
125 139 m 0,21,22
 125 145 125 145 131 145 c 0,23,24
 138 145 138 145 138 139 c 0,25,26
 138 132 138 132 131.5 132 c 128,-1,27
 125 132 125 132 125 139 c 0,21,22
125 159 m 0,28,29
 125 165 125 165 131 165 c 0,30,31
 138 165 138 165 138 159 c 0,32,33
 138 152 138 152 131.5 152 c 128,-1,34
 125 152 125 152 125 159 c 0,28,29
109 173 m 0,35,36
 109 179 109 179 115 179 c 0,37,38
 122 179 122 179 122 173 c 0,39,40
 122 166 122 166 115.5 166 c 128,-1,41
 109 166 109 166 109 173 c 0,35,36
38 266 m 1,42,43
 12 254 12 254 12 237 c 128,-1,44
 12 220 12 220 23 206 c 1,45,-1
 21 205 l 1,46,47
 7 205 7 205 3 222 c 0,48,49
 1 229 1 229 1 237 c 0,50,51
 0.972973 237.757 0.972973 237.757 0.972973 238.503 c 0,52,53
 0.972973 265.378 0.972973 265.378 36 279 c 0,54,55
 46 283 46 283 58 283 c 0,56,57
 70 282 70 282 80 277 c 0,58,59
 110 262 110 262 110 232 c 0,60,61
 110 200 110 200 87 169 c 0,62,63
 84 165 84 165 61 145 c 1,64,-1
 50 129 l 1,65,66
 60 142 60 142 79 150 c 128,-1,67
 98 158 98 158 105 158 c 128,-1,68
 112 158 112 158 114 154 c 128,-1,69
 116 150 116 150 113 148.5 c 128,-1,70
 110 147 110 147 92 142.5 c 128,-1,71
 74 138 74 138 59 123 c 1,72,-1
 47 99 l 1,73,74
 26 108 26 108 26 126 c 128,-1,75
 26 144 26 144 38 166.5 c 128,-1,76
 50 189 50 189 50 200 c 128,-1,77
 50 211 50 211 44 219 c 1,78,79
 45 219 45 219 46 219 c 128,-1,80
 47.1111 219.148 47.1111 219.148 48.1948 219.148 c 0,81,82
 61.7407 219.148 61.7407 219.148 71 196 c 1,83,-1
 74 173 l 1,84,85
 88 187 88 187 91 199 c 128,-1,86
 94 211 94 211 96 222.5 c 128,-1,87
 98 234 98 234 92 244 c 1,88,89
 83 269 83 269 54 269 c 1,90,-1
 38 266 l 1,42,43
370 533 m 1,91,92
 392 518 392 518 392 478 c 0,93,94
 392 466 392 466 387 452 c 0,95,96
 381 437 381 437 355 396 c 0,97,98
 328 353 328 353 328 341 c 128,-1,99
 328 329 328 329 335 320 c 1,100,101
 334 320 334 320 333 320 c 128,-1,102
 331.889 319.852 331.889 319.852 330.805 319.852 c 0,103,104
 317.259 319.852 317.259 319.852 308 343 c 1,105,-1
 305 366 l 1,106,107
 291 352 291 352 288 340 c 128,-1,108
 285 328 285 328 283 316.5 c 128,-1,109
 281 305 281 305 287 295 c 1,110,111
 296 270 296 270 325 270 c 1,112,-1
 341 273 l 1,113,114
 367 285 367 285 367 302 c 128,-1,115
 367 319 367 319 356 333 c 1,116,-1
 358 334 l 1,117,118
 371 334 371 334 376 317 c 128,-1,119
 381 300 381 300 375 287 c 1,120,121
 368 269 368 269 344 260 c 0,122,123
 333 256 333 256 322 256 c 0,124,125
 310 256 310 256 299 262 c 0,126,127
 269 278 269 278 269 308 c 0,128,129
 269 364 269 364 344 419 c 0,130,131
 362 432 362 432 364 447 c 1,132,133
 354 434 354 434 335 426 c 128,-1,134
 316 418 316 418 309 418 c 128,-1,135
 302 418 302 418 300 422 c 128,-1,136
 298 426 298 426 303 427.5 c 128,-1,137
 308 429 308 429 316 431 c 128,-1,138
 324 433 324 433 332 436 c 0,139,140
 356 445 356 445 356 464 c 0,141,142
 356 467 356 467 356 468 c 0,143,144
 357 470 357 470 357 472 c 1,145,146
 353 465 353 465 337 460 c 128,-1,147
 321 455 321 455 312 455 c 0,148,149
 275 456 275 456 265 477 c 0,150,151
 263 481 263 481 266 483 c 0,152,153
 270 486 270 486 284 476 c 128,-1,154
 298 466 298 466 314 466 c 0,155,156
 343 467 343 467 351 491 c 0,157,158
 355 504 355 504 349.5 516 c 128,-1,159
 344 528 344 528 333 533 c 1,160,-1
 270 533 l 1,161,162
 290 526 290 526 304.5 510 c 128,-1,163
 319 494 319 494 309 490 c 1,164,165
 307 490 307 490 304 489 c 128,-1,166
 301 488 301 488 294 498 c 0,167,168
 287 507 287 507 276 516.5 c 128,-1,169
 265 526 265 526 231 533 c 1,170,171
 211 442 211 442 211 381.5 c 128,-1,172
 211 321 211 321 231 232 c 128,-1,173
 251 143 251 143 251 111 c 0,174,175
 251 78 251 78 240 58 c 0,176,177
 232 43 232 43 205 19 c 0,178,179
 181 -2 181 -2 143 -2 c 0,180,181
 129 -2 129 -2 114 0 c 0,182,183
 55 10 55 10 55 79 c 0,184,185
 55 106 55 106 71 117 c 128,-1,186
 87 128 87 128 96 128 c 128,-1,187
 105 128 105 128 111 126 c 0,188,189
 129 120 129 120 132 104 c 0,190,191
 136 89 136 89 125.5 80.5 c 128,-1,192
 115 72 115 72 103 72 c 128,-1,193
 91 72 91 72 77 80 c 1,194,195
 78 78 78 78 76.5 68 c 128,-1,196
 75 58 75 58 82.5 42.5 c 128,-1,197
 90 27 90 27 108 19 c 128,-1,198
 126 11 126 11 150 11 c 128,-1,199
 174 11 174 11 195 32 c 0,200,201
 215 52 215 52 215 91 c 0,202,203
 215 106 215 106 212 118 c 2,204,-1
 207 136 l 1,205,206
 206 108 206 108 193 87.5 c 128,-1,207
 180 67 180 67 165 57 c 128,-1,208
 150 47 150 47 139 47 c 0,209,210
 137 47 137 47 140 49 c 0,211,212
 168 66 168 66 168 121 c 0,213,214
 168 155 168 155 155 215 c 0,215,216
 145 261 145 261 136 301 c 0,217,218
 131 326 131 326 131 388 c 0,219,220
 131 448 131 448 147 533 c 1,221,-1
 130 550 l 1,222,-1
 512 550 l 1,223,-1
 442 515 l 1,224,225
 447 500 447 500 447 487 c 0,226,227
 447 475 447 475 441 459 c 128,-1,228
 435 443 435 443 425 432 c 128,-1,229
 415 421 415 421 408 424 c 1,230,231
 404 429 404 429 407.5 432 c 0,232,233
 413 436 413 436 417 447 c 0,234,235
 422 459 422 459 422 468 c 0,236,237
 422 476 422 476 421.5 486.5 c 128,-1,238
 421 497 421 497 411.5 515 c 128,-1,239
 402 533 402 533 384 533 c 2,240,-1
 370 533 l 1,91,92
EndSplineSet
Substitution2: "'ss01' Style Set Simple Forms-1" uni0413.simple
Colour: ff00
EndChar

StartChar: uni0413.simple
Encoding: 62739 62739 21
Width: 470
GlyphClass: 2
Flags: W
HStem: -2 13<57.09 120.451> 72 56<22.437 70.1715> 256 14<245.411 286> 397 13<237.015 249.986> 411 13<221.015 233.986> 418 9.5<244.548 265.579> 431 13<221.015 233.986> 455 11<236.545 280.435> 533 17<215 289.124 315 349.35>
VStem: 0 21.5<35.5469 79.8398> 76 80<225.742 530.257> 113 39<80.1484 135.885> 160 36<47.9888 135.371> 214 14<289.029 341.162> 221 13<411.015 423.998 431.015 443.998> 237 13<397.015 409.998> 302 35<436.866 472> 367 25<445.527 514.532>
AnchorPoint: "Yerok" 367.5 575.8 basechar 0
AnchorPoint: "Diacritic" 238 575 basechar 0
LayerCount: 3
Fore
SplineSet
234 438 m 0xff9420
 234 434 231 431 228 431 c 0xff9820
 224 431 221 434 221 438 c 0xff9420
 221 441 224 444 228 444 c 0xff9820
 231 444 234 441 234 438 c 0xff9420
234 418 m 0xff9420
 234 414 231 411 228 411 c 0xff9820
 224 411 221 414 221 418 c 0xff9420
 221 421 224 424 228 424 c 0xff9820
 231 424 234 421 234 418 c 0xff9420
250 404 m 0xff9220
 250 400 247 397 244 397 c 0xff9120
 240 397 237 400 237 404 c 0xff9220
 237 407 240 410 244 410 c 0xff9120
 247 410 250 407 250 404 c 0xff9220
260 467 m 0
 278 467 297 479 297 501 c 0
 297 515 290 527 278 533 c 1
 278 533 235 533 215 533 c 1
 215 533 235 526 247 513 c 0
 260 499 260 489 250 489 c 0
 244 489 241 499 222 515 c 0
 213 523 195 529 176 533 c 1
 169 501 156 431 156 382 c 0xffdaa0
 156 273 187 216 195 125 c 0
 195 119 196 114 196 108 c 0
 196 60 175 39 150 18 c 0
 131 2 110 -2 89 -2 c 0
 32 -2 0 20 0 79 c 0
 0 109 21 128 44 128 c 0
 64 128 78 114 78 98 c 0
 78 82 62 72 48 72 c 0
 34 72 22 80 22 80 c 1
 22 80 21 76 21 71 c 0
 21 57 25 31 51 20 c 0
 63 15 75 12 88 12 c 0
 107 12 127 19 143 35 c 0
 156 48 160 67 160 86 c 0
 160 112 152 136 152 136 c 1
 152 136 151 108 133 80 c 0
 122 62 99 47 84 47 c 0
 82 47 l 0
 82 48 112 57 112 124 c 0xffb020
 112 141 110 163 105 189 c 0
 88 274 76 300 76 382 c 0
 76 431 86 501 92 533 c 1
 75 550 l 1
 457 550 l 1
 387 515 l 1
 387 515 391 502 391 486 c 0
 391 458 370 423 356 423 c 0
 353 423 351 425 351 427 c 0
 351 433 367 445 367 471 c 0
 367 496 357 533 329 533 c 2
 315 533 l 1
 329 524 337 503 337 481 c 0
 337 429 274 377 274 339 c 0xffd1a0
 274 327 280 320 280 320 c 1
 280 320 280 320 279 320 c 0
 275 320 262 321 253 343 c 0
 248 356 250 366 250 366 c 1
 250 366 228 343 228 315 c 0
 228 288 247 270 270 270 c 0
 294 270 311 286 311 308 c 0
 311 326 301 332 301 334 c 0
 301 334 302 334 303 334 c 0
 317 334 323 318 323 303 c 0
 323 273 297 257 268 257 c 0
 237 257 214 281 214 308 c 0
 214 335 222 350 237 370 c 0xff9a60
 244 379 258 396 289 419 c 0
 309 434 309 447 309 447 c 1
 309 447 298 433 281 426 c 0
 268 421 260 419 254 419 c 0
 248 419 244 421 244 424 c 0
 244 433 296 428 301 464 c 0
 301 467 302 469 302 472 c 1
 299 466 276 455 255 455 c 0
 236 455 209 470 209 479 c 0
 209 482 211 484 214 484 c 0xff9920
 221 484 234 467 260 467 c 0
EndSplineSet
Validated: 1
Layer: 2
SplineSet
234 438 m 0,0,1
 234 431 234 431 228 431 c 0,2,3
 221 431 221 431 221 437 c 0,4,5
 221 444 221 444 227.5 444 c 128,-1,6
 234 444 234 444 234 438 c 0,0,1
234 418 m 0,7,8
 234 411 234 411 228 411 c 0,9,10
 221 411 221 411 221 417 c 0,11,12
 221 424 221 424 227.5 424 c 128,-1,13
 234 424 234 424 234 418 c 0,7,8
250 404 m 0,14,15
 250 397 250 397 244 397 c 0,16,17
 237 397 237 397 237 403 c 0,18,19
 237 410 237 410 243.5 410 c 128,-1,20
 250 410 250 410 250 404 c 0,14,15
315 533 m 1,21,22
 337 518 337 518 337 478 c 0,23,24
 337 466 337 466 332 452.5 c 0,25,26
 326 437 326 437 300 396 c 0,27,28
 273 354 273 354 273 341 c 0,29,30
 273 329 273 329 280 320 c 1,31,32
 279 320 279 320 278 320 c 128,-1,33
 276.889 319.852 276.889 319.852 275.805 319.852 c 0,34,35
 262.259 319.852 262.259 319.852 253 343 c 1,36,-1
 250 366 l 1,37,38
 236 352 236 352 233 340 c 128,-1,39
 230 328 230 328 228 316.5 c 128,-1,40
 226 305 226 305 232 295 c 1,41,42
 241 270 241 270 270 270 c 1,43,-1
 286 273 l 1,44,45
 312 285 312 285 312 302 c 128,-1,46
 312 319 312 319 301 333 c 1,47,-1
 303 334 l 1,48,49
 316 334 316 334 321 317 c 128,-1,50
 326 300 326 300 320 287 c 1,51,52
 314 270 314 270 288 260 c 0,53,54
 278 256 278 256 267 256 c 0,55,56
 255 256 255 256 244 262 c 0,57,58
 214 278 214 278 214 308 c 0,59,60
 214 364 214 364 289 419 c 0,61,62
 307 432 307 432 309 447 c 1,63,64
 299 434 299 434 280 426 c 128,-1,65
 261 418 261 418 254 418 c 0,66,67
 246 418 246 418 244.5 422 c 128,-1,68
 243 426 243 426 248 427.5 c 128,-1,69
 253 429 253 429 261 431 c 128,-1,70
 269 433 269 433 278 436 c 0,71,72
 301 445 301 445 301 464 c 0,73,74
 301 467 301 467 302 468 c 0,75,76
 302 470 302 470 302 472 c 1,77,78
 298 465 298 465 282 460 c 128,-1,79
 266 455 266 455 257 455 c 0,80,81
 220 456 220 456 210 477 c 0,82,83
 208 481 208 481 211 483 c 0,84,85
 215 486 215 486 229 476 c 128,-1,86
 243 466 243 466 259 466 c 0,87,88
 288 467 288 467 296 491 c 0,89,90
 300 504 300 504 294.5 516 c 128,-1,91
 289 528 289 528 278 533 c 1,92,-1
 215 533 l 1,93,94
 235 526 235 526 249.5 510 c 128,-1,95
 264 494 264 494 254 490 c 1,96,97
 252 490 252 490 249 489 c 128,-1,98
 246 488 246 488 239 498 c 0,99,100
 232 507 232 507 221 516.5 c 128,-1,101
 210 526 210 526 176 533 c 1,102,103
 156 442 156 442 156 381.5 c 128,-1,104
 156 321 156 321 176 232 c 128,-1,105
 196 143 196 143 196 111 c 0,106,107
 196 78 196 78 185.5 58.5 c 0,108,109
 177 43 177 43 150 19 c 0,110,111
 126 -2 126 -2 88 -2 c 0,112,113
 74 -2 74 -2 59 0 c 0,114,115
 0 10 0 10 0 79 c 0,116,117
 0 106 0 106 16 117 c 128,-1,118
 32 128 32 128 41 128 c 128,-1,119
 50 128 50 128 56 126 c 0,120,121
 74 120 74 120 78 104 c 0,122,123
 81 89 81 89 70.5 80.5 c 128,-1,124
 60 72 60 72 48 72 c 128,-1,125
 36 72 36 72 22 80 c 1,126,127
 23 78 23 78 21.5 68 c 128,-1,128
 20 58 20 58 27.5 42.5 c 128,-1,129
 35 27 35 27 53 19 c 128,-1,130
 71 11 71 11 95 11 c 128,-1,131
 119 11 119 11 140 32 c 0,132,133
 160 52 160 52 160 91 c 0,134,135
 160 106 160 106 157 118 c 2,136,-1
 152 136 l 1,137,138
 151 108 151 108 138 87.5 c 128,-1,139
 125 67 125 67 110 57 c 128,-1,140
 95 47 95 47 84 47 c 0,141,142
 82 47 82 47 85 49 c 0,143,144
 113 66 113 66 113 121 c 0,145,146
 113 155 113 155 100 215 c 0,147,148
 90 261 90 261 82 301 c 0,149,150
 76 326 76 326 76 388 c 0,151,152
 76 448 76 448 92 533 c 1,153,-1
 75 550 l 1,154,-1
 457 550 l 1,155,-1
 387 515 l 1,156,157
 392 500 392 500 392 487 c 0,158,159
 392 475 392 475 386 459 c 128,-1,160
 380 443 380 443 370 432 c 128,-1,161
 360 421 360 421 353 424 c 1,162,163
 349 429 349 429 352.5 432 c 0,164,165
 358 436 358 436 362 447 c 0,166,167
 367 459 367 459 367 468 c 0,168,169
 367 476 367 476 366.5 486.5 c 128,-1,170
 366 497 366 497 356.5 515 c 128,-1,171
 347 533 347 533 329 533 c 2,172,-1
 315 533 l 1,21,22
EndSplineSet
Colour: ff00
EndChar

StartChar: uni0414
Encoding: 1044 1044 22
Width: 530
Flags: W
HStem: -105 5<448 450.037> 0 12<96.8484 119.812 149 359 435 455> 42 32.5<71.1797 90.6992> 408 31<224.126 251.815> 420 9<288.248 323.312> 443 12<290.035 334.997> 470 11<246.385 325.672> 488 10<263.001 273.999> 503 10<254.001 264.999 273.962 305.87> 517 10<262.001 272.999> 538 12<333 359 435 461> 644 10<250.289 285.307>
VStem: 46 23<-88.3708 -23.2815 24.312 42> 140 64<53.3289 234.719> 210 14<436 453.93> 225 11<592.953 630.653> 254 11<503.011 512.999> 263 11<488.011 497.999 517.02 526.94> 276 11<557.909 584.344> 359 76<12 418 437 461.855 465 490.931 495 538> 457 23.0385<-86.1807 -23.1897>
AnchorPoint: "Yerok" 399 587.2 basechar 0
AnchorPoint: "Diacritic" 400 588 basechar 0
LayerCount: 3
Fore
SplineSet
273 522 m 0xcc739c
 273 519 271 517 268 517 c 0
 265 517 262 519 262 522 c 0
 262 525 265 527 268 527 c 0
 271 527 273 525 273 522 c 0xcc739c
265 508 m 0xccf3dc
 265 505 263 503 260 503 c 0
 257 503 254 505 254 508 c 0
 254 511 257 513 260 513 c 0
 263 513 265 511 265 508 c 0xccf3dc
274 493 m 0xcd73bc
 274 490 271 488 268 488 c 0xce73bc
 265 488 263 490 263 493 c 0xcd73bc
 263 496 265 498 268 498 c 0xce73bc
 271 498 274 496 274 493 c 0xcd73bc
206 115 m 0
 206 61 186 29 149 12 c 1
 359 12 l 1
 359 418 l 1
 338 390 282 349 244 281 c 1
 209 216 205 178 205 145 c 0
 205 135 206 125 206 115 c 0
270 654 m 0
 291 654 304 640 304 620 c 0
 304 613 302 608 296 605 c 0
 290 603 302 611 293 629 c 0
 288 639 280 644 268 644 c 0
 251 644 236 631 236 612 c 0
 236 582 280 548 280 548 c 2
 280 548 276 554 276 566 c 0
 276 585 288 587 288 587 c 1
 288 587 287 581 288 572 c 0
 292 543 334 503 359 495 c 1
 359 538 l 1
 333 538 l 1
 333 550 l 1
 461 550 l 1
 461 538 l 1
 435 538 l 1
 435 12 l 1
 525 12 l 1
 474 -23 l 1
 474 -23 480 -28 480 -45 c 0xed779d
 480 -51 479 -59 477 -69 c 0
 472 -92 456 -104 450 -104 c 0
 449 -104 447 -103 447 -102 c 0xed739e
 447 -99 457 -93 457 -58 c 0
 457 -23 444 0 396 0 c 2
 130 0 l 2
 82 0 69 -23 69 -58 c 0xed779d
 69 -93 79 -99 79 -102 c 0xed7b9c
 79 -103 77 -104 76 -104 c 0
 70 -104 54 -92 49 -69 c 0
 47 -59 46 -51 46 -45 c 0
 46 -28 52 -23 52 -23 c 2
 0 12 l 1
 68 12 l 1
 56 22 50 36 50 52 c 0
 50 69 59 77 70 77 c 0
 81 77 91 70 91 63 c 0
 91 44 78 42 74 42 c 0
 71 42 l 1
 71 23 86 13 102 13 c 0
 110 13 118 15 125 20 c 0
 140 31 142 62 142 62 c 1
 142 62 135 55 128 50 c 0
 119 44 109 46 109 46 c 1
 109 46 129 58 138 84 c 0
 141 91 141 101 141 113 c 0
 141 118 141 124 141 131 c 0
 141 160 143 197 162 236 c 0
 197 308 283 363 333 409 c 1
 332 411 318 418 317 418 c 0
 311 421 305 422 301 422 c 0
 296 422 293 420 290 420 c 0
 289 420 288 421 288 424 c 0
 288 427 294 429 302 429 c 0xdd779c
 307 429 313 428 319 427 c 0
 328 425 342 417 342 417 c 1
 348 423 350 424 354 428 c 1
 349 432 340 438 328 441 c 0
 312 445 290 442 290 448 c 0
 290 451 299 454 312 454 c 0
 330 454 352 444 359 437 c 1
 359 453 l 1
 345 463 302 470 286 470 c 0
 260 470 224 460 224 436 c 1
 224 436 230 439 237 439 c 0
 244 439 252 436 252 421 c 0
 252 411 245 407 237 407 c 0
 222 407 210 416 210 432 c 0
 210 465 247 482 282 482 c 0
 307 482 343 476 359 465 c 1
 359 479 l 1
 348 485 337 491 334 493 c 0
 311 505 273 500 273 507 c 0
 273 510 279 512 284 512 c 0xed779c
 297 512 316 506 316 506 c 1
 316 506 227 560 227 600 c 0
 227 604 226 608 226 611 c 0
 226 622 229 633 236 641 c 0
 245 650 258 654 270 654 c 0
EndSplineSet
Validated: 1
Layer: 2
SplineSet
273 522 m 128,-1,1
 273 517 273 517 268 517 c 0,2,3
 262 517 262 517 262 522 c 128,-1,4
 262 527 262 527 267.5 527 c 128,-1,0
 273 527 273 527 273 522 c 128,-1,1
265 508 m 128,-1,6
 265 503 265 503 260 503 c 0,7,8
 254 503 254 503 254 508 c 128,-1,9
 254 513 254 513 259.5 513 c 128,-1,5
 265 513 265 513 265 508 c 128,-1,6
274 493 m 128,-1,11
 274 488 274 488 268 488 c 0,12,13
 263 488 263 488 263 493 c 128,-1,14
 263 498 263 498 268.5 498 c 128,-1,10
 274 498 274 498 274 493 c 128,-1,11
204 151 m 1,15,-1
 204 119 l 2,16,17
 204 104 204 104 204 86 c 0,18,19
 204 38 204 38 149 12 c 1,20,-1
 359 12 l 1,21,-1
 359 418 l 1,22,23
 272 331 272 331 246 283 c 0,24,25
 204 208 204 208 204 151 c 1,15,-1
474 -23 m 1,26,27
 480 -29 480 -29 480 -44 c 0,28,29
 480.038 -45.2692 480.038 -45.2692 480.038 -46.5266 c 0,30,31
 480.038 -77.9615 480.038 -77.9615 456 -102 c 0,32,33
 453 -105 453 -105 451 -105 c 0,34,35
 450 -105 450 -105 448 -102.5 c 128,-1,36
 446 -100 446 -100 448 -100 c 128,-1,37
 450 -100 450 -100 453.5 -87 c 128,-1,38
 457 -74 457 -74 457 -54 c 0,39,40
 455 0 455 0 396 0 c 2,41,-1
 130 0 l 2,42,43
 69 0 69 0 69 -54 c 0,44,45
 69 -72 69 -72 69 -72 c 0,46,47
 69 -85 69 -85 75 -95 c 128,-1,48
 81 -105 81 -105 77 -105 c 0,49,50
 74 -105 74 -105 70 -102 c 0,51,52
 56 -92 56 -92 51 -73 c 0,53,54
 46 -52 46 -52 46 -42 c 0,55,56
 45 -32 45 -32 52 -23 c 1,57,-1
 1 12 l 1,58,-1
 68 12 l 1,59,60
 50 28 50 28 50 50 c 0,61,62
 50 71 50 71 61.5 75 c 128,-1,63
 73 79 73 79 82.5 74.5 c 128,-1,64
 92 70 92 70 91 60 c 0,65,66
 89 42 89 42 74 42 c 0,67,68
 73 42 73 42 71 42 c 1,69,70
 71 12 71 12 106 12 c 0,71,72
 114 12 114 12 120 16 c 0,73,74
 138 28 138 28 142 62 c 1,75,76
 126 46 126 46 113 46 c 0,77,78
 111 46 111 46 109 46 c 1,79,80
 140 65 140 65 140 111 c 1,81,-1
 140 132 l 1,82,83
 140 192 140 192 159 230 c 128,-1,84
 178 268 178 268 206.5 298 c 128,-1,85
 235 328 235 328 279 364 c 128,-1,86
 323 400 323 400 333 409 c 1,87,88
 328 414 328 414 318 418 c 128,-1,89
 308 422 308 422 300.5 421.5 c 128,-1,90
 293 421 293 421 291.5 420 c 128,-1,91
 290 419 290 419 288 423 c 1,92,93
 288 429 288 429 299.5 429 c 128,-1,94
 311 429 311 429 319 427 c 1,95,-1
 342 417 l 1,96,97
 345 420 345 420 348.5 423 c 128,-1,98
 352 426 352 426 354 428 c 1,99,100
 337 441 337 441 312 443 c 0,101,102
 290 445 290 445 290 447 c 0,103,104
 289 456 289 456 304 455 c 0,105,106
 320 454 320 454 335 449 c 0,107,108
 352 444 352 444 359 437 c 1,109,-1
 359 453 l 1,110,111
 349 460 349 460 324 465 c 128,-1,112
 299 470 299 470 292 470 c 0,113,114
 288 470 288 470 283 470 c 0,115,116
 225 470 225 470 224 436 c 1,117,118
 228 440 228 440 237 439 c 0,119,120
 252 438 252 438 252 420 c 0,121,122
 252 403 252 403 231 408 c 128,-1,123
 210 413 210 413 210 432 c 0,124,125
 210 452 210 452 229 467 c 0,126,127
 247 481 247 481 291 481 c 128,-1,128
 335 481 335 481 359 465 c 1,129,-1
 359 479 l 1,130,131
 337 491 337 491 333.5 493 c 128,-1,132
 330 495 330 495 325.5 496.5 c 128,-1,133
 321 498 321 498 316.5 499 c 128,-1,134
 312 500 312 500 307 500.5 c 128,-1,135
 302 501 302 501 294 502 c 128,-1,136
 286 503 286 503 279.5 503 c 128,-1,137
 273 503 273 503 273 507 c 1,138,139
 276 511 276 511 285 511 c 0,140,141
 293 511 293 511 306 508 c 2,142,-1
 316 506 l 1,143,144
 286 524 286 524 256 554 c 0,145,146
 225 585 225 585 225 607 c 0,147,148
 225 630 225 630 237 642 c 128,-1,149
 249 654 249 654 268 654 c 128,-1,150
 287 654 287 654 296 644 c 1,151,152
 303 634 303 634 304 622.5 c 128,-1,153
 305 611 305 611 296 605 c 0,154,155
 293 603 293 603 295 608 c 0,156,157
 298 613 298 613 297 616 c 128,-1,158
 296 619 296 619 295.5 622.5 c 128,-1,159
 295 626 295 626 293 629 c 0,160,161
 286 644 286 644 270.5 644 c 0,162,163
 254 644 254 644 245 635 c 128,-1,164
 236 626 236 626 236 613 c 128,-1,165
 236 600 236 600 246.5 584 c 128,-1,166
 257 568 257 568 268 558 c 2,167,-1
 280 548 l 1,168,169
 276 554 276 554 276 568.5 c 128,-1,170
 276 583 276 583 288 587 c 1,171,172
 287 582 287 582 287 579 c 0,173,174
 289 553 289 553 313 528 c 0,175,176
 339 501 339 501 359 495 c 1,177,-1
 359 538 l 1,178,-1
 333 538 l 1,179,-1
 333 550 l 1,180,-1
 461 550 l 1,181,-1
 461 538 l 1,182,-1
 435 538 l 1,183,-1
 435 12 l 1,184,-1
 525 12 l 1,185,-1
 474 -23 l 1,26,27
EndSplineSet
Substitution2: "'ss01' Style Set Simple Forms-1" uni0414.simple
Colour: ff00
EndChar

StartChar: uni0415
Encoding: 1045 1045 23
Width: 475
Flags: W
HStem: -5.14286 13.1429<121.099 169.005 190 264.921> 47 1<138.938 139> 72 56<77.437 125.172> 132 13<125.014 137.985> 134.5 32.5<411.4 430.979> 152 13<125.014 137.985> 166 13<109.014 121.985> 196 13<379.776 420.795> 242 40.5<305.188 333> 269 14<38 78.5889> 309 19<270.412 334.45> 380 21<313.226 345.019> 535 16<249.776 324.439>
VStem: 0.972973 11.027<214.577 251.112> 55 21.5<36.1052 79.8398> 96 14<197.299 250.073> 109 13<166.002 178.987> 123 76<268.295 473.455> 125 13<132.002 144.987 152.002 164.987> 177 30<86.229 135.291> 215 35<47.3577 135.326> 273 65<404.312 465.315> 305 57<23.3745 180.844 244.308 281.613> 342 20<281.185 301.586> 364 46<408.79 514.546> 411 30<134.642 166.1> 431 22<167 188.109>
AnchorPoint: "Yerok" 383.5 574.4 basechar 0
AnchorPoint: "Diacritic" 275 575 basechar 0
LayerCount: 3
Fore
SplineSet
125 139 m 0xd27c5180
 125 142 128 145 132 145 c 0
 135 145 138 142 138 139 c 0
 138 135 135 132 132 132 c 0
 128 132 125 135 125 139 c 0xd27c5180
125 159 m 0
 125 162 128 165 132 165 c 0
 135 165 138 162 138 159 c 0
 138 155 135 152 132 152 c 0xca7c5180
 128 152 125 155 125 159 c 0
109 173 m 0xc67d1180
 109 176 112 179 116 179 c 0
 119 179 122 176 122 173 c 0
 122 169 119 166 116 166 c 0
 112 166 109 169 109 173 c 0xc67d1180
56 282 m 0xd2fe1180
 87 282 110 258 110 231 c 0
 110 204 102 189 87 169 c 0
 80 160 68 151 61 145 c 0
 53 137 50 129 50 129 c 1
 50 129 61 143 78 150 c 0
 91 155 99 157 105 157 c 0
 111 157 115 155 115 151 c 0
 115 143 84 147 59 123 c 0
 53 117 47 99 47 99 c 1
 46 100 27 109 27 129 c 0
 27 160 50 175 50 200 c 0
 50 212 44 219 44 219 c 1
 44 219 44 219 45 219 c 0
 49 219 62 218 71 196 c 0
 76 183 74 173 74 173 c 1
 74 173 96 196 96 224 c 0
 96 251 77 269 54 269 c 0
 30 269 13 253 13 231 c 0
 13 213 23 207 23 205 c 0
 23 205 22 205 21 205 c 0
 7 205 1 221 1 236 c 0
 1 266 27 282 56 282 c 0xd2fe1180
361 277 m 0xe27c9580
 361 255 343 242 325 242 c 0
 314 242 305 247 305 260 c 0xe37c9580
 305 280 315 285 325 285 c 0
 333 285 342 281 342 281 c 1xe37c1380
 342 300 323 309 304 309 c 0
 257 309 237 263 230 238 c 1
 241 204 250 169 250 125 c 0
 250 56 228 31 190 8 c 1
 196 8 203 8 209 8 c 0
 212 8 215 8 218 8 c 0
 245 8 267 9 281 20 c 0
 301 36 305 50 305 67 c 0
 305 81 302 97 302 116 c 0
 302 124 302 132 304 141 c 0
 311 180 354 209 403 209 c 0
 432 209 452 185 452 158 c 0
 452 141 444 132 432 132 c 0xd37c1580
 421 132 411 139 411 146 c 0
 411 165 424 167 428 167 c 0
 431 167 l 1
 431 186 416 195 400 195 c 0
 392 195 384 193 377 189 c 0
 361 180 360 147 360 147 c 1
 360 147 367 154 374 159 c 0
 383 165 393 163 393 163 c 1
 393 163 373 151 364 125 c 0
 362 119 361 114 361 108 c 0
 361 96 364 85 364 71 c 0
 364 63 363 54 359 44 c 0
 344 5 265 -5 198 -5 c 0
 114 -5 55 -4 55 79 c 0
 55 109 76 128 99 128 c 0
 119 128 133 114 133 98 c 0
 133 82 117 72 103 72 c 0
 89 72 77 80 77 80 c 1
 77 80 76 76 76 71 c 0
 76 57 80 31 106 20 c 0
 118 15 130 12 143 12 c 0
 162 12 182 19 198 35 c 0
 211 48 215 67 215 86 c 0
 215 112 207 136 207 136 c 1
 207 136 206 108 188 80 c 0
 177 62 154 47 139 47 c 0
 138 47 l 0
 138 49 176 58 176 115 c 0xe27c7580
 176 134 172 158 160 189 c 0
 125 282 123 300 123 382 c 0
 123 467 173 545 256 550 c 0
 267 551 277 551 287 551 c 0
 366 551 410 528 410 448 c 0
 410 408 373 380 332 380 c 0
 301 380 273 395 273 426 c 0
 273 449 289 466 306 466 c 0
 324 466 338 456 338 438 c 0xe27c9980
 338 436 338 433 337 430 c 0
 332 402 313 401 313 401 c 1
 313 401 362 401 364 451 c 0
 364 453 364 455 364 457 c 0
 364 501 342 535 284 535 c 0
 280 535 275 534 270 534 c 0
 215 529 199 433 199 384 c 0
 199 339 210 303 221 267 c 1
 233 301 266 328 310 328 c 0
 340 328 361 303 361 277 c 0xe27c9580
EndSplineSet
Validated: 1
Layer: 2
SplineSet
125 139 m 0,0,1
 125 145 125 145 131 145 c 0,2,3
 138 145 138 145 138 139 c 0,4,5
 138 132 138 132 131.5 132 c 128,-1,6
 125 132 125 132 125 139 c 0,0,1
125 159 m 0,7,8
 125 165 125 165 131 165 c 0,9,10
 138 165 138 165 138 159 c 0,11,12
 138 152 138 152 131.5 152 c 128,-1,13
 125 152 125 152 125 159 c 0,7,8
109 173 m 0,14,15
 109 179 109 179 115 179 c 0,16,17
 122 179 122 179 122 173 c 0,18,19
 122 166 122 166 115.5 166 c 128,-1,20
 109 166 109 166 109 173 c 0,14,15
38 266 m 1,21,22
 12 254 12 254 12 237 c 128,-1,23
 12 220 12 220 23 206 c 1,24,-1
 21 205 l 1,25,26
 7 205 7 205 3 222 c 0,27,28
 1 229 1 229 1 237 c 0,29,30
 0.972973 237.757 0.972973 237.757 0.972973 238.503 c 0,31,32
 0.972973 265.378 0.972973 265.378 36 279 c 0,33,34
 46 283 46 283 58 283 c 0,35,36
 70 282 70 282 80 277 c 0,37,38
 110 262 110 262 110 232 c 0,39,40
 110 200 110 200 87 169 c 0,41,42
 84 165 84 165 61 145 c 1,43,-1
 50 129 l 1,44,45
 60 142 60 142 79 150 c 128,-1,46
 98 158 98 158 105 158 c 128,-1,47
 112 158 112 158 114 154 c 128,-1,48
 116 150 116 150 113 148.5 c 128,-1,49
 110 147 110 147 92 142.5 c 128,-1,50
 74 138 74 138 59 123 c 1,51,-1
 47 99 l 1,52,53
 26 108 26 108 26 126 c 128,-1,54
 26 144 26 144 38 166.5 c 128,-1,55
 50 189 50 189 50 200 c 128,-1,56
 50 211 50 211 44 219 c 1,57,58
 45 219 45 219 46 219 c 128,-1,59
 47.1111 219.148 47.1111 219.148 48.1948 219.148 c 0,60,61
 61.7407 219.148 61.7407 219.148 71 196 c 1,62,-1
 74 173 l 1,63,64
 88 187 88 187 91 199 c 128,-1,65
 94 211 94 211 96 222.5 c 128,-1,66
 98 234 98 234 92 244 c 1,67,68
 83 269 83 269 54 269 c 1,69,-1
 38 266 l 1,21,22
313 401 m 1,70,71
 364 401 364 401 364 467 c 0,72,73
 364 494 364 494 344 514 c 0,74,75
 323 535 323 535 284 535 c 0,76,77
 277 535 277 535 264 533 c 0,78,79
 250 531 250 531 236 516 c 0,80,81
 221 500 221 500 210 464 c 128,-1,82
 199 428 199 428 199 384 c 0,83,84
 199 339 199 339 221 267 c 1,85,86
 230 294 230 294 254 311 c 128,-1,87
 278 328 278 328 306 328 c 0,88,89
 333 328 333 328 348 311 c 0,90,91
 362 295 362 295 362 285 c 128,-1,92
 362 275 362 275 361 271 c 0,93,94
 354 246 354 246 335 243 c 0,95,96
 329 242 329 242 323 242 c 0,97,98
 305 240 305 240 305 267 c 0,99,100
 305 277 305 277 314.5 282.5 c 128,-1,101
 324 288 324 288 333 284 c 2,102,-1
 342 281 l 1,103,104
 342 309 342 309 302 309 c 0,105,106
 290 310 290 310 278 304 c 0,107,108
 242 286 242 286 230 238 c 1,109,110
 250 176 250 176 250 129 c 128,-1,111
 250 82 250 82 237 55 c 128,-1,112
 224 28 224 28 190 8 c 1,113,-1
 216 8 l 2,114,115
 294 8 294 8 304 54 c 0,116,117
 306 63 306 63 306 71 c 2,118,-1
 301 112 l 1,119,120
 301 124 301 124 304 140 c 0,121,122
 310 171 310 171 338 190 c 128,-1,123
 366 209 366 209 396 209 c 0,124,125
 424 209 424 209 439 192 c 0,126,127
 453 176 453 176 453 167 c 0,128,129
 452 138 452 138 441 134 c 0,130,131
 429 130 429 130 419.5 134.5 c 128,-1,132
 410 139 410 139 411 148 c 0,133,134
 413 167 413 167 428 167 c 0,135,136
 429 167 429 167 431 167 c 1,137,138
 431 196 431 196 395 196 c 0,139,140
 387 196 387 196 381 192 c 0,141,142
 362 179 362 179 360 156 c 2,143,-1
 360 147 l 1,144,145
 376 163 376 163 389 163 c 0,146,147
 391 163 391 163 393 163 c 1,148,149
 362 144 362 144 362 102 c 1,150,-1
 362 72 l 2,151,152
 362 56 362 56 359 44 c 0,153,154
 353 18 353 18 302 6 c 0,155,156
 257 -5 257 -5 217 -5 c 0,157,158
 211.714 -5.14286 211.714 -5.14286 205.878 -5.14286 c 0,159,160
 170.857 -5.14286 170.857 -5.14286 116 0 c 1,161,162
 55 8 55 8 55 79 c 0,163,164
 55 106 55 106 71 117 c 128,-1,165
 87 128 87 128 96 128 c 128,-1,166
 105 128 105 128 111 126 c 0,167,168
 129 120 129 120 132 104 c 0,169,170
 136 89 136 89 125.5 80.5 c 128,-1,171
 115 72 115 72 103 72 c 128,-1,172
 91 72 91 72 77 80 c 1,173,174
 78 78 78 78 76.5 68 c 128,-1,175
 75 58 75 58 82.5 42.5 c 128,-1,176
 90 27 90 27 108 19 c 128,-1,177
 126 11 126 11 150 11 c 128,-1,178
 174 11 174 11 195 32 c 0,179,180
 215 52 215 52 215 91 c 0,181,182
 215 106 215 106 212 118 c 2,183,-1
 207 136 l 1,184,185
 206 108 206 108 193 87.5 c 128,-1,186
 180 67 180 67 165 57 c 128,-1,187
 150 47 150 47 139 47 c 0,188,189
 137 47 137 47 139 48 c 0,190,191
 177 67 177 67 177 105 c 0,192,193
 177 144 177 144 155.5 200.5 c 128,-1,194
 134 257 134 257 128.5 288 c 128,-1,195
 123 319 123 319 123 383.5 c 128,-1,196
 123 448 123 448 159.5 497 c 128,-1,197
 196 546 196 546 256 550 c 0,198,199
 271 551 271 551 284 551 c 0,200,201
 343 551 343 551 372 534 c 0,202,203
 410 511 410 511 410 448 c 0,204,205
 410 411 410 411 376 392 c 0,206,207
 355 380 355 380 337 380 c 0,208,209
 297 380 297 380 280 404 c 0,210,211
 273 414 273 414 273 422 c 0,212,213
 273 431 273 431 274 436 c 0,214,215
 279.818 467.03 279.818 467.03 302.562 467.03 c 0,216,217
 303.273 467.03 303.273 467.03 304 467 c 0,218,219
 337 466 337 466 338 434 c 0,220,221
 338 406 338 406 313 401 c 1,70,71
EndSplineSet
Substitution2: "'ss01' Style Set Simple Forms-1" uni0415.simple
Colour: ff00
EndChar

StartChar: uni0416
Encoding: 1046 1046 24
Width: 600
Flags: W
HStem: 0 12<29.6936 71.605 232 258 334 360 522.418 558.509> 40 32.5<20.0425 39.6992 552.75 571.968> 226.5 6.5<82.8186 94.2461 493.8 509.967> 247 11<82.5188 109 479.174 510.999> 276 10<33.3859 90.8976 492.203 561.669> 296 11<71.0132 81.9879 510.012 520.987> 304 11<86.0945 111.301> 312 11<67.0121 77.9868 514.013 524.988> 324 10<78.0015 88.9987 503.001 513.999> 453 19<182.962 246.116 346 409.471> 538 12<82 108 159 185 232 258 334 360 407 433 484 510>
VStem: -2 22<18.8906 40> 4 38<226.251 251.326> 64 12<386.524 434.852> 71 11<296.013 306.999 313.5 321.827> 78 11<324.011 333.999> 105 16<365.374 380.929> 108 51<483.14 537.937> 258 76<12 332 351 471 474.146 538> 433 51<482.844 538> 471 17<352 382.98> 503 11<324.001 333.989> 510 11<296.001 306.989 313.408 321.75> 515 13<386.166 437.364> 552 42<42.4995 74.3582 228.044 253.326> 572 22<20.1393 42.439>
DStem2: 90 52 162 192 0.0830455 0.996546<-19.8063 163.091>
AnchorPoint: "Yerok" 461.5 576 basechar 0
AnchorPoint: "Diacritic" 299 575 basechar 0
LayerCount: 3
Fore
SplineSet
108 447 m 0xefa0a0
 91 447 76 434 76 413 c 0
 76 385 103 350 103 350 c 1
 103 350 101 357 104 368 c 0
 110 386 121 385 121 385 c 1
 121 385 117 375 117 367 c 0xefa120
 117 345 136 309 156 287 c 1
 204 342 258 351 258 351 c 1
 258 471 l 1
 247 462 229 453 205 453 c 0
 193 453 180 456 165 461 c 0
 113 481 108 517 108 532 c 0
 108 538 l 1
 82 538 l 1
 82 550 l 1
 185 550 l 1
 185 538 l 1
 159 538 l 1
 159 538 159 536 159 533 c 0
 159 520 162 482 200 475 c 0
 208 473 214 473 220 473 c 0
 241 473 252 481 258 486 c 1
 258 538 l 1
 232 538 l 1
 232 550 l 1
 360 550 l 1
 360 538 l 1
 334 538 l 1
 334 486 l 1
 340 481 351 473 372 473 c 0
 378 473 384 473 392 475 c 0
 430 482 433 520 433 533 c 0
 433 538 l 1
 407 538 l 1
 407 550 l 1
 510 550 l 1
 510 538 l 1
 484 538 l 1
 484 538 484 536 484 532 c 0xcf60b1
 484 517 479 481 427 461 c 0
 412 456 399 453 387 453 c 0
 363 453 345 462 334 471 c 1
 334 353 l 1
 334 353 388 344 436 289 c 1
 456 311 475 347 475 369 c 0xcf6024
 475 377 471 387 471 387 c 1
 471 387 482 388 488 370 c 0
 491 359 489 352 489 352 c 1
 489 352 516 387 516 415 c 0
 516 436 501 449 484 449 c 0xcf6030
 468 449 458 440 456 427 c 0
 451 407 465 402 459 402 c 0
 449 402 446 415 446 426 c 0
 446 449 463 459 485 459 c 0
 513 459 528 436 528 411 c 0
 528 370 465 302 465 302 c 2
 465 302 489 317 500 317 c 0
 503 317 506 316 506 313 c 0
 506 306 456 299 445 278 c 1
 449 274 455 265 455 265 c 1
 481 280 506 287 535 287 c 0
 559 287 588 279 588 251 c 0
 588 237 573 226 562 226 c 0
 554 226 548 233 548 243 c 0
 548 256 560 258 567 258 c 0
 572 258 l 1xef602c20
 567 274 550 278 531 278 c 0
 523 278 514 277 506 276 c 0
 497 274 476 267 460 256 c 1
 461 254 466 245 466 245 c 0
 477 253 493 259 508 259 c 0
 513 259 516 258 516 257 c 0
 516 250 492 251 477 242 c 1xdf202c20
 477 242 473 239 470 237 c 1
 476 225 l 2
 477 225 478 226 479 226 c 0
 488 231 497 233 503 233 c 0xef2022
 508 233 510 232 510 229 c 0
 510 223 501 230 483 218 c 2
 483 218 482 217 480 216 c 1
 503 162 497 106 505 84 c 0
 514 58 534 46 534 46 c 1
 534 46 524 44 515 50 c 0
 508 55 501 62 501 62 c 1
 501 62 502 29 518 20 c 0
 525 16 533 14 541 14 c 0
 557 14 572 23 572 42 c 1xef202120
 572 42 571 42 569 42 c 0
 565 42 552 44 552 63 c 0
 552 70 562 77 573 77 c 0
 585 77 593 68 593 51 c 0
 593 24 573 0 544 0 c 0
 495 0 446 31 439 86 c 0
 432 143 436 192 420 239 c 0
 393 317 334 334 334 334 c 1
 334 12 l 1
 360 12 l 1
 360 0 l 1
 232 0 l 1
 232 12 l 1
 258 12 l 1
 258 332 l 1
 258 332 199 315 172 237 c 0
 156 190 160 141 153 84 c 0
 146 29 97 0 48 0 c 0
 19 0 0 22 0 49 c 0
 0 66 7 75 19 75 c 0
 30 75 40 68 40 61 c 0xef302040
 40 42 27 40 23 40 c 0
 20 40 l 1
 20 21 35 12 51 12 c 0
 59 12 67 14 74 18 c 0
 90 27 91 60 91 60 c 1
 91 60 84 53 77 48 c 0
 68 42 58 44 58 44 c 1
 58 44 78 56 87 82 c 0
 96 107 86 143 108 203 c 0
 109 207 112 214 112 214 c 1
 110 215 109 216 109 216 c 2
 91 228 82 221 82 227 c 0
 82 230 84 231 89 231 c 0xef2aa0
 95 231 104 229 113 224 c 0
 114 224 115 223 116 223 c 2
 122 235 l 1
 119 237 115 240 115 240 c 1
 100 248 76 248 76 255 c 0
 76 256 79 257 84 257 c 0
 97 257 115 251 126 243 c 1
 132 254 l 1
 116 264 95 272 86 274 c 0
 78 275 69 276 61 276 c 0
 42 276 25 272 20 256 c 1
 20 256 22 256 25 256 c 0
 32 256 44 254 44 241 c 0
 44 231 38 224 30 224 c 0
 19 224 4 235 4 249 c 0
 4 277 33 285 57 285 c 0
 86 285 111 278 137 263 c 1
 137 263 143 272 147 276 c 1
 134 295 86 306 86 311 c 0
 86 314 89 315 92 315 c 0
 103 315 127 300 127 300 c 1
 127 300 64 368 64 409 c 0
 64 434 79 457 106 457 c 0
 129 457 146 446 146 422 c 0
 146 412 142 403 133 402 c 0
 127 401 141 405 136 425 c 0xefa960
 134 438 124 447 108 447 c 0xefa0a0
510 302 m 0xcf2021
 510 305 512 307 515 307 c 0
 518 307 521 305 521 302 c 0
 521 299 518 296 515 296 c 0
 512 296 510 299 510 302 c 0xcf2021
514 318 m 0xcf202080
 514 321 517 323 520 323 c 0
 523 323 525 321 525 318 c 0
 525 315 523 312 520 312 c 0
 517 312 514 315 514 318 c 0xcf202080
503 329 m 0xcf2022
 503 332 505 334 508 334 c 0
 511 334 514 332 514 329 c 0
 514 326 511 324 508 324 c 0
 505 324 503 326 503 329 c 0xcf2022
82 302 m 0
 82 299 80 296 77 296 c 0
 74 296 71 299 71 302 c 0
 71 305 74 307 77 307 c 0
 80 307 82 305 82 302 c 0
78 318 m 0xcf2420
 78 315 75 312 72 312 c 0
 69 312 67 315 67 318 c 0
 67 321 69 323 72 323 c 0
 75 323 78 321 78 318 c 0xcf2420
89 329 m 0xcf2220
 89 326 87 324 84 324 c 0
 81 324 78 326 78 329 c 0
 78 332 81 334 84 334 c 0
 87 334 89 332 89 329 c 0xcf2220
EndSplineSet
Validated: 1
Layer: 2
SplineSet
89 329 m 128,-1,1
 89 324 89 324 84 324 c 0,2,3
 78 324 78 324 78 329 c 128,-1,4
 78 334 78 334 83.5 334 c 128,-1,0
 89 334 89 334 89 329 c 128,-1,1
78 318 m 0,5,6
 78 312 78 312 72 312 c 0,7,8
 67 312 67 312 67 318 c 0,9,10
 67 323 67 323 72.5 323 c 128,-1,11
 78 323 78 323 78 318 c 0,5,6
82 302 m 0,12,13
 82 296 82 296 77 296 c 0,14,15
 71 296 71 296 71 302 c 0,16,17
 71 307 71 307 76.5 307 c 128,-1,18
 82 307 82 307 82 302 c 0,12,13
503 329 m 128,-1,20
 503 334 503 334 508 334 c 0,21,22
 514 334 514 334 514 329 c 128,-1,23
 514 324 514 324 508.5 324 c 128,-1,19
 503 324 503 324 503 329 c 128,-1,20
514 318 m 0,24,25
 514 323 514 323 520 323 c 0,26,27
 525 323 525 323 525 318 c 0,28,29
 525 312 525 312 519.5 312 c 128,-1,30
 514 312 514 312 514 318 c 0,24,25
510 302 m 0,31,32
 510 307 510 307 515 307 c 0,33,34
 521 307 521 307 521 302 c 0,35,36
 521 296 521 296 515.5 296 c 128,-1,37
 510 296 510 296 510 302 c 0,31,32
445 427 m 0,38,39
 445 458 445 458 488 458 c 0,40,41
 500 458 500 458 513 449 c 0,42,43
 528 439 528 439 528 416 c 0,44,45
 528 375 528 375 482 322 c 2,46,-1
 465 302 l 1,47,-1
 493 315 l 1,48,49
 504 319 504 319 505.5 315.5 c 128,-1,50
 507 312 507 312 504 310 c 128,-1,51
 501 308 501 308 494 306 c 0,52,53
 453 293 453 293 445 278 c 1,54,-1
 455 265 l 1,55,56
 494 288 494 288 541 288 c 128,-1,57
 588 288 588 288 588 249 c 0,58,59
 588 235 588 235 571 227 c 0,60,61
 553 220 553 220 549.5 234 c 128,-1,62
 546 248 546 248 551.5 253.5 c 128,-1,63
 557 259 557 259 572 258 c 1,64,65
 566 278 566 278 531 278 c 128,-1,66
 496 278 496 278 460 256 c 1,67,-1
 466 245 l 1,68,-1
 475 250 l 1,69,70
 490 260 490 260 499 260 c 0,71,72
 509 260 509 260 513 259 c 128,-1,73
 517 258 517 258 515 255 c 128,-1,74
 513 252 513 252 498 249 c 128,-1,75
 483 246 483 246 470 237 c 1,76,-1
 476 225 l 1,77,78
 490 232 490 232 499.5 233 c 128,-1,79
 509 234 509 234 510 230 c 0,80,81
 510 227 510 227 508 226.5 c 128,-1,82
 506 226 506 226 498.5 224.5 c 128,-1,83
 491 223 491 223 486.5 220 c 128,-1,84
 482 217 482 217 480 216 c 1,85,-1
 484 205 l 2,86,87
 497 171 497 171 499.5 131.5 c 128,-1,88
 502 92 502 92 507 76 c 0,89,90
 513 61 513 61 534 46 c 1,91,92
 524 44 524 44 515 50 c 1,93,-1
 501 62 l 1,94,95
 502.5 16.3333 502.5 16.3333 538 14 c 1,96,97
 572 14 572 14 572 42 c 1,98,99
 571 43 571 43 567 42 c 128,-1,100
 563 41 563 41 558 46 c 128,-1,101
 553 51 553 51 552 60.5 c 128,-1,102
 551 70 551 70 560.5 74.5 c 128,-1,103
 570 79 570 79 582 75 c 128,-1,104
 594 71 594 71 594 52 c 128,-1,105
 594 33 594 33 580.5 16.5 c 128,-1,106
 567 0 567 0 536 0 c 128,-1,107
 505 0 505 0 474.5 23 c 0,108,109
 443 47 443 47 439 86 c 0,110,111
 437 106 437 106 434 156 c 0,112,113
 431 207 431 207 419.5 240.5 c 128,-1,114
 408 274 408 274 386.5 297.5 c 128,-1,115
 365 321 365 321 350 328 c 2,116,-1
 334 334 l 1,117,-1
 334 12 l 1,118,-1
 360 12 l 1,119,-1
 360 0 l 1,120,-1
 232 0 l 1,121,-1
 232 12 l 1,122,-1
 258 12 l 1,123,-1
 258 332 l 1,124,125
 251 330 251 330 240.5 325 c 128,-1,126
 230 320 230 320 207 296 c 128,-1,127
 184 272 184 272 174.5 244 c 128,-1,128
 165 216 165 216 162 192 c 128,-1,129
 159 168 159 168 157 136 c 128,-1,130
 155 104 155 104 153 84 c 0,131,132
 148 44 148 44 117.5 21 c 128,-1,133
 87 -2 87 -2 56 -2 c 0,134,135
 27 -2 27 -2 12 15 c 0,136,137
 -2 31 -2 31 -2 40 c 0,138,139
 -1 68 -1 68 12 74 c 1,140,141
 22 77 22 77 31.5 72.5 c 128,-1,142
 41 68 41 68 40 58 c 0,143,144
 38 40 38 40 23 40 c 0,145,146
 22 40 22 40 20 40 c 1,147,148
 20 11 20 11 56 11 c 0,149,150
 64 11 64 11 70 15 c 0,151,152
 89 28 89 28 90 52 c 2,153,-1
 91 60 l 1,154,155
 75 44 75 44 61 44 c 0,156,157
 60 44 60 44 58 44 c 1,158,159
 78 56 78 56 87 82 c 0,160,161
 90 90 90 90 92.5 129.5 c 128,-1,162
 95 169 95 169 108 203 c 2,163,-1
 112 214 l 1,164,165
 97 224 97 224 90 224 c 128,-1,166
 83 224 83 224 82.5 225 c 128,-1,167
 82 226 82 226 82.5 229 c 128,-1,168
 83 232 83 232 92.5 231 c 128,-1,169
 102 230 102 230 107.5 227 c 128,-1,170
 113 224 113 224 116 223 c 1,171,-1
 122 235 l 1,172,173
 110 244 110 244 94 247 c 0,174,175
 79 250 79 250 77 253 c 0,176,177
 74 258 74 258 88 258 c 128,-1,178
 102 258 102 258 117 248 c 1,179,-1
 126 243 l 1,180,-1
 132 254 l 1,181,182
 96 276 96 276 61 276 c 128,-1,183
 26 276 26 276 20 256 c 1,184,185
 21 255 21 255 27.5 256 c 128,-1,186
 34 257 34 257 40 251.5 c 128,-1,187
 46 246 46 246 42 231 c 0,188,189
 38 218 38 218 21 226 c 128,-1,190
 4 234 4 234 4 248 c 0,191,192
 3 286 3 286 51 286 c 0,193,194
 99 285 99 285 137 263 c 1,195,196
 143 272 143 272 147 276 c 1,197,198
 136 292 136 292 98 304 c 0,199,200
 91 306 91 306 88 308 c 0,201,202
 84 310 84 310 86 312 c 0,203,204
 89 315 89 315 95 315 c 0,205,206
 102 315 102 315 118 306 c 2,207,-1
 127 300 l 1,208,209
 104 323 104 323 84 357 c 128,-1,210
 64 391 64 391 64 414 c 128,-1,211
 64 437 64 437 79 447 c 0,212,213
 93 456 93 456 102 456 c 128,-1,214
 111 456 111 456 124 453.5 c 128,-1,215
 137 451 137 451 142.5 439.5 c 128,-1,216
 148 428 148 428 145.5 415 c 0,217,218
 143 401 143 401 133 401 c 0,219,220
 131 401 131 401 135 407 c 0,221,222
 139 414 139 414 136 425 c 1,223,224
 133 442 133 442 118.5 445.5 c 0,225,226
 105 449 105 449 90 441 c 0,227,228
 76 434 76 434 76 419 c 0,229,230
 77 388 77 388 94 362 c 2,231,-1
 103 350 l 1,232,233
 101 357 101 357 105 370 c 128,-1,234
 109 383 109 383 121 385 c 1,235,236
 116 377 116 377 116 365 c 128,-1,237
 116 353 116 353 127.5 329.5 c 128,-1,238
 139 306 139 306 156 287 c 1,239,240
 177 311 177 311 202.5 327 c 128,-1,241
 228 343 228 343 243 347 c 2,242,-1
 258 351 l 1,243,-1
 258 471 l 1,244,245
 237 453 237 453 213 453 c 0,246,247
 188 453 188 453 162 462.5 c 128,-1,248
 136 472 136 472 121.5 491.5 c 128,-1,249
 107 511 107 511 108 524 c 2,250,-1
 108 538 l 1,251,-1
 82 538 l 1,252,-1
 82 550 l 1,253,-1
 185 550 l 1,254,-1
 185 538 l 1,255,-1
 159 538 l 1,256,257
 161 536 161 536 159 530 c 0,258,259
 157 522 157 522 165 502 c 0,260,261
 177 472 177 472 228 472 c 0,262,263
 243 472 243 472 258 486 c 1,264,-1
 258 538 l 1,265,-1
 232 538 l 1,266,-1
 232 550 l 1,267,-1
 360 550 l 1,268,-1
 360 538 l 1,269,-1
 334 538 l 1,270,-1
 334 486 l 1,271,272
 349 473 349 473 365 473 c 128,-1,273
 381 473 381 473 396.5 476 c 128,-1,274
 412 479 412 479 422.5 495 c 128,-1,275
 433 511 433 511 433 524 c 2,276,-1
 433 538 l 1,277,-1
 407 538 l 1,278,-1
 407 550 l 1,279,-1
 510 550 l 1,280,-1
 510 538 l 1,281,-1
 484 538 l 1,282,-1
 484 528 l 1,283,284
 484 515 484 515 473.5 495 c 128,-1,285
 463 475 463 475 433 464 c 0,286,287
 404 453 404 453 380 453 c 0,288,289
 355 453 355 453 334 471 c 1,290,-1
 334 353 l 1,291,292
 388 344 388 344 436 289 c 1,293,294
 453 308 453 308 465 333 c 128,-1,295
 477 358 477 358 475 373 c 1,296,-1
 471 387 l 1,297,298
 482 388 482 388 488 370 c 1,299,-1
 488 352 l 1,300,301
 503 370 503 370 509 387 c 128,-1,302
 515 404 515 404 515 414 c 0,303,304
 515 422 515 422 512.5 430.5 c 128,-1,305
 510 439 510 439 499 445 c 128,-1,306
 488 451 488 451 473.5 447.5 c 128,-1,307
 459 444 459 444 456 427 c 0,308,309
 454 418 454 418 456 411.5 c 128,-1,310
 458 405 458 405 460 404.5 c 128,-1,311
 462 404 462 404 459 403 c 1,312,313
 445 404 445 404 445 427 c 0,38,39
EndSplineSet
Substitution2: "'ss01' Style Set Simple Forms-1" uni0416.simple
Colour: ff00
EndChar

StartChar: uni0417
Encoding: 1047 1047 25
Width: 480
Flags: W
HStem: -91 19<17.7197 38> -3 7<269.663 310.8> 57 27<98.9702 149.461> 121 10<250.001 260.999> 133 11<243.012 253.987 264.155 283.396> 146 11<248.013 258.988> 162 12<240.094 290.123> 191 27<231.218 252.989> 235 66<201.313 245.718> 264 8<256.204 275.833> 322 27<231.218 252.902> 382 11<248.013 258.988> 395 11<243.012 253.987 265.938 281.856> 408 10<250.001 260.999> 427 12<52 78 154 180> 482 8.5<280.142 309.325> 529 21<204.146 315.288>
VStem: -6 14<-59.0471 -11.8639> 36 42.5<-71.7806 -42.041> 78 76<439 499.893> 191 65<272 291.718> 219 12<181.117 194> 243 11<133.011 143.999 148.583 154.034 385.1 390.528 395.013 405.999> 250 11<121.011 130.999 408.011 417.999> 260 9<67.9287 102.047 436.364 470.867> 287 8<422.27 445.52> 317 12<69.7566 83.8691 159.516 199.675 339.625 377.528 457.965 467.339> 384 62<329.995 478.194> 392 72<56.4902 185.206>
DStem2: 36 -3 40 -21 0.20601 0.97855<-16.5703 19.1503>
AnchorPoint: "Yerok" 417 568 basechar 0
AnchorPoint: "Diacritic" 257 575 basechar 0
LayerCount: 3
Fore
SplineSet
261 413 m 0xc8f8f88c
 261 410 259 408 256 408 c 0
 253 408 250 410 250 413 c 0
 250 416 253 418 256 418 c 0
 259 418 261 416 261 413 c 0xc8f8f88c
254 402 m 0xc8f9f82c
 254 399 251 395 248 395 c 0xc8f9f81c
 245 395 243 399 243 402 c 0xc8f9f82c
 243 405 245 406 248 406 c 0xc8f9f81c
 251 406 254 405 254 402 c 0xc8f9f82c
259 388 m 0
 259 385 257 382 254 382 c 0xc8fcf82c
 251 382 248 385 248 388 c 0xc8fcf81c
 248 391 251 393 254 393 c 0xc8fcf82c
 257 393 259 391 259 388 c 0
296 491 m 0
 313 491 324 478 324 462 c 0xc8f9f80e
 324 457 322 452 317 451 c 0xc8f9f80d
 312 450 322 456 315 470 c 0xc8f9f80e
 311 479 304 482 295 482 c 0
 280 482 269 471 269 456 c 0
 269 433 289 415 289 415 c 1
 289 415 287 420 287 430 c 0
 287 446 295 446 295 446 c 1
 295 434 l 1
 295 411 319 402 326 377 c 0
 328 369 330 363 330 356 c 0
 330 347 323 327 322 324 c 1
 320 338 299 365 265 365 c 0
 248 365 231 359 231 345 c 1
 231 345 236 348 242 348 c 0
 248 348 253 345 253 333 c 0
 253 325 247 322 241 322 c 0
 229 322 219 329 219 342 c 0
 219 366 243 377 266 377 c 0
 285 377 305 367 316 352 c 1
 316 355 317 357 317 360 c 0
 317 370 313 379 301 386 c 0
 281 399 262 390 262 397 c 0
 262 400 266 401 271 401 c 0xc8faf84d
 284 401 305 395 305 395 c 2xc8f9f84d
 304 396 261 419 261 455 c 0
 261 476 275 491 296 491 c 0
261 126 m 0
 261 123 259 121 256 121 c 0
 253 121 250 123 250 126 c 0
 250 129 253 131 256 131 c 0xc8f8f88c
 259 131 261 129 261 126 c 0
254 138 m 0xcaf8f82c
 254 135 251 133 248 133 c 0xccf8f81c
 245 133 243 135 243 138 c 0xcaf8f82c
 243 141 245 144 248 144 c 0xccf8f81c
 251 144 254 141 254 138 c 0xcaf8f82c
259 151 m 0
 259 148 257 146 254 146 c 0xc9f8f82c
 251 146 248 148 248 151 c 0xc9f8f81c
 248 154 251 157 254 157 c 0xc9f8f82c
 257 157 259 154 259 151 c 0
224 301 m 0
 240 301 256 289 256 272 c 1
 280 278 326 280 359 322 c 0
 376 343 384 373 384 402 c 0
 384 465 345 529 265 529 c 0
 193 529 154 499 154 439 c 1
 180 439 l 1
 180 427 l 1
 52 427 l 1
 52 439 l 1
 78 439 l 1
 78 481 99 550 265 550 c 0
 345 550 446 535 446 427 c 0xd8f8f98c80
 446 335 414 303 358 277 c 0
 352 274 346 272 340 270 c 1
 409 254 464 196 464 124 c 0
 464 23 358 -4 277 -4 c 0
 239 -4 207 2 194 9 c 0
 153 32 147 57 124 57 c 0
 113 57 99 52 76 39 c 0
 50 25 40 -21 40 -21 c 1
 40 -21 36 -13 36 -3 c 0
 36 4 40 16 40 16 c 1xd8f8fa0c40
 40 16 23 2 14 -14 c 0
 10 -20 8 -28 8 -36 c 0
 8 -54 18 -72 38 -72 c 1
 38 -72 36 -67 36 -61 c 0
 36 -52 40 -42 58 -42 c 0
 71 -42 79 -48 79 -61 c 0
 79 -74 66 -90 43 -90 c 0
 17 -90 -6 -69 -6 -40 c 0
 -6 9 38 40 70 57 c 0
 100 73 128 84 155 84 c 0
 188 84 220 67 256 19 c 0
 264 9 276 5 289 5 c 0
 301 5 314 9 325 13 c 0
 370 31 391 75 391 121 c 0
 391 174 362 230 308 252 c 0
 286 261 268 264 257 264 c 1
 255 248 241 235 224 235 c 0
 205 235 191 250 191 268 c 0xd8f8fc8c40
 191 287 206 301 224 301 c 0
322 215 m 1
 324 212 330 192 330 183 c 0xcaf8f84d
 330 176 328 170 326 162 c 0
 319 137 295 128 295 105 c 1
 295 93 l 1
 295 93 287 93 287 109 c 0
 287 119 289 124 289 124 c 1
 289 124 269 106 269 83 c 0
 269 68 280 57 295 57 c 0
 304 57 311 60 315 69 c 0xeaf8f80e
 322 83 312 89 317 88 c 0xeaf8f80d
 322 87 324 82 324 77 c 0
 324 61 313 48 296 48 c 0xeaf8f80e
 275 48 261 63 261 84 c 0
 261 120 304 143 305 144 c 2xdcf8f80e
 305 144 284 138 271 138 c 0
 266 138 262 139 262 142 c 0
 262 149 281 140 301 153 c 0
 313 160 317 169 317 179 c 0
 317 182 316 184 316 187 c 1
 305 172 285 162 266 162 c 0
 243 162 219 173 219 197 c 0
 219 210 229 217 241 217 c 0
 247 217 253 214 253 206 c 0
 253 194 248 191 242 191 c 0
 236 191 231 194 231 194 c 1xcaf8f84d
 231 180 248 174 265 174 c 0
 299 174 320 201 322 215 c 1
EndSplineSet
Validated: 1
Layer: 2
SplineSet
261 413 m 128,-1,1
 261 408 261 408 256 408 c 0,2,3
 250 408 250 408 250 413 c 128,-1,4
 250 418 250 418 255.5 418 c 128,-1,0
 261 418 261 418 261 413 c 128,-1,1
254 401 m 0,5,6
 254 395 254 395 248 395 c 0,7,8
 243 395 243 395 243 401 c 0,9,10
 243 406 243 406 248.5 406 c 128,-1,11
 254 406 254 406 254 401 c 0,5,6
259 388 m 0,12,13
 259 382 259 382 254 382 c 0,14,15
 248 382 248 382 248 388 c 0,16,17
 248 393 248 393 253.5 393 c 128,-1,18
 259 393 259 393 259 388 c 0,12,13
297 482 m 0,19,20
 269 482 269 482 269 452 c 0,21,22
 269 437 269 437 289 415 c 1,23,-1
 287 430 l 1,24,25
 289 444 289 444 295 446 c 1,26,-1
 295 434 l 1,27,28
 296 423 296 423 313 401 c 0,29,30
 329 380 329 380 329 355 c 0,31,32
 329 349 329 349 328 342 c 2,33,-1
 322 324 l 1,34,35
 318 350 318 350 285 362 c 0,36,37
 279 364 279 364 268 365 c 0,38,39
 231 367 231 367 231 345 c 1,40,41
 238 349 238 349 243 349 c 0,42,43
 253 349 253 349 253 333 c 0,44,45
 253 319 253 319 237 322 c 128,-1,46
 221 325 221 325 219 341 c 0,47,48
 217 358 217 358 231 367 c 0,49,50
 246 377 246 377 272 377 c 128,-1,51
 298 377 298 377 316 352 c 1,52,53
 317 357 317 357 317 360 c 0,54,55
 315 378 315 378 303 385 c 0,56,57
 289 394 289 394 275.5 394 c 128,-1,58
 262 394 262 394 262 398 c 0,59,60
 263 402 263 402 280 401 c 1,61,-1
 305 395 l 1,62,63
 260 418 260 418 260 457 c 0,64,65
 260 472 260 472 269 481 c 128,-1,66
 278 490 278 490 294 490.5 c 128,-1,67
 310 491 310 491 316.5 482 c 128,-1,68
 323 473 323 473 323.5 463.5 c 128,-1,69
 324 454 324 454 317 451 c 0,70,71
 315 451 315 451 317 457 c 128,-1,72
 319 463 319 463 315 470 c 1,73,74
 310 482 310 482 297 482 c 0,19,20
261 126 m 128,-1,76
 261 121 261 121 256 121 c 0,77,78
 250 121 250 121 250 126 c 128,-1,79
 250 131 250 131 255.5 131 c 128,-1,75
 261 131 261 131 261 126 c 128,-1,76
254 138 m 0,80,81
 254 133 254 133 248 133 c 0,82,83
 243 133 243 133 243 138 c 0,84,85
 243 144 243 144 248.5 144 c 128,-1,86
 254 144 254 144 254 138 c 0,80,81
259 151 m 0,87,88
 259 146 259 146 254 146 c 0,89,90
 248 146 248 146 248 151 c 0,91,92
 248 157 248 157 253.5 157 c 128,-1,93
 259 157 259 157 259 151 c 0,87,88
40 16 m 1,94,95
 8 -10 8 -10 8 -33 c 0,96,97
 8 -41 8 -41 11 -50 c 0,98,99
 18 -72 18 -72 38 -72 c 1,100,-1
 36 -60 l 1,101,102
 36 -42 36 -42 55 -42 c 0,103,104
 75 -42 75 -42 78.5 -52.5 c 0,105,106
 82 -64 82 -64 74 -77 c 0,107,108
 65 -91 65 -91 46 -91 c 0,109,110
 26 -91 26 -91 10 -77.5 c 128,-1,111
 -6 -64 -6 -64 -6 -40 c 0,112,113
 -6 18 -6 18 70 57 c 0,114,115
 123 84 123 84 147 84 c 0,116,117
 170 84 170 84 197.5 72 c 0,118,119
 226 59 226 59 256 19 c 0,120,121
 267 4 267 4 285 4 c 0,122,123
 305 4 305 4 324 12 c 0,124,125
 392 40 392 40 392 127 c 0,126,127
 392 152 392 152 378 183 c 0,128,129
 357 233 357 233 308 252 c 0,130,131
 277 264 277 264 257 264 c 1,132,133
 255 251 255 251 246 243 c 128,-1,134
 237 235 237 235 223 235 c 128,-1,135
 209 235 209 235 200 245 c 128,-1,136
 191 255 191 255 191 269 c 128,-1,137
 191 283 191 283 201 292 c 128,-1,138
 211 301 211 301 225 301 c 128,-1,139
 239 301 239 301 247.5 292 c 128,-1,140
 256 283 256 283 256 272 c 1,141,142
 257 272 257 272 276 276 c 0,143,144
 384 297 384 297 384 402 c 0,145,146
 384 469 384 469 336 506 c 0,147,148
 307 529 307 529 265 529 c 0,149,150
 154 529 154 529 154 439 c 1,151,-1
 180 439 l 1,152,-1
 180 427 l 1,153,-1
 52 427 l 1,154,-1
 52 439 l 1,155,-1
 78 439 l 1,156,157
 78 550 78 550 262 550 c 128,-1,158
 446 550 446 550 446 427 c 0,159,160
 446 362 446 362 422 326 c 0,161,162
 398 289 398 289 340 270 c 1,163,164
 393 258 393 258 428.5 217.5 c 128,-1,165
 464 177 464 177 464 124.5 c 128,-1,166
 464 72 464 72 427.5 40.5 c 128,-1,167
 391 9 391 9 349 3 c 0,168,169
 308 -3 308 -3 286 -3 c 128,-1,170
 264 -3 264 -3 237.5 -1.5 c 128,-1,171
 211 -0 211 -0 194 9.5 c 128,-1,172
 177 19 177 19 161.5 33 c 128,-1,173
 146 47 146 47 140 52 c 128,-1,174
 134 57 134 57 121 57 c 0,175,176
 107 57 107 57 86 45 c 0,177,178
 52 26 52 26 43 -9 c 2,179,-1
 40 -21 l 1,180,181
 36 -13 36 -13 36 -3 c 1,182,-1
 40 16 l 1,94,95
231 194 m 1,183,184
 231 174 231 174 267 174 c 0,185,186
 277 173 277 173 285 177 c 0,187,188
 319 194 319 194 322 215 c 1,189,190
 329 199 329 199 329 179 c 128,-1,191
 329 159 329 159 312.5 138 c 128,-1,192
 296 117 296 117 295 105 c 1,193,-1
 295 93 l 1,194,195
 288 93 288 93 287 109 c 1,196,-1
 289 124 l 1,197,198
 269 104 269 104 269 88 c 0,199,200
 269 57 269 57 295 57 c 0,201,202
 310 57 310 57 315 69 c 1,203,204
 320 77 320 77 317 88 c 1,205,206
 324 85 324 85 324 76 c 0,207,208
 324 68 324 68 317 58 c 0,209,210
 310 47 310 47 303 48 c 0,211,212
 277 50 277 50 268 59 c 0,213,214
 258 70 258 70 260.5 87.5 c 128,-1,215
 263 105 263 105 274 118.5 c 128,-1,216
 285 132 285 132 295 138 c 2,217,-1
 305 144 l 1,218,219
 282 137 282 137 273 137 c 0,220,221
 263 137 263 137 262 141 c 128,-1,222
 261 145 261 145 268 145 c 0,223,224
 317 145 317 145 317 179 c 0,225,226
 317 183 317 183 316 187 c 1,227,228
 297 161 297 161 273 162 c 0,229,230
 219 164 219 164 219 196 c 0,231,232
 219 220 219 220 242 218 c 0,233,234
 253 217 253 217 253 204 c 128,-1,235
 253 191 253 191 243 191 c 0,236,237
 238 191 238 191 231 194 c 1,183,184
EndSplineSet
Substitution2: "'ss01' Style Set Simple Forms-1" uni0417.simple
Colour: ff00
EndChar

StartChar: uni0414.simple
Encoding: 62740 62740 26
Width: 530
GlyphClass: 2
Flags: W
HStem: -105 5<449 451.037> 0 12<97.8484 121.812 150 360 436 456> 42 32.5<72.1797 91.6992> 538 12<334 360 436 462>
VStem: 47 23<-88.7981 -23.2815 24.312 42> 141.5 63.5<84.1373 235.719> 360 76<12 418 437 538> 458 23<-90.0469 -23.1897>
AnchorPoint: "Yerok" 400 576.6 basechar 0
AnchorPoint: "Diacritic" 400 576 basechar 0
LayerCount: 3
Fore
SplineSet
207 115 m 0xe6
 207 61 187 29 150 12 c 1
 360 12 l 1
 360 418 l 1
 339 390 283 349 245 281 c 1
 210 216 206 178 206 145 c 0
 206 135 207 125 207 115 c 0xe6
51 52 m 0
 51 69 60 77 71 77 c 0
 82 77 92 70 92 63 c 0
 92 44 79 42 75 42 c 0
 72 42 l 1
 72 23 87 13 103 13 c 0
 111 13 119 15 126 20 c 0
 141 31 143 62 143 62 c 1
 143 62 136 55 129 50 c 0
 120 44 110 46 110 46 c 1
 110 46 130 58 139 84 c 0
 141 90 142 99 142 110 c 0
 142 117 142 126 142 135 c 0
 142 163 144 199 163 236 c 0
 226 359 360 437 360 437 c 1
 360 538 l 1
 334 538 l 1
 334 550 l 1
 462 550 l 1
 462 538 l 1
 436 538 l 1
 436 12 l 1
 526 12 l 1
 475 -23 l 1
 475 -23 481 -28 481 -45 c 0xee80
 481 -51 480 -59 478 -69 c 0
 473 -92 457 -104 451 -104 c 0
 450 -104 448 -103 448 -102 c 0xe7
 448 -99 458 -93 458 -58 c 0
 458 -23 445 0 397 0 c 2
 131 0 l 2
 83 0 70 -23 70 -58 c 0xee80
 70 -93 80 -99 80 -102 c 0xf6
 80 -103 78 -104 77 -104 c 0
 71 -104 55 -92 50 -69 c 0
 48 -59 47 -51 47 -45 c 0xee
 47 -28 53 -23 53 -23 c 2
 0 12 l 1
 69 12 l 1
 57 22 51 36 51 52 c 0
EndSplineSet
Validated: 1
Layer: 2
SplineSet
205 151 m 1,0,-1
 205 119 l 2,1,2
 205 104 205 104 205 86 c 0,3,4
 205 38 205 38 150 12 c 1,5,-1
 360 12 l 1,6,-1
 360 418 l 1,7,8
 273 331 273 331 247 283 c 0,9,10
 205 208 205 208 205 151 c 1,0,-1
475 -23 m 1,11,12
 481 -29 481 -29 481 -44 c 0,13,14
 482 -84 482 -84 458 -102 c 0,15,16
 454 -105 454 -105 452 -105 c 0,17,18
 451 -105 451 -105 449 -102.5 c 128,-1,19
 447 -100 447 -100 449 -100 c 128,-1,20
 451 -100 451 -100 454.5 -87 c 128,-1,21
 458 -74 458 -74 458 -54 c 0,22,23
 456 0 456 0 397 0 c 2,24,-1
 131 0 l 2,25,26
 70 0 70 0 70 -54 c 0,27,28
 70 -72 70 -72 70 -72 c 0,29,30
 70 -85 70 -85 76 -95 c 128,-1,31
 82 -105 82 -105 78 -105 c 128,-1,32
 74 -105 74 -105 70 -102 c 0,33,34
 57 -92 57 -92 52 -73 c 0,35,36
 47 -52 47 -52 47 -42 c 0,37,38
 46 -32 46 -32 53 -23 c 1,39,-1
 2 12 l 1,40,-1
 69 12 l 1,41,42
 51 28 51 28 51 50 c 0,43,44
 51 71 51 71 62.5 75 c 128,-1,45
 74 79 74 79 83.5 74.5 c 128,-1,46
 93 70 93 70 92 60 c 0,47,48
 90 42 90 42 75 42 c 0,49,50
 74 42 74 42 72 42 c 1,51,52
 72 12 72 12 107 12 c 0,53,54
 116 12 116 12 122 16 c 0,55,56
 139 28 139 28 143 62 c 1,57,58
 127 46 127 46 113 46 c 0,59,60
 112 46 112 46 110 46 c 1,61,62
 130 58 130 58 139 84 c 0,63,64
 140 88 140 88 141.5 142.5 c 128,-1,65
 143 197 143 197 167 244 c 128,-1,66
 191 291 191 291 240.5 341 c 128,-1,67
 290 391 290 391 325 414 c 2,68,-1
 360 437 l 1,69,-1
 360 538 l 1,70,-1
 334 538 l 1,71,-1
 334 550 l 1,72,-1
 462 550 l 1,73,-1
 462 538 l 1,74,-1
 436 538 l 1,75,-1
 436 12 l 1,76,-1
 526 12 l 1,77,-1
 475 -23 l 1,11,12
EndSplineSet
Colour: ff00
EndChar

StartChar: uni0415.simple
Encoding: 62741 62741 27
Width: 420
GlyphClass: 2
Flags: W
HStem: -5.14286 13.1429<66.0993 114.005 135 212.607> 47 1<83.9385 84> 72 56<22.437 70.1715> 134.5 32.5<356.4 375.979> 196 13<324.732 365.795> 242 40.5<250.178 278> 309 19<215.412 279.45> 380 21<258.226 290.066> 535 16<194.776 269.51>
VStem: 0 21.5<36.1052 79.8398> 68 76<268.295 473.455> 122 30<86.229 135.291> 160 35<47.3577 135.326> 218 65<404.312 465.638> 250 57<20.9824 181.786 244.308 281.613> 287 20<281.185 301.586> 309 46<417.762 514.546> 356 30<134.642 166.1> 376 22<167 188.109>
AnchorPoint: "Yerok" 333.5 575.4 basechar 0
AnchorPoint: "Diacritic" 226 575 basechar 0
LayerCount: 3
Fore
SplineSet
306 277 m 0xffd580
 306 255 288 242 270 242 c 0
 259 242 250 247 250 260 c 0xffd580
 250 280 260 285 270 285 c 0
 278 285 287 281 287 281 c 1xff9380
 287 300 268 309 249 309 c 0
 202 309 182 263 175 238 c 1
 186 204 195 169 195 125 c 0
 195 56 173 31 135 8 c 1
 142 8 148 8 154 8 c 0
 157 8 160 8 163 8 c 0
 190 8 212 9 226 20 c 0
 246 36 250 50 250 67 c 0
 250 81 247 97 247 116 c 0
 247 124 247 132 249 141 c 0
 256 180 299 209 348 209 c 0
 377 209 397 185 397 158 c 0
 397 141 389 132 377 132 c 0
 366 132 356 139 356 146 c 0
 356 165 369 167 373 167 c 0
 376 167 l 1
 376 186 361 195 345 195 c 0
 337 195 329 193 322 189 c 0
 306 180 305 147 305 147 c 1
 305 147 312 154 319 159 c 0
 328 165 338 163 338 163 c 1
 338 163 318 151 309 125 c 0
 307 119 306 114 306 108 c 0
 306 96 309 85 309 71 c 0
 309 63 308 54 304 44 c 0
 289 5 210 -5 143 -5 c 0
 59 -5 0 -4 0 79 c 0
 0 109 21 128 44 128 c 0
 64 128 78 114 78 98 c 0
 78 82 62 72 48 72 c 0
 34 72 22 80 22 80 c 1
 22 80 21 76 21 71 c 0
 21 57 25 31 51 20 c 0
 63 15 75 12 88 12 c 0
 107 12 127 19 143 35 c 0
 156 48 160 67 160 86 c 0
 160 112 152 136 152 136 c 1
 152 136 151 108 133 80 c 0
 122 62 99 47 84 47 c 0
 83 47 l 0
 83 49 121 58 121 115 c 0xffb580
 121 134 117 158 105 189 c 0
 70 282 68 300 68 382 c 0
 68 467 118 545 201 550 c 0
 212 551 222 551 232 551 c 0
 311 551 355 528 355 448 c 0
 355 408 318 380 277 380 c 0
 246 380 218 395 218 426 c 0
 218 449 234 466 251 466 c 0
 269 466 283 456 283 438 c 0xffd980
 283 436 283 433 282 430 c 0
 277 402 258 401 258 401 c 1
 258 401 307 401 309 451 c 0
 309 453 309 455 309 457 c 0
 309 501 287 535 229 535 c 0
 225 535 220 534 215 534 c 0
 160 529 144 433 144 384 c 0
 144 339 155 303 166 267 c 1
 178 301 211 328 255 328 c 0
 285 328 306 303 306 277 c 0xffd580
EndSplineSet
Validated: 1
Layer: 2
SplineSet
249 467 m 0,0,1
 284 467 284 467 283 434 c 0,2,3
 282 406 282 406 258 401 c 1,4,5
 289 401 289 401 302 426 c 0,6,7
 309 439 309 439 309 466 c 0,8,9
 309 494 309 494 289 514 c 0,10,11
 268 535 268 535 229 535 c 0,12,13
 222 535 222 535 209 533 c 0,14,15
 195 531 195 531 181 516 c 0,16,17
 166 500 166 500 155 464 c 128,-1,18
 144 428 144 428 144 384 c 0,19,20
 144 339 144 339 166 267 c 1,21,22
 175 294 175 294 199 311 c 128,-1,23
 223 328 223 328 251 328 c 0,24,25
 278 328 278 328 293 311 c 0,26,27
 307 295 307 295 307 285 c 128,-1,28
 307 275 307 275 306 271 c 0,29,30
 299 246 299 246 280 243 c 0,31,32
 274 242 274 242 268 242 c 0,33,34
 250 240 250 240 250 267 c 0,35,36
 250 277 250 277 259 282.5 c 128,-1,37
 268 288 268 288 278 284 c 2,38,-1
 287 281 l 1,39,40
 287 309 287 309 247 309 c 0,41,42
 235 310 235 310 223 304 c 0,43,44
 187 286 187 286 175 238 c 1,45,46
 195 176 195 176 195 129 c 128,-1,47
 195 82 195 82 182 55 c 128,-1,48
 169 28 169 28 135 8 c 1,49,-1
 162 8 l 2,50,51
 245 8 245 8 250 54 c 0,52,53
 251 63 251 63 251 71 c 2,54,-1
 246 112 l 1,55,56
 246 124 246 124 249 140 c 0,57,58
 255 171 255 171 282 190 c 0,59,60
 311 209 311 209 341 209 c 0,61,62
 369 209 369 209 384 192 c 0,63,64
 398 176 398 176 398 167 c 0,65,66
 397 138 397 138 386 134 c 0,67,68
 374 130 374 130 364.5 134.5 c 128,-1,69
 355 139 355 139 356 148 c 0,70,71
 358 167 358 167 373 167 c 0,72,73
 374 167 374 167 376 167 c 1,74,75
 376 196 376 196 340 196 c 0,76,77
 332 196 332 196 326 192 c 0,78,79
 307 179 307 179 306 156 c 2,80,-1
 305 147 l 1,81,82
 321 163 321 163 335 163 c 0,83,84
 336 163 336 163 338 163 c 1,85,86
 307 144 307 144 307 102 c 1,87,-1
 307 72 l 2,88,89
 307 56 307 56 304 44 c 0,90,91
 298 18 298 18 247 6 c 0,92,93
 202 -5 202 -5 162 -5 c 0,94,95
 156.714 -5.14286 156.714 -5.14286 150.878 -5.14286 c 0,96,97
 115.857 -5.14286 115.857 -5.14286 61 0 c 1,98,99
 0 8 0 8 0 79 c 0,100,101
 0 106 0 106 16 117 c 128,-1,102
 32 128 32 128 41 128 c 128,-1,103
 50 128 50 128 56 126 c 0,104,105
 74 120 74 120 78 104 c 0,106,107
 81 89 81 89 70.5 80.5 c 128,-1,108
 60 72 60 72 48 72 c 128,-1,109
 36 72 36 72 22 80 c 1,110,111
 23 78 23 78 21.5 68 c 128,-1,112
 20 58 20 58 27.5 42.5 c 128,-1,113
 35 27 35 27 53 19 c 128,-1,114
 71 11 71 11 95 11 c 128,-1,115
 119 11 119 11 140 32 c 0,116,117
 160 52 160 52 160 91 c 0,118,119
 160 106 160 106 157 118 c 2,120,-1
 152 136 l 1,121,122
 151 108 151 108 138 87.5 c 128,-1,123
 125 67 125 67 110 57 c 128,-1,124
 95 47 95 47 84 47 c 0,125,126
 82 47 82 47 84 48 c 0,127,128
 122 67 122 67 122 105 c 0,129,130
 122 144 122 144 100.5 200.5 c 128,-1,131
 79 257 79 257 73.5 288 c 128,-1,132
 68 319 68 319 68 383.5 c 128,-1,133
 68 448 68 448 104.5 497 c 128,-1,134
 141 546 141 546 201 550 c 0,135,136
 216 551 216 551 229 551 c 0,137,138
 288 551 288 551 318 534 c 0,139,140
 355 511 355 511 355 448 c 0,141,142
 355 410 355 410 322 392 c 0,143,144
 300 380 300 380 282 380 c 0,145,146
 242 380 242 380 225 404 c 0,147,148
 218 414 218 414 218 422 c 0,149,150
 218 431 218 431 219 436 c 0,151,152
 225 467 225 467 249 467 c 0,0,1
EndSplineSet
Colour: ff00
EndChar

StartChar: uni0416.simple
Encoding: 62742 62742 28
Width: 600
GlyphClass: 2
Flags: W
HStem: 0 12<32.6423 70.1579 232 258 334 360 531.159 558.299> 42 32.5<20.0425 39.7839 552.332 571.968> 493 57<85.8013 97.8086 494.191 506.199> 493.5 24.5<98.0447 112.281 479.521 493.955> 538 12<232 258 334 360>
VStem: -2 22<20.8906 42> 12 28<42.8696 74.358> 81.5 31<493.61 517.969> 152 47<418.175 534.746> 258 76<12 359 378 388 398 538> 391 49<415.94 533.623> 479 31.5<493.096 517.996> 572 22<20.1393 42.439>
AnchorPoint: "Yerok" 469.5 577 basechar 0
AnchorPoint: "Diacritic" 300 575 basechar 0
LayerCount: 3
Fore
SplineSet
98 492 m 0
 89 492 82 498 82 511 c 0
 82 531 97 550 119 550 c 0
 162 550 192 535 199 501 c 0
 206 467 195 451 213 427 c 0
 228 407 243 401 258 398 c 1
 258 538 l 1
 232 538 l 1
 232 550 l 1
 360 550 l 1
 360 538 l 1
 334 538 l 1
 334 398 l 1
 349 401 364 407 379 427 c 0
 397 451 386 467 393 501 c 0
 400 535 430 550 473 550 c 0
 495 550 510 531 510 511 c 0
 510 498 503 492 494 492 c 0
 487 492 479 496 479 502 c 0
 479 521 494 518 494 518 c 1
 494 532 482 539 470 539 c 0
 464 539 459 538 454 535 c 0
 442 527 441 503 441 503 c 1
 451 513 457 517 466 515 c 1
 466 515 451 506 444 487 c 0
 437 467 443 451 435 432 c 0
 419 395 367 388 334 388 c 1
 334 378 l 1
 334 378 446 304 484 205 c 0
 507 146 496 109 505 84 c 0
 514 58 534 46 534 46 c 1
 534 46 524 44 515 50 c 0
 508 55 501 62 501 62 c 1
 501 62 502 29 518 20 c 0
 525 16 533 14 541 14 c 0
 557 14 572 23 572 42 c 1
 572 42 571 42 569 42 c 0
 565 42 552 44 552 63 c 0
 552 70 562 77 573 77 c 0
 585 77 593 68 593 51 c 0
 593 24 573 0 544 0 c 0
 495 0 446 31 439 86 c 0
 432 143 436 192 420 239 c 0
 393 317 334 359 334 359 c 1
 334 12 l 1
 360 12 l 1
 360 0 l 1
 232 0 l 1
 232 12 l 1
 258 12 l 1
 258 359 l 1
 258 359 199 317 172 239 c 0
 156 192 160 143 153 86 c 0
 146 31 97 0 48 0 c 0
 19 0 0 24 0 51 c 0
 0 68 7 77 19 77 c 0
 30 77 40 70 40 63 c 0
 40 44 27 42 23 42 c 0
 20 42 l 1
 20 23 35 14 51 14 c 0
 59 14 67 16 74 20 c 0
 90 29 91 62 91 62 c 1
 91 62 84 55 77 50 c 0
 68 44 58 46 58 46 c 1
 58 46 78 58 87 84 c 0
 96 109 85 146 108 205 c 0
 146 304 258 378 258 378 c 1
 258 388 l 1
 225 388 173 395 157 432 c 0
 149 451 155 467 148 487 c 0
 141 506 126 515 126 515 c 1
 139 519 147 505 151 503 c 1
 151 503 149 528 137 536 c 0
 132 539 127 540 121 540 c 0
 109 540 98 532 98 518 c 1
 100 516 109 523 113 502 c 1
 113 496 105 492 98 492 c 0
EndSplineSet
Validated: 1
Layer: 2
SplineSet
20 42 m 1,0,1
 20 13 20 13 56 13 c 0,2,3
 64 13 64 13 70 17 c 0,4,5
 89 30 89 30 90 54 c 2,6,-1
 91 62 l 1,7,8
 75 46 75 46 61 46 c 0,9,10
 60 46 60 46 58 46 c 1,11,12
 78 58 78 58 87 84 c 0,13,14
 90 92 90 92 92.5 131.5 c 128,-1,15
 95 171 95 171 110 210 c 128,-1,16
 125 249 125 249 162.5 292.5 c 128,-1,17
 200 336 200 336 229 357 c 2,18,-1
 258 378 l 1,19,-1
 258 388 l 1,20,21
 176 388 176 388 157 432 c 0,22,23
 153 442 153 442 152 459.5 c 128,-1,24
 151 477 151 477 147 490 c 0,25,26
 142 503 142 503 126 515 c 1,27,28
 134 517 134 517 141 512 c 2,29,-1
 151 503 l 1,30,31
 150 527 150 527 138.5 535 c 128,-1,32
 127 543 127 543 112.5 538 c 128,-1,33
 98 533 98 533 98 518 c 1,34,35
 99 517 99 517 101.5 518 c 128,-1,36
 104 519 104 519 108 515 c 128,-1,37
 112 511 112 511 112.5 504 c 128,-1,38
 113 497 113 497 106 493.5 c 128,-1,39
 99 490 99 490 91 493 c 128,-1,40
 83 496 83 496 81.5 509 c 128,-1,41
 80 522 80 522 91 536 c 128,-1,42
 102 550 102 550 119 550 c 0,43,44
 190 550 190 550 199 501 c 0,45,46
 201 490 201 490 201 466 c 0,47,48
 201 443 201 443 216 423 c 128,-1,49
 231 403 231 403 258 398 c 1,50,-1
 258 538 l 1,51,-1
 232 538 l 1,52,-1
 232 550 l 1,53,-1
 360 550 l 1,54,-1
 360 538 l 1,55,-1
 334 538 l 1,56,-1
 334 398 l 1,57,58
 361 403 361 403 376 423 c 128,-1,59
 391 443 391 443 391 464 c 2,60,-1
 391 474 l 2,61,62
 391 491 391 491 393 501 c 0,63,64
 403 550 403 550 473 550 c 0,65,66
 490 550 490 550 501 536 c 128,-1,67
 512 522 512 522 510.5 509 c 128,-1,68
 509 496 509 496 501 493 c 128,-1,69
 493 490 493 490 486 493.5 c 0,70,71
 478 497 478 497 479 503 c 0,72,73
 481 518 481 518 490 518 c 2,74,-1
 494 518 l 1,75,76
 494 533 494 533 479.5 538 c 0,77,78
 464 543 464 543 454 535 c 0,79,80
 443 526 443 526 441 503 c 1,81,82
 456 518 456 518 466 515 c 1,83,84
 442 501 442 501 440 460 c 0,85,86
 439 442 439 442 435 432 c 0,87,88
 417 388 417 388 334 388 c 1,89,-1
 334 378 l 1,90,91
 348 370 348 370 371 350 c 0,92,93
 455 278 455 278 480 215 c 0,94,95
 498 169 498 169 500 132 c 0,96,97
 502 92 502 92 507 76 c 0,98,99
 513 61 513 61 534 46 c 1,100,101
 524 44 524 44 515 50 c 1,102,-1
 501 62 l 1,103,104
 512 25 512 25 538 14 c 1,105,106
 572 14 572 14 572 42 c 1,107,108
 571 43 571 43 567 42 c 128,-1,109
 563 41 563 41 558 46 c 128,-1,110
 553 51 553 51 552 60.5 c 128,-1,111
 551 70 551 70 560.5 74.5 c 128,-1,112
 570 79 570 79 582 75 c 128,-1,113
 594 71 594 71 594 52 c 128,-1,114
 594 33 594 33 580.5 16.5 c 128,-1,115
 567 0 567 0 536 0 c 128,-1,116
 505 0 505 0 474.5 23 c 0,117,118
 443 47 443 47 439 86 c 0,119,120
 437 106 437 106 434 156 c 0,121,122
 431 207 431 207 419.5 240.5 c 128,-1,123
 408 274 408 274 386.5 304 c 128,-1,124
 365 334 365 334 350 346 c 2,125,-1
 334 359 l 1,126,-1
 334 12 l 1,127,-1
 360 12 l 1,128,-1
 360 0 l 1,129,-1
 232 0 l 1,130,-1
 232 12 l 1,131,-1
 258 12 l 1,132,-1
 258 359 l 1,133,134
 251 354 251 354 240.5 345 c 128,-1,135
 230 336 230 336 207 305 c 128,-1,136
 184 274 184 274 174.5 246 c 128,-1,137
 165 218 165 218 162 194 c 128,-1,138
 159 170 159 170 157 138 c 128,-1,139
 155 106 155 106 153 86 c 0,140,141
 148 46 148 46 117.5 23 c 128,-1,142
 87 0 87 0 56 0 c 0,143,144
 27 0 27 0 12 17 c 0,145,146
 -2 33 -2 33 -2 42 c 0,147,148
 -1 70 -1 70 12 76 c 1,149,150
 22 79 22 79 31.5 74.5 c 128,-1,151
 41 70 41 70 40 60 c 0,152,153
 38 39 38 39 23 42 c 0,154,155
 22 42 22 42 20 42 c 1,0,1
EndSplineSet
Colour: ff00
EndChar

StartChar: uni0417.simple
Encoding: 62743 62743 29
Width: 480
GlyphClass: 2
Flags: W
HStem: -91 19<17.7197 38> -3 7<269.663 310.8> 57 27<98.9702 149.461> 235 66<201.313 245.718> 264 8<256.204 275.833> 427 12<52 78 154 180> 529 21<204.146 315.288>
VStem: -6 14<-59.0471 -11.8639> 36 42.5<-71.7806 -42.041> 78 76<439 499.893> 191 65<272 291.718> 384 62<329.995 478.194> 392 72<56.4902 197.862>
DStem2: 36 -3 40 -21 0.20601 0.97855<-16.5703 19.1503>
AnchorPoint: "Yerok" 418 575 basechar 0
AnchorPoint: "Diacritic" 266 575 basechar 0
LayerCount: 3
Fore
SplineSet
224 301 m 0xff28
 240 301 256 289 256 272 c 1
 280 278 326 280 359 322 c 0
 376 343 384 373 384 402 c 0
 384 465 345 529 265 529 c 0
 193 529 154 499 154 439 c 1
 180 439 l 1
 180 427 l 1
 52 427 l 1
 52 439 l 1
 78 439 l 1
 78 481 99 550 265 550 c 0
 345 550 446 535 446 427 c 0xfe70
 446 335 414 303 358 277 c 0
 352 274 346 272 340 270 c 1
 409 254 464 196 464 124 c 0
 464 23 358 -4 277 -4 c 0
 239 -4 207 2 194 9 c 0
 153 32 147 57 124 57 c 0
 113 57 99 52 76 39 c 0
 50 25 40 -21 40 -21 c 1
 40 -21 36 -13 36 -3 c 0
 36 4 40 16 40 16 c 1xfea8
 40 16 23 2 14 -14 c 0
 10 -20 8 -28 8 -36 c 0
 8 -54 18 -72 38 -72 c 1
 38 -72 36 -67 36 -61 c 0
 36 -52 40 -42 58 -42 c 0
 71 -42 79 -48 79 -61 c 0
 79 -74 66 -90 43 -90 c 0
 17 -90 -6 -69 -6 -40 c 0
 -6 9 38 40 70 57 c 0
 100 73 128 84 155 84 c 0
 188 84 220 67 256 19 c 0
 264 9 276 5 289 5 c 0
 301 5 314 9 325 13 c 0
 370 31 391 75 391 121 c 0
 391 174 362 230 308 252 c 0
 286 261 268 264 257 264 c 1
 255 248 241 235 224 235 c 0
 205 235 191 250 191 268 c 0
 191 287 206 301 224 301 c 0xff28
EndSplineSet
Validated: 1
Layer: 2
SplineSet
40 16 m 1,0,1
 8 -10 8 -10 8 -33 c 0,2,3
 8 -41 8 -41 11 -50 c 0,4,5
 18 -72 18 -72 38 -72 c 1,6,-1
 36 -60 l 1,7,8
 36 -42 36 -42 55 -42 c 0,9,10
 75 -42 75 -42 78.5 -52.5 c 0,11,12
 82 -64 82 -64 74 -77 c 0,13,14
 65 -91 65 -91 46 -91 c 0,15,16
 26 -91 26 -91 10 -77.5 c 128,-1,17
 -6 -64 -6 -64 -6 -40 c 0,18,19
 -6 18 -6 18 70 57 c 0,20,21
 123 84 123 84 147 84 c 0,22,23
 170 84 170 84 197.5 72 c 0,24,25
 226 59 226 59 256 19 c 0,26,27
 267 4 267 4 285 4 c 0,28,29
 305 4 305 4 324 12 c 0,30,31
 392 40 392 40 392 127 c 0,32,33
 392 152 392 152 378 183 c 0,34,35
 357 233 357 233 308 252 c 0,36,37
 277 264 277 264 257 264 c 1,38,39
 255 251 255 251 246 243 c 128,-1,40
 237 235 237 235 223 235 c 128,-1,41
 209 235 209 235 200 245 c 128,-1,42
 191 255 191 255 191 269 c 128,-1,43
 191 283 191 283 201 292 c 128,-1,44
 211 301 211 301 225 301 c 128,-1,45
 239 301 239 301 247.5 292 c 128,-1,46
 256 283 256 283 256 272 c 1,47,48
 257 272 257 272 276 276 c 0,49,50
 384 297 384 297 384 402 c 0,51,52
 384 469 384 469 336 506 c 0,53,54
 307 529 307 529 265 529 c 0,55,56
 154 529 154 529 154 439 c 1,57,-1
 180 439 l 1,58,-1
 180 427 l 1,59,-1
 52 427 l 1,60,-1
 52 439 l 1,61,-1
 78 439 l 1,62,63
 78 550 78 550 262 550 c 128,-1,64
 446 550 446 550 446 427 c 0,65,66
 446 362 446 362 422 326 c 0,67,68
 398 289 398 289 340 270 c 1,69,70
 393 258 393 258 428.5 217.5 c 128,-1,71
 464 177 464 177 464 124.5 c 128,-1,72
 464 72 464 72 427.5 40.5 c 128,-1,73
 391 9 391 9 349 3 c 0,74,75
 308 -3 308 -3 286 -3 c 128,-1,76
 264 -3 264 -3 237.5 -1.5 c 128,-1,77
 211 -0 211 -0 194 9.5 c 128,-1,78
 177 19 177 19 161.5 33 c 128,-1,79
 146 47 146 47 140 52 c 128,-1,80
 134 57 134 57 121 57 c 0,81,82
 107 57 107 57 86 45 c 0,83,84
 52 26 52 26 43 -9 c 2,85,-1
 40 -21 l 1,86,87
 36 -13 36 -13 36 -3 c 1,88,-1
 40 16 l 1,0,1
EndSplineSet
Colour: ff00
EndChar

StartChar: uni0418
Encoding: 1048 1048 30
Width: 525
Flags: W
HStem: -2 13<112.09 175.451 362.09 425.451> 72 56<77.437 125.172 327.437 375.172> 132 13<125.014 137.985> 152 13<125.014 137.985> 166 13<109.014 121.985> 269 14<38 78.5889> 534 20<235.424 258.906 485.424 509.672>
VStem: 1 11<214.577 250.887> 55 21.5<35.5469 79.8398> 96 14<197.299 250.073> 109 13<166.002 178.987> 125 13<132.002 144.987 152.002 164.987> 131 80<261.682 518.408> 168 39<80.1484 135.885> 215 36<47.9888 135.632> 268 61<349.253 409.487> 305 21.5<35.5469 79.8398> 381 80<225.742 490.095> 418 39<80.1484 135.885> 465 36<47.9888 135.371>
DStem2: 221 281 136 301 0.19654 -0.980496<-1.20414 138.522>
AnchorPoint: "Yerok" 460.5 575.4 basechar 0
AnchorPoint: "Diacritic" 327 575 basechar 0
LayerCount: 3
Fore
SplineSet
125 139 m 0xff9210
 125 142 128 145 132 145 c 0
 135 145 138 142 138 139 c 0
 138 135 135 132 132 132 c 0
 128 132 125 135 125 139 c 0xff9210
125 159 m 0
 125 162 128 165 132 165 c 0
 135 165 138 162 138 159 c 0
 138 155 135 152 132 152 c 0
 128 152 125 155 125 159 c 0
109 173 m 0xffa210
 109 176 112 179 116 179 c 0
 119 179 122 176 122 173 c 0
 122 169 119 166 116 166 c 0
 112 166 109 169 109 173 c 0xffa210
56 282 m 0
 87 282 110 258 110 231 c 0
 110 204 102 189 87 169 c 0
 80 160 68 151 61 145 c 0
 53 137 50 129 50 129 c 1
 50 129 61 143 78 150 c 0
 91 155 99 157 105 157 c 0
 111 157 115 155 115 151 c 0
 115 143 84 147 59 123 c 0
 53 117 47 99 47 99 c 1
 46 100 27 109 27 129 c 0
 27 160 50 175 50 200 c 0
 50 201 l 0
 50 213 44 219 44 219 c 1
 44 219 44 219 45 219 c 0
 49 219 62 218 71 196 c 0
 76 183 74 173 74 173 c 1
 74 173 96 196 96 224 c 0xffc210
 96 251 77 269 54 269 c 0
 30 269 13 253 13 231 c 0
 13 213 23 207 23 205 c 0
 23 205 22 205 21 205 c 0
 7 205 1 221 1 236 c 0
 1 266 27 282 56 282 c 0
290 349 m 1
 280 353 266 362 266 377 c 0
 266 383 268 388 271 395 c 0
 282 423 297 439 320 455 c 0
 343 472 374 478 391 480 c 1
 397 506 405 526 412 536 c 0
 423 550 445 554 464 554 c 0
 490 554 508 552 508 541 c 0
 508 534 503 534 498 534 c 0
 474 534 461 419 461 382 c 0xff8b50
 461 273 492 216 500 125 c 0
 500 119 501 114 501 108 c 0
 501 60 480 39 455 18 c 0
 436 2 415 -2 394 -2 c 0
 337 -2 305 20 305 79 c 0
 305 109 326 128 349 128 c 0
 369 128 383 114 383 98 c 0
 383 82 367 72 353 72 c 0
 339 72 327 80 327 80 c 1
 327 80 326 76 326 71 c 0
 326 57 330 31 356 20 c 0
 368 15 380 12 393 12 c 0
 412 12 432 19 448 35 c 0
 461 48 465 67 465 86 c 0
 465 112 457 136 457 136 c 1
 457 136 456 108 438 80 c 0
 427 62 404 47 389 47 c 0
 387 47 l 0
 387 48 417 57 417 124 c 0xff82b0
 417 141 415 163 410 189 c 0
 393 274 381 300 381 382 c 0
 381 410 384 438 388 463 c 1
 372 460 353 453 335 443 c 0
 315 431 311 418 306 410 c 1
 316 406 330 397 330 382 c 0
 330 377 328 372 325 364 c 0
 310 320 266 290 221 281 c 1
 230 227 245 183 250 125 c 0
 250 119 251 114 251 108 c 0
 251 60 230 39 205 18 c 0
 186 2 165 -2 144 -2 c 0
 87 -2 55 20 55 79 c 0
 55 109 76 128 99 128 c 0
 119 128 133 114 133 98 c 0
 133 82 117 72 103 72 c 0
 89 72 77 80 77 80 c 1
 77 80 76 76 76 71 c 0
 76 57 80 31 106 20 c 0
 118 15 130 12 143 12 c 0
 162 12 182 19 198 35 c 0
 211 48 215 67 215 86 c 0
 215 112 207 136 207 136 c 1
 207 136 206 108 188 80 c 0
 177 62 154 47 139 47 c 0
 137 47 l 0
 137 48 167 57 167 124 c 0xff8750
 167 141 165 163 160 189 c 0
 143 274 131 300 131 382 c 0
 131 447 146 516 162 536 c 0
 173 550 195 554 214 554 c 0
 233 554 249 550 249 550 c 1
 264 545 258 532 250 534 c 0
 248 534 l 0
 224 534 211 419 211 382 c 0xff8a10
 211 350 214 322 218 297 c 1
 231 301 246 307 261 316 c 0
 281 328 285 341 290 349 c 1
EndSplineSet
Validated: 1
Layer: 2
SplineSet
125 139 m 0,0,1
 125 145 125 145 131 145 c 0,2,3
 138 145 138 145 138 139 c 0,4,5
 138 132 138 132 131.5 132 c 128,-1,6
 125 132 125 132 125 139 c 0,0,1
125 159 m 0,7,8
 125 165 125 165 131 165 c 0,9,10
 138 165 138 165 138 159 c 0,11,12
 138 152 138 152 131.5 152 c 128,-1,13
 125 152 125 152 125 159 c 0,7,8
109 173 m 0,14,15
 109 179 109 179 115 179 c 0,16,17
 122 179 122 179 122 173 c 0,18,19
 122 166 122 166 115.5 166 c 128,-1,20
 109 166 109 166 109 173 c 0,14,15
38 266 m 1,21,22
 12 254 12 254 12 237 c 128,-1,23
 12 220 12 220 23 206 c 1,24,-1
 21 205 l 1,25,26
 7 205 7 205 3 222 c 0,27,28
 1 229 1 229 1 237 c 0,29,30
 0 265 0 265 36 279 c 0,31,32
 46 283 46 283 58 283 c 0,33,34
 70 282 70 282 80 277 c 0,35,36
 110 262 110 262 110 232 c 0,37,38
 110 200 110 200 87 169 c 0,39,40
 84 165 84 165 61 145 c 1,41,-1
 50 129 l 1,42,43
 60 142 60 142 79 150 c 128,-1,44
 98 158 98 158 105 158 c 128,-1,45
 112 158 112 158 114 154 c 128,-1,46
 116 150 116 150 113 148.5 c 128,-1,47
 110 147 110 147 92 142.5 c 128,-1,48
 74 138 74 138 59 123 c 1,49,-1
 47 99 l 1,50,51
 26 108 26 108 26 126 c 128,-1,52
 26 144 26 144 38 166.5 c 128,-1,53
 50 189 50 189 50 200 c 128,-1,54
 50 211 50 211 44 219 c 1,55,56
 45 219 45 219 46 219 c 0,57,58
 61 221 61 221 71 196 c 1,59,-1
 74 173 l 1,60,61
 88 187 88 187 91 199 c 128,-1,62
 94 211 94 211 96 222.5 c 128,-1,63
 98 234 98 234 92 244 c 1,64,65
 83 269 83 269 54 269 c 1,66,-1
 38 266 l 1,21,22
290 349 m 1,67,68
 268 357 268 357 268 377 c 0,69,70
 268 385 268 385 272 396 c 0,71,72
 283 430 283 430 320 455 c 1,73,74
 347 475 347 475 391 480 c 1,75,76
 400 519 400 519 412 536 c 1,77,78
 430 558 430 558 467 554 c 0,79,80
 476 553 476 553 482 552 c 2,81,-1
 499 550 l 1,82,83
 510 546 510 546 510 543 c 0,84,85
 510 543 510 543 507 537 c 0,86,87
 506 534 506 534 502 534 c 0,88,89
 497 534 497 534 497 534 c 0,90,91
 484 538 484 538 472 479 c 0,92,93
 461 424 461 424 461 372 c 0,94,95
 461 321 461 321 481 232 c 128,-1,96
 501 143 501 143 501 111 c 0,97,98
 501 78 501 78 490.5 58.5 c 0,99,100
 482 43 482 43 455 19 c 0,101,102
 431 -2 431 -2 393 -2 c 0,103,104
 379 -2 379 -2 364 0 c 0,105,106
 305 10 305 10 305 79 c 0,107,108
 305 106 305 106 321 117 c 128,-1,109
 337 128 337 128 346 128 c 128,-1,110
 355 128 355 128 361 126 c 0,111,112
 379 120 379 120 382 104 c 0,113,114
 386 89 386 89 375.5 80.5 c 128,-1,115
 365 72 365 72 353 72 c 128,-1,116
 341 72 341 72 327 80 c 1,117,118
 328 78 328 78 326.5 68 c 128,-1,119
 325 58 325 58 332.5 42.5 c 128,-1,120
 340 27 340 27 358 19 c 128,-1,121
 376 11 376 11 400 11 c 128,-1,122
 424 11 424 11 445 32 c 0,123,124
 465 52 465 52 465 91 c 0,125,126
 465 106 465 106 462 118 c 2,127,-1
 457 136 l 1,128,129
 456 108 456 108 443 87.5 c 128,-1,130
 430 67 430 67 415 57 c 128,-1,131
 400 47 400 47 389 47 c 0,132,133
 387 47 387 47 390 49 c 0,134,135
 418 66 418 66 418 121 c 0,136,137
 418 155 418 155 405 215 c 0,138,139
 395 261 395 261 386 301 c 0,140,141
 381 326 381 326 381 373 c 0,142,143
 381 419 381 419 388 463 c 1,144,145
 333 452 333 452 315 425 c 0,146,147
 313 422 313 422 310 416.5 c 128,-1,148
 307 411 307 411 306 410 c 1,149,150
 329 402 329 402 329 381 c 0,151,152
 329 374 329 374 326 364 c 0,153,154
 315 331 315 331 276 304 c 1,155,156
 253 287 253 287 221 281 c 1,157,158
 228 245 228 245 237 204 c 0,159,160
 251 142 251 142 251 110 c 128,-1,161
 251 78 251 78 240.5 58.5 c 0,162,163
 232 43 232 43 205 19 c 0,164,165
 181 -2 181 -2 143 -2 c 0,166,167
 129 -2 129 -2 114 0 c 0,168,169
 55 10 55 10 55 79 c 0,170,171
 55 106 55 106 71 117 c 128,-1,172
 87 128 87 128 96 128 c 128,-1,173
 105 128 105 128 111 126 c 0,174,175
 129 120 129 120 132 104 c 0,176,177
 136 89 136 89 125.5 80.5 c 128,-1,178
 115 72 115 72 103 72 c 128,-1,179
 91 72 91 72 77 80 c 1,180,181
 78 78 78 78 76.5 68 c 128,-1,182
 75 58 75 58 82.5 42.5 c 128,-1,183
 90 27 90 27 108 19 c 128,-1,184
 126 11 126 11 150 11 c 128,-1,185
 174 11 174 11 195 32 c 0,186,187
 215 52 215 52 215 91 c 0,188,189
 215 106 215 106 212 118 c 2,190,-1
 207 136 l 1,191,192
 206 108 206 108 193 87.5 c 128,-1,193
 180 67 180 67 165 57 c 128,-1,194
 150 47 150 47 139 47 c 0,195,196
 137 47 137 47 140 49 c 0,197,198
 168 66 168 66 168 121 c 0,199,200
 168 155 168 155 155 215 c 0,201,202
 145 261 145 261 136 301 c 0,203,204
 131 326 131 326 131 379 c 0,205,206
 131 430 131 430 140.5 475.5 c 128,-1,207
 150 521 150 521 163 537 c 0,208,209
 180 558 180 558 217 554 c 0,210,211
 226 553 226 553 232 552 c 2,212,-1
 249 550 l 1,213,214
 263 545 263 545 259 539 c 0,215,216
 256 534 256 534 252 534 c 0,217,218
 247 534 247 534 247 534 c 0,219,220
 234 538 234 538 222 479 c 0,221,222
 211 424 211 424 211 382 c 0,223,224
 211 341 211 341 218 297 c 1,225,226
 266 312 266 312 281 334 c 0,227,228
 283 337 283 337 286 342.5 c 128,-1,229
 289 348 289 348 290 349 c 1,67,68
EndSplineSet
Substitution2: "'ss01' Style Set Simple Forms-1" uni0418.simple
Colour: ff00
EndChar

StartChar: uni041A
Encoding: 1050 1050 31
Width: 565
Flags: W
HStem: 0 17<96.9343 187.718 475.273 524.955> 44 32.5<512.332 531.968> 72 56<77.437 125.172> 84 13<283.015 295.986> 98 13<267.015 279.986> 118 13<267.015 279.986> 132 13<125.014 137.985> 152 13<125.014 137.985> 166 13<109.014 121.985> 269 14<38 78.5889> 461 49<414.278 456.626> 534.254 20.386<235.287 259.391 387.918 443.773>
VStem: 0.972973 11.027<214.577 251.112> 55 21.5<35.5469 79.8398> 96 14<197.299 250.073> 109 13<166.002 178.987> 125 13<132.002 144.987 152.002 164.987> 131 80<225.742 518.455> 168 39<80.1484 135.885> 215 36<47.9888 135.371> 267 13<98.0154 110.998 118.015 130.998> 272 44<283.034 381> 283 13<84.0154 96.9983> 309 14<34.8758 100.856> 349 22<162.992 196.649> 401 60<28.335 182.859> 458 12<502 522.344> 532 22<22.5437 44.439>
DStem2: 494 48 461 64 0.759257 -0.650791<-27.7298 -0.197679>
AnchorPoint: "Yerok" 430 575.4 basechar 0
AnchorPoint: "Diacritic" 319 575 basechar 0
LayerCount: 3
Fore
SplineSet
214 554 m 0xa3fc5004
 240 554 258 552 258 541 c 0
 258 534 253 534 248 534 c 0
 224 534 211 419 211 382 c 0
 211 273 242 216 250 125 c 0
 250 119 251 114 251 108 c 0
 251 60 230 39 205 18 c 0
 186 2 165 -2 144 -2 c 0
 87 -2 55 20 55 79 c 0xc3fc5004
 55 109 76 128 99 128 c 0xa3fc5004
 119 128 133 114 133 98 c 0x8bfc5004
 133 82 117 72 103 72 c 0
 89 72 77 80 77 80 c 1
 77 80 76 76 76 71 c 0
 76 57 80 31 106 20 c 0
 118 15 130 12 143 12 c 0
 162 12 182 19 198 35 c 0
 211 48 215 67 215 86 c 0
 215 112 207 136 207 136 c 1
 207 136 206 108 188 80 c 0
 177 62 154 47 139 47 c 0
 137 47 l 0
 137 48 167 57 167 124 c 0xa3fc3004
 167 141 165 163 160 189 c 0
 143 274 131 300 131 382 c 0
 131 447 146 516 162 536 c 0
 173 550 195 554 214 554 c 0xa3fc5004
56 282 m 0
 87 282 110 258 110 231 c 0
 110 204 102 189 87 169 c 0
 80 160 68 151 61 145 c 0
 53 137 50 129 50 129 c 1
 50 129 61 143 78 150 c 0
 91 155 99 157 105 157 c 0
 111 157 115 155 115 151 c 0
 115 143 84 147 59 123 c 0
 53 117 47 99 47 99 c 1
 46 100 27 109 27 129 c 0
 27 160 50 175 50 200 c 0
 50 201 l 0
 50 213 44 219 44 219 c 1
 44 219 44 219 45 219 c 0
 49 219 62 218 71 196 c 0
 76 183 74 173 74 173 c 1
 74 173 96 196 96 224 c 0x83fe1004
 96 251 77 269 54 269 c 0
 30 269 13 253 13 231 c 0
 13 213 23 207 23 205 c 0
 23 205 22 205 21 205 c 0
 7 205 1 221 1 236 c 0
 1 266 27 282 56 282 c 0
109 173 m 0x83fd1004
 109 176 112 179 116 179 c 0
 119 179 122 176 122 173 c 0
 122 169 119 166 116 166 c 0
 112 166 109 169 109 173 c 0x83fd1004
125 159 m 0x83fc9004
 125 162 128 165 132 165 c 0
 135 165 138 162 138 159 c 0
 138 155 135 152 132 152 c 0
 128 152 125 155 125 159 c 0x83fc9004
125 139 m 0
 125 142 128 145 132 145 c 0
 135 145 138 142 138 139 c 0
 138 135 135 132 132 132 c 0
 128 132 125 135 125 139 c 0
296 91 m 0x93fc1204
 296 87 293 84 290 84 c 0
 286 84 283 87 283 91 c 0
 283 94 286 97 290 97 c 0
 293 97 296 94 296 91 c 0x93fc1204
280 105 m 0x8bfc1804
 280 101 277 98 274 98 c 0
 270 98 267 101 267 105 c 0
 267 108 270 111 274 111 c 0
 277 111 280 108 280 105 c 0x8bfc1804
280 125 m 0
 280 121 277 118 274 118 c 0
 270 118 267 121 267 125 c 0
 267 128 270 131 274 131 c 0x87fc1804
 277 131 280 128 280 125 c 0
414 485 m 0xd3fc1414
 414 502 428 510 436 510 c 0
 447 510 457 502 457 502 c 1
 457 504 457 506 457 507 c 0xd3fc100c
 457 530 427 539 418 539 c 0
 364 539 321 475 312 432 c 1
 313 432 322 448 335 462 c 0
 345 472 359 480 365 480 c 0
 366 480 367 479 368 479 c 1
 368 477 337 466 316 416 c 0
 311 404 310 394 310 384 c 0
 310 365 316 346 316 321 c 0
 316 282 291 282 291 282 c 1
 294 265 l 1
 413 244 462 208 462 136 c 0
 462 68 494 48 494 48 c 1
 494 48 484 46 475 52 c 0
 468 57 461 64 461 64 c 1
 461 64 461 63 461 61 c 0
 461 53 462 29 478 22 c 0
 485 19 494 17 502 17 c 0
 518 17 532 25 532 44 c 1
 532 44 531 44 529 44 c 0
 525 44 512 46 512 65 c 0
 512 72 522 79 533 79 c 0
 545 79 553 70 553 53 c 0
 553 26 533 -0 504 0 c 0
 474 0 402 7 401 95 c 0
 401 124 393 164 371 197 c 1
 371 193 372 189 372 185 c 0xd3fc1464
 372 159 359 129 359 105 c 0
 359 98 360 91 363 85 c 0
 369 74 374 69 374 69 c 1
 374 69 372 68 368 68 c 0
 362 68 352 71 342 84 c 0
 333 96 333 106 333 106 c 1xd3fc1084
 333 106 324 90 324 67 c 0
 324 60 325 52 327 43 c 0
 332 22 352 9 352 3 c 0
 352 1 349 -0 347 -0 c 0
 336 -0 317 24 313 41 c 0
 310 51 309 60 309 68 c 0
 309 80 312 92 318 106 c 0
 323 117 333 129 338 136 c 0
 344 146 345 155 345 155 c 1
 345 155 338 138 323 127 c 0
 309 116 300 113 294 113 c 0
 291 113 287 114 287 117 c 0
 287 124 317 131 334 158 c 0
 345 174 349 185 349 195 c 0
 349 203 347 211 341 220 c 0
 328 244 304 249 280 253 c 1xd3fc1944
 280 253 271 273 271 312 c 0
 271 342 276 382 295 432 c 0
 327 518 381 550 410 550 c 0
 446 550 470 532 470 504 c 0
 470 499 469 493 467 487 c 0
 461 469 450 462 440 462 c 0
 426 462 414 473 414 485 c 0xd3fc1414
EndSplineSet
Validated: 513
Layer: 2
SplineSet
280 125 m 0,0,1
 280 118 280 118 274 118 c 0,2,3
 267 118 267 118 267 124 c 0,4,5
 267 131 267 131 273.5 131 c 128,-1,6
 280 131 280 131 280 125 c 0,0,1
280 105 m 0,7,8
 280 98 280 98 274 98 c 0,9,10
 267 98 267 98 267 104 c 0,11,12
 267 111 267 111 273.5 111 c 128,-1,13
 280 111 280 111 280 105 c 0,7,8
296 91 m 0,14,15
 296 84 296 84 290 84 c 0,16,17
 283 84 283 84 283 90 c 0,18,19
 283 97 283 97 289.5 97 c 128,-1,20
 296 97 296 97 296 91 c 0,14,15
125 139 m 0,21,22
 125 145 125 145 131 145 c 0,23,24
 138 145 138 145 138 139 c 0,25,26
 138 132 138 132 131.5 132 c 128,-1,27
 125 132 125 132 125 139 c 0,21,22
125 159 m 0,28,29
 125 165 125 165 131 165 c 0,30,31
 138 165 138 165 138 159 c 0,32,33
 138 152 138 152 131.5 152 c 128,-1,34
 125 152 125 152 125 159 c 0,28,29
109 173 m 0,35,36
 109 179 109 179 115 179 c 0,37,38
 122 179 122 179 122 173 c 0,39,40
 122 166 122 166 115.5 166 c 128,-1,41
 109 166 109 166 109 173 c 0,35,36
333 106 m 1,42,43
 323 91 323 91 323 72 c 0,44,45
 323 52 323 52 326.5 42.5 c 128,-1,46
 330 33 330 33 337.5 23 c 128,-1,47
 345 13 345 13 349 8 c 128,-1,48
 353 3 353 3 351 1 c 128,-1,49
 349 -1 349 -1 345 -1 c 0,50,51
 339 -1 339 -1 324 17 c 128,-1,52
 309 35 309 35 309 60 c 128,-1,53
 309 85 309 85 314.5 98 c 128,-1,54
 320 111 320 111 338 136 c 1,55,-1
 345 155 l 2,56,57
 338 138 338 138 321 125 c 0,58,59
 303 111 303 111 297 111 c 128,-1,60
 291 111 291 111 288.5 114.5 c 128,-1,61
 286 118 286 118 293 122 c 0,62,63
 349 159 349 159 349 194 c 0,64,65
 349 206 349 206 341 220 c 0,66,67
 327 245 327 245 280 253 c 1,68,69
 272 273 272 273 272 293 c 128,-1,70
 272 313 272 313 274 347 c 128,-1,71
 276 381 276 381 296.5 436 c 128,-1,72
 317 491 317 491 350.5 520.5 c 128,-1,73
 384 550 384 550 413.5 550 c 0,74,75
 444 550 444 550 457 535 c 128,-1,76
 470 520 470 520 470 508 c 0,77,78
 470 494 470 494 467 485 c 0,79,80
 459 461 459 461 442 461 c 0,81,82
 439 461 439 461 436 462 c 0,83,84
 415 469 415 469 414 484 c 0,85,86
 414 488 414 488 415 492 c 0,87,88
 420 510 420 510 437 510 c 0,89,90
 445 510 445 510 457 502 c 1,91,92
 458 506 458 506 458 508 c 0,93,94
 455 523 455 523 444 530 c 0,95,96
 430 539 430 539 418 539 c 0,97,98
 381 539 381 539 350.5 504 c 128,-1,99
 320 469 320 469 312 432 c 1,100,101
 344 480 344 480 363 480 c 0,102,103
 366 480 366 480 368 479 c 1,104,105
 333 457 333 457 316 416 c 0,106,107
 309 399 309 399 309 381 c 1,108,-1
 316 320 l 1,109,110
 316 305 316 305 310 294.5 c 128,-1,111
 304 284 304 284 298 283 c 2,112,-1
 291 282 l 1,113,-1
 294 265 l 1,114,115
 384 249 384 249 423 219.5 c 128,-1,116
 462 190 462 190 462 136 c 0,117,118
 462 106 462 106 470 84 c 128,-1,119
 478 62 478 62 486 55 c 2,120,-1
 494 48 l 1,121,122
 484 46 484 46 475 52 c 1,123,-1
 461 64 l 1,124,125
 461 58 461 58 461 58 c 0,126,127
 459 30 459 30 478 22 c 0,128,129
 490 17 490 17 497 17 c 0,130,131
 532 17 532 17 532 44 c 1,132,133
 531 45 531 45 527 44 c 128,-1,134
 523 43 523 43 518 48 c 128,-1,135
 513 53 513 53 512 62.5 c 128,-1,136
 511 72 511 72 520.5 76.5 c 128,-1,137
 530 81 530 81 542 77 c 128,-1,138
 554 73 554 73 554 54 c 0,139,140
 554 34 554 34 540.5 17 c 128,-1,141
 527 0 527 0 501 0 c 0,142,143
 471 0 471 0 442 14 c 0,144,145
 401 34 401 34 401 93 c 0,146,147
 401 153 401 153 371 197 c 1,148,149
 371 193 371 193 371 182 c 128,-1,150
 371 171 371 171 365 145 c 128,-1,151
 359 119 359 119 359 106 c 0,152,153
 359 92 359 92 363 85 c 1,154,-1
 374 69 l 1,155,156
 370 68 370 68 367 68 c 1,157,-1
 342 84 l 1,158,159
 335 92 335 92 333 106 c 1,42,43
38 266 m 1,160,161
 12 254 12 254 12 237 c 128,-1,162
 12 220 12 220 23 206 c 1,163,-1
 21 205 l 1,164,165
 7 205 7 205 3 222 c 0,166,167
 1 229 1 229 1 237 c 0,168,169
 0.972973 237.757 0.972973 237.757 0.972973 238.503 c 0,170,171
 0.972973 265.378 0.972973 265.378 36 279 c 0,172,173
 46 283 46 283 58 283 c 0,174,175
 70 282 70 282 80 277 c 0,176,177
 110 262 110 262 110 232 c 0,178,179
 110 200 110 200 87 169 c 0,180,181
 84 165 84 165 61 145 c 1,182,-1
 50 129 l 1,183,184
 60 142 60 142 79 150 c 128,-1,185
 98 158 98 158 105 158 c 128,-1,186
 112 158 112 158 114 154 c 128,-1,187
 116 150 116 150 113 148.5 c 128,-1,188
 110 147 110 147 92 142.5 c 128,-1,189
 74 138 74 138 59 123 c 1,190,-1
 47 99 l 1,191,192
 26 108 26 108 26 126 c 128,-1,193
 26 144 26 144 38 166.5 c 128,-1,194
 50 189 50 189 50 200 c 128,-1,195
 50 211 50 211 44 219 c 1,196,197
 45 219 45 219 46 219 c 128,-1,198
 47.1111 219.148 47.1111 219.148 48.1948 219.148 c 0,199,200
 61.7407 219.148 61.7407 219.148 71 196 c 1,201,-1
 74 173 l 1,202,203
 88 187 88 187 91 199 c 128,-1,204
 94 211 94 211 96 222.5 c 128,-1,205
 98 234 98 234 92 244 c 1,206,207
 83 269 83 269 54 269 c 1,208,-1
 38 266 l 1,160,161
251 111 m 0,209,210
 251 78 251 78 240.5 58.5 c 0,211,212
 232 43 232 43 205 19 c 0,213,214
 181 -2 181 -2 143 -2 c 0,215,216
 129 -2 129 -2 114 0 c 0,217,218
 55 10 55 10 55 79 c 0,219,220
 55 106 55 106 71 117 c 128,-1,221
 87 128 87 128 96 128 c 128,-1,222
 105 128 105 128 111 126 c 0,223,224
 129 120 129 120 132 104 c 0,225,226
 136 89 136 89 125.5 80.5 c 128,-1,227
 115 72 115 72 103 72 c 128,-1,228
 91 72 91 72 77 80 c 1,229,230
 78 78 78 78 76.5 68 c 128,-1,231
 75 58 75 58 82.5 42.5 c 128,-1,232
 90 27 90 27 108 19 c 128,-1,233
 126 11 126 11 150 11 c 128,-1,234
 174 11 174 11 195 32 c 0,235,236
 215 52 215 52 215 91 c 0,237,238
 215 106 215 106 212 118 c 2,239,-1
 207 136 l 1,240,241
 206 108 206 108 193 87.5 c 128,-1,242
 180 67 180 67 165 57 c 128,-1,243
 150 47 150 47 139 47 c 0,244,245
 137 47 137 47 140 49 c 0,246,247
 168 66 168 66 168 121 c 0,248,249
 168 155 168 155 155 215 c 0,250,251
 145 261 145 261 136 301 c 0,252,253
 131 326 131 326 131 379 c 0,254,255
 131 430 131 430 140.5 475.5 c 128,-1,256
 150 521 150 521 163 537 c 0,257,258
 177.28 554.64 177.28 554.64 205.672 554.64 c 0,259,260
 211.08 554.64 211.08 554.64 217 554 c 0,261,262
 226 553 226 553 232 552 c 2,263,-1
 249 550 l 1,264,265
 260 546 260 546 260 543 c 0,266,267
 260 543 260 543 257 537 c 0,268,269
 256 534 256 534 252 534 c 0,270,271
 247 534 247 534 247 534 c 0,272,273
 246.175 534.254 246.175 534.254 245.353 534.254 c 0,274,275
 233.238 534.254 233.238 534.254 222 479 c 0,276,277
 211 424 211 424 211 372 c 0,278,279
 211 321 211 321 231 232 c 128,-1,280
 251 143 251 143 251 111 c 0,209,210
EndSplineSet
Substitution2: "'ss01' Style Set Simple Forms-1" uni041A.simple
Substitution2: "'salt' Stylistic Alternatives for Cyrillic-1" uni041A.alt2 uni041A.alt3
Colour: ff00
EndChar

StartChar: uni041B
Encoding: 1051 1051 32
Width: 430
Flags: W
HStem: 0 12<33.6423 71.1579 283 309 385 411> 42 32.5<21.0215 40.6992> 408 31<174.126 201.815> 420 9<238.248 273.312> 443 12<240.035 284.997> 470 11<196.385 275.672> 488 10<213.001 223.999> 503 10<204.001 214.999 223.962 255.87> 517 10<212.001 222.999> 538 12<283 309 385 411> 644 10<200.289 235.307>
VStem: -1 22<20.8906 42> 90 65<36.4517 233.909> 160 14<436 453.93> 175 11<592.953 630.653> 204 11<503.011 512.999> 213 11<488.011 497.999 517.02 526.94> 226 11<557.909 584.344> 309 76<12 418 437 461.855 465 490.931 495 538>
DStem2: 292 417 309 418 0.691905 0.721988<0 12.4844>
AnchorPoint: "Yerok" 347.5 577.6 basechar 0
AnchorPoint: "Diacritic" 348.5 578 basechar 0
LayerCount: 3
Fore
SplineSet
223 522 m 0xcc7f38
 223 519 221 517 218 517 c 0
 215 517 212 519 212 522 c 0
 212 525 215 527 218 527 c 0
 221 527 223 525 223 522 c 0xcc7f38
215 508 m 0xccffb8
 215 505 213 503 210 503 c 0
 207 503 204 505 204 508 c 0
 204 511 207 513 210 513 c 0
 213 513 215 511 215 508 c 0xccffb8
224 493 m 0xcd7f78
 224 490 221 488 218 488 c 0xce7f78
 215 488 213 490 213 493 c 0xcd7f78
 213 496 215 498 218 498 c 0xce7f78
 221 498 224 496 224 493 c 0xcd7f78
-0 51 m 0
 -0 68 8 77 20 77 c 0
 31 77 41 70 41 63 c 0
 41 44 28 42 24 42 c 0
 21 42 l 1
 21 23 36 14 52 14 c 0
 60 14 68 16 75 20 c 0
 91 29 92 62 92 62 c 1
 92 62 85 55 78 50 c 0
 69 44 59 46 59 46 c 1
 59 46 79 58 88 84 c 0
 91 91 91 101 91 113 c 0
 91 118 91 124 91 131 c 0
 91 160 93 197 112 236 c 0
 147 308 233 363 283 409 c 1
 282 411 268 418 267 418 c 0
 261 421 255 422 251 422 c 0
 246 422 243 420 240 420 c 0
 239 420 238 421 238 424 c 0
 238 427 244 429 252 429 c 0xdd7f38
 257 429 263 428 269 427 c 0
 278 425 292 417 292 417 c 1
 298 423 300 424 304 428 c 1
 299 432 290 438 278 441 c 0
 262 445 240 442 240 448 c 0
 240 451 249 454 262 454 c 0
 280 454 302 444 309 437 c 1
 309 453 l 1
 295 463 252 470 236 470 c 0
 210 470 174 460 174 436 c 1
 174 436 180 439 187 439 c 0
 194 439 202 436 202 421 c 0
 202 411 195 407 187 407 c 0
 172 407 160 416 160 432 c 0
 160 465 197 482 232 482 c 0
 257 482 293 476 309 465 c 1
 309 479 l 1
 298 485 287 491 284 493 c 0
 261 505 223 500 223 507 c 0
 223 510 229 512 234 512 c 0xed7f38
 247 512 266 506 266 506 c 1
 266 506 177 560 177 600 c 0
 177 604 176 608 176 611 c 0
 176 622 179 633 186 641 c 0
 195 650 208 654 220 654 c 0
 241 654 254 640 254 620 c 0
 254 613 252 608 246 605 c 0
 240 603 252 611 243 629 c 0
 238 639 230 644 218 644 c 0
 201 644 186 631 186 612 c 0
 186 582 230 548 230 548 c 2
 230 548 226 554 226 566 c 0
 226 585 238 587 238 587 c 1
 238 587 237 581 238 572 c 0
 242 543 284 503 309 495 c 1
 309 538 l 1
 283 538 l 1
 283 550 l 1
 411 550 l 1
 411 538 l 1
 385 538 l 1
 385 12 l 1
 411 12 l 1
 411 0 l 1
 283 0 l 1
 283 12 l 1
 309 12 l 1
 309 418 l 1
 288 390 232 349 195 281 c 0
 159 214 156 175 156 140 c 0
 156 133 156 125 156 118 c 0
 156 108 154 97 154 86 c 0
 154 31 98 0 49 0 c 0
 20 0 -0 24 -0 51 c 0
EndSplineSet
Validated: 1
Layer: 2
SplineSet
223 522 m 128,-1,1
 223 517 223 517 218 517 c 0,2,3
 212 517 212 517 212 522 c 128,-1,4
 212 527 212 527 217.5 527 c 128,-1,0
 223 527 223 527 223 522 c 128,-1,1
215 508 m 128,-1,6
 215 503 215 503 210 503 c 0,7,8
 204 503 204 503 204 508 c 128,-1,9
 204 513 204 513 209.5 513 c 128,-1,5
 215 513 215 513 215 508 c 128,-1,6
224 493 m 128,-1,11
 224 488 224 488 218 488 c 0,12,13
 213 488 213 488 213 493 c 128,-1,14
 213 498 213 498 218.5 498 c 128,-1,10
 224 498 224 498 224 493 c 128,-1,11
90 111 m 1,15,-1
 90 132 l 1,16,17
 90 192 90 192 109 230 c 128,-1,18
 128 268 128 268 156.5 298 c 128,-1,19
 185 328 185 328 229 364 c 128,-1,20
 273 400 273 400 283 409 c 1,21,22
 278 414 278 414 268 418 c 128,-1,23
 258 422 258 422 250.5 421.5 c 128,-1,24
 243 421 243 421 241.5 420 c 128,-1,25
 240 419 240 419 238 423 c 1,26,27
 238 429 238 429 249.5 429 c 128,-1,28
 261 429 261 429 269 427 c 1,29,-1
 292 417 l 1,30,31
 295 420 295 420 298.5 423 c 128,-1,32
 302 426 302 426 304 428 c 1,33,34
 287 441 287 441 262 443 c 0,35,36
 240 445 240 445 240 447 c 0,37,38
 239 456 239 456 254 455 c 0,39,40
 270 454 270 454 285 449 c 0,41,42
 302 444 302 444 309 437 c 1,43,-1
 309 453 l 1,44,45
 299 460 299 460 274 465 c 128,-1,46
 249 470 249 470 242 470 c 0,47,48
 238 470 238 470 233 470 c 0,49,50
 175 470 175 470 174 436 c 1,51,52
 178 440 178 440 187 439 c 0,53,54
 202 438 202 438 202 420 c 0,55,56
 202 403 202 403 181 408 c 128,-1,57
 160 413 160 413 160 432 c 0,58,59
 160 452 160 452 179 467 c 0,60,61
 197 481 197 481 241 481 c 128,-1,62
 285 481 285 481 309 465 c 1,63,-1
 309 479 l 1,64,65
 287 491 287 491 283.5 493 c 128,-1,66
 280 495 280 495 275.5 496.5 c 128,-1,67
 271 498 271 498 266.5 499 c 128,-1,68
 262 500 262 500 257 500.5 c 128,-1,69
 252 501 252 501 244 502 c 128,-1,70
 236 503 236 503 229.5 503 c 128,-1,71
 223 503 223 503 223 507 c 1,72,73
 226 511 226 511 235 511 c 0,74,75
 243 511 243 511 256 508 c 2,76,-1
 266 506 l 1,77,78
 236 524 236 524 206 554 c 0,79,80
 175 585 175 585 175 607 c 0,81,82
 175 630 175 630 187 642 c 128,-1,83
 199 654 199 654 218 654 c 128,-1,84
 237 654 237 654 246 644 c 1,85,86
 253 634 253 634 254 622.5 c 128,-1,87
 255 611 255 611 246 605 c 0,88,89
 243 603 243 603 245 608 c 0,90,91
 248 613 248 613 247 616 c 128,-1,92
 246 619 246 619 245.5 622.5 c 128,-1,93
 245 626 245 626 243 629 c 0,94,95
 236 644 236 644 220.5 644 c 0,96,97
 204 644 204 644 195 635 c 128,-1,98
 186 626 186 626 186 613 c 128,-1,99
 186 600 186 600 196.5 584 c 128,-1,100
 207 568 207 568 218 558 c 2,101,-1
 230 548 l 1,102,103
 226 554 226 554 226 568.5 c 128,-1,104
 226 583 226 583 238 587 c 1,105,106
 237 582 237 582 237 579 c 0,107,108
 239 553 239 553 263 528 c 0,109,110
 289 501 289 501 309 495 c 1,111,-1
 309 538 l 1,112,-1
 283 538 l 1,113,-1
 283 550 l 1,114,-1
 411 550 l 1,115,-1
 411 538 l 1,116,-1
 385 538 l 1,117,-1
 385 12 l 1,118,-1
 411 12 l 1,119,-1
 411 0 l 1,120,-1
 283 0 l 1,121,-1
 283 12 l 1,122,-1
 309 12 l 1,123,-1
 309 418 l 1,124,-1
 263 370 l 2,125,126
 183 287 183 287 162 198 c 0,127,128
 155 168 155 168 155 149 c 1,129,-1
 155 122 l 2,130,131
 155 105 155 105 152 75.5 c 128,-1,132
 149 46 149 46 118.5 23 c 128,-1,133
 88 0 88 0 57 0 c 0,134,135
 28 0 28 0 13 17 c 0,136,137
 -1 33 -1 33 -1 42 c 0,138,139
 -0 71 -0 71 11 75 c 0,140,141
 23 79 23 79 32.5 74.5 c 128,-1,142
 42 70 42 70 41 60 c 0,143,144
 39 42 39 42 24 42 c 0,145,146
 23 42 23 42 21 42 c 1,147,148
 21 13 21 13 57 13 c 0,149,150
 65 13 65 13 71 17 c 0,151,152
 90 30 90 30 92 54 c 2,153,-1
 92 62 l 1,154,155
 76 46 76 46 63 46 c 0,156,157
 61 46 61 46 59 46 c 1,158,159
 90 65 90 65 90 111 c 1,15,-1
EndSplineSet
Substitution2: "'ss01' Style Set Simple Forms-1" uni041B.simple
Colour: ff00
EndChar

